SplineFontDB: 1.0
FontName: DejaVuSerif-Bold
FullName: DejaVu Serif Bold
FamilyName: DejaVu Serif
Weight: Bold
Copyright: Copyright (c) 2003 by Bitstream, Inc. All Rights Reserved.\nDejaVu changes are in public domain\n
Version: 1.15
ItalicAngle: 0
UnderlinePosition: -217
UnderlineWidth: 240
Ascent: 1556
Descent: 492
Order2: 1
NeedsXUIDChange: 1
FSType: 0
PfmFamily: 17
TTFWeight: 700
TTFWidth: 5
LineGap: 410
VLineGap: 0
Panose: 2 6 8 3 5 6 5 2 2 4
OS2TypoAscent: 1556
OS2TypoAOffset: 0
OS2TypoDescent: -492
OS2TypoDOffset: 0
OS2TypoLinegap: 0
OS2WinAscent: 1923
OS2WinAOffset: 0
OS2WinDescent: 483
OS2WinDOffset: 0
HheadAscent: 1923
HheadAOffset: 0
HheadDescent: -483
HheadDOffset: 0
OS2Vendor: 'PfEd'
ScriptLang: 2
 1 latn 1 dflt 
 1 DFLT 1 dflt 
TtfTable: prep 1407
\,q1GjNmf-c:\8arWC@O"3D#Ta>*k<]*$'b"3(*=`0LMBrWC"9"2MZA"i,Ng^IJC?0E]":"2#!D
]D_oDrWB_1"1SjD[L*,E'a(fi"1&=:ZTnZ!Yo3eN)?[4I)?m>d"0WUFY+H.,Xu?HbT+(t++Tnf)
"02e3Wi6R6W\O[U&Hf"_"K3pTVj\Y1Vu?dqV%Ns/*<W,N"/M\B"f/a4UN@L[UFQG@F<(OZ]*"b"
)?li6"/$P7T+(moS\#&srWA^]>m6e2".arFS=:f.S6Z5e5QmRF*X/#Z".GVi"e$J7R^iC55lUtT
&HeC/".2=VQQ60o$NlZ["-a5sP8OIcO^nWYrWA:)*<hR9"-AQO"csE#Nsc&N5Qm+,%0_b+"-!`l
N/J#HN%tKn$3Q/+",Vh^"c<3\LiaX@Lj]A[$Nl)(",(b:"b\W5K7Xa?KDkt)E=W5)'*Ec7%0_:]
"+La^Im=-cF<(O6rW@Rr*sI)l"+20mH[<:-Hi=+nH!LT"]*!A0"F55<"aOAUGsDLW,m/?M"*Sc,
"a4Y`F`\W-Fnu2^*<UB^"*/Al"`jSEE=W.kJ-9h0/d64n")fdoDZ0`TrW?sJ")CO3C'k&VrW?d?
"(sk%Ag%7fI04$Z"$hiUCBJ%X"(?T[@/^77('@hM%g?8<"'Z?>=]c[J=Y0_X*<T@u"',d3<)X\=
<0dVb)?WkU"&Vl1"]6QJ:_"$?:_j./%M/e>(B[E,*!K)c"&2>r"\fs=9gAhT%ibaH0`t&Y&-Y]^
"%l,o"\O1F8IYbm7g]DjI02tH"%G]g"\(6L777Of71B>f\Gs?0rrb^u"%,Bl"[eRX65Tej5Rmr`
I02_m#mER("$hA>5<UG!5J%"]4XgOu>m!5#*!JJS"$AX^"[!D"4$!uX3uA&\3=5pN&d(-$"#r4M
"ZUo42`:sG2\-!LJ-7b:"#`CI2)H-R23n>$.gZA9(]uQ#*<e6b"#;;7"Z$&Z0b+:>$k!4m*Wn&@
.0V@`""k`("YLhu/M%J;/X?Ji.gZA1&HaRL"=jc\.OGE).NJU?%0J%E"=PW0"XoZ=-RK*&-P6G.
5QiD>"!o3A"XUb_,SM=),Uig?'-RN(rW=>f$3_W>"!Jcm"X+3T+b0\<#Ql27"<S:#"Wo2r5dVRE
/Hm1V"!&Ne*.7o.'a#@0!uWir(_\%r)#aUR(+BD'CBG=c+U&W1!u1tH"Vi'\'Gpoc%M/dW+Ti>h

StartChar: .notdef
Encoding: 0 -1 0
AltUni: 0
Width: 1229
Flags: W
Fore
102 -362 m 1,0,-1
 102 1444 l 1,1,-1
 1126 1444 l 1,2,-1
 1126 -362 l 1,3,-1
 102 -362 l 1,0,-1
217 -248 m 1,4,-1
 1012 -248 l 1,5,-1
 1012 1329 l 1,6,-1
 217 1329 l 1,7,-1
 217 -248 l 1,4,-1
EndSplineSet
EndChar
StartChar: exclam
Encoding: 33 33 33
Width: 899
Flags: W
Fore
260 162 m 0,0,1
 260 240 260 240 315.5 296 c 128,-1,2
 371 352 371 352 449 352 c 0,3,4
 527 352 527 352 583 296 c 128,-1,5
 639 240 639 240 639 162 c 0,6,7
 639 83 639 83 583 27 c 128,-1,8
 527 -29 527 -29 449 -29 c 0,9,10
 371 -29 371 -29 315.5 27 c 128,-1,11
 260 83 260 83 260 162 c 0,0,1
262 1493 m 1,12,-1
 637 1493 l 1,13,-1
 518 651 l 1,14,-1
 518 461 l 1,15,-1
 379 461 l 1,16,-1
 379 651 l 1,17,-1
 262 1493 l 1,12,-1
EndSplineSet
EndChar
StartChar: quotedbl
Encoding: 34 34 34
Width: 1067
Flags: W
Fore
432 1493 m 1,0,-1
 432 938 l 1,1,-1
 195 938 l 1,2,-1
 195 1493 l 1,3,-1
 432 1493 l 1,0,-1
872 1493 m 1,4,-1
 872 938 l 1,5,-1
 635 938 l 1,6,-1
 635 1493 l 1,7,-1
 872 1493 l 1,4,-1
EndSplineSet
EndChar
StartChar: numbersign
Encoding: 35 35 35
Width: 1716
Flags: W
Fore
1024 872 m 1,0,-1
 760 872 l 1,1,-1
 690 598 l 1,2,-1
 954 598 l 1,3,-1
 1024 872 l 1,0,-1
911 1470 m 1,4,-1
 815 1085 l 1,5,-1
 1079 1085 l 1,6,-1
 1176 1470 l 1,7,-1
 1397 1470 l 1,8,-1
 1300 1085 l 1,9,-1
 1577 1085 l 1,10,-1
 1577 872 l 1,11,-1
 1247 872 l 1,12,-1
 1178 598 l 1,13,-1
 1462 598 l 1,14,-1
 1462 383 l 1,15,-1
 1126 383 l 1,16,-1
 1030 0 l 1,17,-1
 809 0 l 1,18,-1
 905 383 l 1,19,-1
 641 383 l 1,20,-1
 545 0 l 1,21,-1
 322 0 l 1,22,-1
 418 383 l 1,23,-1
 139 383 l 1,24,-1
 139 598 l 1,25,-1
 467 598 l 1,26,-1
 537 872 l 1,27,-1
 254 872 l 1,28,-1
 254 1085 l 1,29,-1
 592 1085 l 1,30,-1
 688 1470 l 1,31,-1
 911 1470 l 1,4,-1
EndSplineSet
EndChar
StartChar: dollar
Encoding: 36 36 36
Width: 1425
Flags: W
Fore
195 59 m 1,0,-1
 195 350 l 1,1,-1
 315 350 l 1,2,3
 332 216 332 216 410.5 150 c 128,-1,4
 489 84 489 84 633 84 c 2,5,-1
 647 84 l 1,6,-1
 647 489 l 1,7,8
 398 544 398 544 290 639 c 128,-1,9
 182 734 182 734 182 897 c 0,10,11
 182 1077 182 1077 304.5 1180.5 c 128,-1,12
 427 1284 427 1284 647 1290 c 1,13,-1
 647 1559 l 1,14,-1
 768 1559 l 1,15,-1
 768 1290 l 1,16,17
 880 1284 880 1284 982.5 1262.5 c 128,-1,18
 1085 1241 1085 1241 1182 1202 c 1,19,-1
 1182 930 l 1,20,-1
 1061 930 l 1,21,22
 1045 1046 1045 1046 968.5 1110.5 c 128,-1,23
 892 1175 892 1175 768 1177 c 1,24,-1
 768 805 l 1,25,26
 1037 746 1037 746 1146 646.5 c 128,-1,27
 1255 547 1255 547 1255 367 c 0,28,29
 1255 182 1255 182 1128.5 79.5 c 128,-1,30
 1002 -23 1002 -23 768 -29 c 1,31,-1
 768 -299 l 1,32,-1
 647 -299 l 1,33,-1
 647 -29 l 1,34,35
 537 -27 537 -27 424 -5 c 128,-1,36
 311 17 311 17 195 59 c 1,0,-1
647 1178 m 1,37,38
 562 1167 562 1167 512.5 1125 c 128,-1,39
 463 1083 463 1083 463 1022 c 0,40,41
 463 952 463 952 505.5 909 c 128,-1,42
 548 866 548 866 647 838 c 1,43,-1
 647 1178 l 1,37,38
768 84 m 1,44,45
 869 95 869 95 921 138.5 c 128,-1,46
 973 182 973 182 973 256 c 0,47,48
 973 330 973 330 924.5 378 c 128,-1,49
 876 426 876 426 768 457 c 1,50,-1
 768 84 l 1,44,45
EndSplineSet
EndChar
StartChar: percent
Encoding: 37 37 37
Width: 1946
Flags: W
Fore
442 1419 m 0,0,1
 378 1419 378 1419 350 1349.5 c 128,-1,2
 322 1280 322 1280 322 1114 c 0,3,4
 322 947 322 947 350 877 c 128,-1,5
 378 807 378 807 442 807 c 0,6,7
 507 807 507 807 535 877 c 128,-1,8
 563 947 563 947 563 1114 c 0,9,10
 563 1280 563 1280 535 1349.5 c 128,-1,11
 507 1419 507 1419 442 1419 c 0,0,1
442 1520 m 0,12,13
 633 1520 633 1520 734.5 1415.5 c 128,-1,14
 836 1311 836 1311 836 1114 c 0,15,16
 836 917 836 917 734.5 812 c 128,-1,17
 633 707 633 707 442 707 c 0,18,19
 252 707 252 707 150.5 812 c 128,-1,20
 49 917 49 917 49 1114 c 0,21,22
 49 1311 49 1311 150.5 1415.5 c 128,-1,23
 252 1520 252 1520 442 1520 c 0,12,13
1354 1520 m 1,24,-1
 1526 1520 l 1,25,-1
 592 -29 l 1,26,-1
 420 -29 l 1,27,-1
 1354 1520 l 1,24,-1
1503 784 m 0,28,29
 1694 784 1694 784 1795 679.5 c 128,-1,30
 1896 575 1896 575 1896 379 c 0,31,32
 1896 182 1896 182 1795 76.5 c 128,-1,33
 1694 -29 1694 -29 1503 -29 c 0,34,35
 1313 -29 1313 -29 1211.5 76.5 c 128,-1,36
 1110 182 1110 182 1110 379 c 0,37,38
 1110 575 1110 575 1211.5 679.5 c 128,-1,39
 1313 784 1313 784 1503 784 c 0,28,29
1503 684 m 0,40,41
 1438 684 1438 684 1410 614.5 c 128,-1,42
 1382 545 1382 545 1382 379 c 0,43,44
 1382 212 1382 212 1410.5 142 c 128,-1,45
 1439 72 1439 72 1503 72 c 0,46,47
 1568 72 1568 72 1596 142 c 128,-1,48
 1624 212 1624 212 1624 379 c 0,49,50
 1624 545 1624 545 1596 614.5 c 128,-1,51
 1568 684 1568 684 1503 684 c 0,40,41
EndSplineSet
EndChar
StartChar: ampersand
Encoding: 38 38 38
Width: 1849
Flags: W
Fore
1812 0 m 1,0,-1
 1333 0 l 1,1,-1
 1206 131 l 1,2,3
 1106 51 1106 51 985 11 c 128,-1,4
 864 -29 864 -29 721 -29 c 0,5,6
 421 -29 421 -29 251.5 99 c 128,-1,7
 82 227 82 227 82 451 c 0,8,9
 82 614 82 614 168.5 729.5 c 128,-1,10
 255 845 255 845 440 928 c 1,11,12
 389 995 389 995 363.5 1056 c 128,-1,13
 338 1117 338 1117 338 1174 c 0,14,15
 338 1338 338 1338 475.5 1429 c 128,-1,16
 613 1520 613 1520 862 1520 c 0,17,18
 936 1520 936 1520 1034.5 1508 c 128,-1,19
 1133 1496 1133 1496 1257 1473 c 1,20,-1
 1257 1161 l 1,21,-1
 1128 1161 l 1,22,23
 1110 1285 1110 1285 1052 1342 c 128,-1,24
 994 1399 994 1399 887 1399 c 0,25,26
 786 1399 786 1399 728 1351 c 128,-1,27
 670 1303 670 1303 670 1221 c 0,28,29
 670 1129 670 1129 849 947 c 0,30,31
 869 927 869 927 879 918 c 1,32,-1
 1339 436 l 1,33,34
 1399 504 1399 504 1433 593 c 128,-1,35
 1467 682 1467 682 1476 795 c 1,36,-1
 1294 795 l 1,37,-1
 1294 915 l 1,38,-1
 1794 915 l 1,39,-1
 1794 795 l 1,40,-1
 1618 795 l 1,41,42
 1601 649 1601 649 1555.5 536 c 128,-1,43
 1510 423 1510 423 1436 336 c 1,44,-1
 1642 121 l 1,45,-1
 1812 121 l 1,46,-1
 1812 0 l 1,0,-1
1112 229 m 1,47,-1
 547 817 l 1,48,49
 492 750 492 750 464 674.5 c 128,-1,50
 436 599 436 599 436 516 c 0,51,52
 436 347 436 347 542.5 238 c 128,-1,53
 649 129 649 129 813 129 c 0,54,55
 891 129 891 129 964.5 153.5 c 128,-1,56
 1038 178 1038 178 1112 229 c 1,47,-1
EndSplineSet
EndChar
StartChar: quotesingle
Encoding: 39 39 39
Width: 627
Flags: W
Fore
432 1493 m 1,0,-1
 432 938 l 1,1,-1
 195 938 l 1,2,-1
 195 1493 l 1,3,-1
 432 1493 l 1,0,-1
EndSplineSet
EndChar
StartChar: parenleft
Encoding: 40 40 40
Width: 969
Flags: W
Fore
862 -319 m 1,0,1
 525 -194 525 -194 359 39 c 128,-1,2
 193 272 193 272 193 618 c 0,3,4
 193 964 193 964 357 1194 c 128,-1,5
 521 1424 521 1424 862 1556 c 1,6,-1
 862 1436 l 1,7,8
 704 1340 704 1340 634.5 1151.5 c 128,-1,9
 565 963 565 963 565 618 c 0,10,11
 565 274 565 274 634.5 85.5 c 128,-1,12
 704 -103 704 -103 862 -199 c 1,13,-1
 862 -319 l 1,0,1
EndSplineSet
EndChar
StartChar: parenright
Encoding: 41 41 41
Width: 969
Flags: W
Fore
104 -319 m 1,0,-1
 104 -199 l 1,1,2
 262 -103 262 -103 331.5 85.5 c 128,-1,3
 401 274 401 274 401 618 c 0,4,5
 401 963 401 963 331.5 1151.5 c 128,-1,6
 262 1340 262 1340 104 1436 c 1,7,-1
 104 1556 l 1,8,9
 445 1424 445 1424 609.5 1194 c 128,-1,10
 774 964 774 964 774 618 c 0,11,12
 774 272 774 272 607.5 39 c 128,-1,13
 441 -194 441 -194 104 -319 c 1,0,-1
EndSplineSet
EndChar
StartChar: asterisk
Encoding: 42 42 42
Width: 1071
Flags: W
Fore
1026 1212 m 1,0,-1
 666 1044 l 1,1,-1
 1026 874 l 1,2,-1
 928 719 l 1,3,-1
 600 958 l 1,4,-1
 627 569 l 1,5,-1
 444 569 l 1,6,-1
 471 958 l 1,7,-1
 143 719 l 1,8,-1
 45 874 l 1,9,-1
 406 1044 l 1,10,-1
 45 1212 l 1,11,-1
 143 1370 l 1,12,-1
 471 1128 l 1,13,-1
 444 1520 l 1,14,-1
 627 1520 l 1,15,-1
 600 1128 l 1,16,-1
 928 1370 l 1,17,-1
 1026 1212 l 1,0,-1
EndSplineSet
EndChar
StartChar: plus
Encoding: 43 43 43
Width: 1716
Flags: W
Fore
973 1284 m 1,0,-1
 973 758 l 1,1,-1
 1499 758 l 1,2,-1
 1499 528 l 1,3,-1
 973 528 l 1,4,-1
 973 2 l 1,5,-1
 743 2 l 1,6,-1
 743 528 l 1,7,-1
 217 528 l 1,8,-1
 217 758 l 1,9,-1
 743 758 l 1,10,-1
 743 1284 l 1,11,-1
 973 1284 l 1,0,-1
EndSplineSet
EndChar
StartChar: comma
Encoding: 44 44 44
Width: 713
Flags: W
Fore
27 -197 m 1,0,1
 131 -113 131 -113 180 -9 c 128,-1,2
 229 95 229 95 229 233 c 2,3,-1
 229 319 l 1,4,-1
 514 319 l 1,5,-1
 514 311 l 2,6,7
 514 90 514 90 421.5 -69.5 c 128,-1,8
 329 -229 329 -229 137 -338 c 1,9,-1
 27 -197 l 1,0,1
EndSplineSet
EndChar
StartChar: hyphen
Encoding: 45 45 45
Width: 850
Flags: W
Fore
111 684 m 1,0,-1
 739 684 l 1,1,-1
 739 414 l 1,2,-1
 111 414 l 1,3,-1
 111 684 l 1,0,-1
EndSplineSet
KernsSLIFO: 356 -339 0 0 221 -225 0 0 376 -225 0 0 89 -225 0 0 88 -149 0 0 87 -112 0 0 86 -149 0 0 84 -339 0 0
EndChar
StartChar: period
Encoding: 46 46 46
Width: 713
Flags: W
Fore
166 162 m 0,0,1
 166 240 166 240 222 296 c 128,-1,2
 278 352 278 352 356 352 c 0,3,4
 435 352 435 352 491 296 c 128,-1,5
 547 240 547 240 547 162 c 0,6,7
 547 83 547 83 491 27 c 128,-1,8
 435 -29 435 -29 356 -29 c 0,9,10
 278 -29 278 -29 222 27 c 128,-1,11
 166 83 166 83 166 162 c 0,0,1
EndSplineSet
EndChar
StartChar: slash
Encoding: 47 47 47
Width: 748
Flags: W
Fore
526 1493 m 1,0,-1
 748 1493 l 1,1,-1
 221 -190 l 1,2,-1
 0 -190 l 1,3,-1
 526 1493 l 1,0,-1
EndSplineSet
EndChar
StartChar: zero
Encoding: 48 48 48
Width: 1425
Flags: W
Fore
713 88 m 0,0,1
 833 88 833 88 877.5 197 c 128,-1,2
 922 306 922 306 922 745 c 0,3,4
 922 1181 922 1181 877.5 1292 c 128,-1,5
 833 1403 833 1403 713 1403 c 0,6,7
 593 1403 593 1403 548.5 1294 c 128,-1,8
 504 1185 504 1185 504 745 c 0,9,10
 504 306 504 306 548.5 197 c 128,-1,11
 593 88 593 88 713 88 c 0,0,1
713 -29 m 0,12,13
 414 -29 414 -29 255 170.5 c 128,-1,14
 96 370 96 370 96 745 c 0,15,16
 96 1120 96 1120 255 1320 c 128,-1,17
 414 1520 414 1520 713 1520 c 0,18,19
 1011 1520 1011 1520 1170 1320 c 128,-1,20
 1329 1120 1329 1120 1329 745 c 0,21,22
 1329 370 1329 370 1170 170.5 c 128,-1,23
 1011 -29 1011 -29 713 -29 c 0,12,13
EndSplineSet
EndChar
StartChar: one
Encoding: 49 49 49
Width: 1425
Flags: W
Fore
281 0 m 1,0,-1
 281 121 l 1,1,-1
 561 121 l 1,2,-1
 561 1329 l 1,3,-1
 250 1145 l 1,4,-1
 250 1294 l 1,5,-1
 625 1520 l 1,6,-1
 940 1520 l 1,7,-1
 940 121 l 1,8,-1
 1221 121 l 1,9,-1
 1221 0 l 1,10,-1
 281 0 l 1,0,-1
EndSplineSet
EndChar
StartChar: two
Encoding: 50 50 50
Width: 1425
Flags: W
Fore
270 1124 m 1,0,-1
 150 1124 l 1,1,-1
 150 1446 l 1,2,3
 272 1483 272 1483 391.5 1501.5 c 128,-1,4
 511 1520 511 1520 633 1520 c 0,5,6
 918 1520 918 1520 1077.5 1403.5 c 128,-1,7
 1237 1287 1237 1287 1237 1079 c 0,8,9
 1237 931 1237 931 1149 813.5 c 128,-1,10
 1061 696 1061 696 813 535 c 1,11,-1
 397 262 l 1,12,-1
 1104 262 l 1,13,-1
 1104 438 l 1,14,-1
 1241 438 l 1,15,-1
 1241 0 l 1,16,-1
 137 0 l 1,17,-1
 137 244 l 1,18,-1
 358 397 l 2,19,20
 641 592 641 592 735 729 c 128,-1,21
 829 866 829 866 829 1049 c 0,22,23
 829 1222 829 1222 757.5 1312.5 c 128,-1,24
 686 1403 686 1403 549 1403 c 0,25,26
 431 1403 431 1403 360 1331.5 c 128,-1,27
 289 1260 289 1260 270 1124 c 1,0,-1
EndSplineSet
EndChar
StartChar: three
Encoding: 51 51 51
Width: 1425
Flags: W
Fore
176 1450 m 1,0,1
 308 1485 308 1485 432 1502.5 c 128,-1,2
 556 1520 556 1520 674 1520 c 0,3,4
 944 1520 944 1520 1088.5 1423.5 c 128,-1,5
 1233 1327 1233 1327 1233 1147 c 0,6,7
 1233 1012 1233 1012 1150 928 c 128,-1,8
 1067 844 1067 844 907 815 c 1,9,10
 1102 784 1102 784 1198 682 c 128,-1,11
 1294 580 1294 580 1294 403 c 0,12,13
 1294 194 1294 194 1128.5 82.5 c 128,-1,14
 963 -29 963 -29 649 -29 c 0,15,16
 531 -29 531 -29 405.5 -9 c 128,-1,17
 280 11 280 11 143 51 c 1,18,-1
 143 379 l 1,19,-1
 264 379 l 1,20,21
 275 237 275 237 353 162.5 c 128,-1,22
 431 88 431 88 569 88 c 0,23,24
 721 88 721 88 804 172.5 c 128,-1,25
 887 257 887 257 887 412 c 0,26,27
 887 574 887 574 800.5 662 c 128,-1,28
 714 750 714 750 555 750 c 2,29,-1
 489 750 l 1,30,-1
 489 870 l 1,31,-1
 541 870 l 2,32,33
 688 870 688 870 762 938 c 128,-1,34
 836 1006 836 1006 836 1141 c 0,35,36
 836 1268 836 1268 766.5 1335.5 c 128,-1,37
 697 1403 697 1403 567 1403 c 0,38,39
 449 1403 449 1403 380 1338.5 c 128,-1,40
 311 1274 311 1274 297 1151 c 1,41,-1
 176 1151 l 1,42,-1
 176 1450 l 1,0,1
EndSplineSet
EndChar
StartChar: four
Encoding: 52 52 52
Width: 1425
Flags: W
Fore
1307 0 m 1,0,-1
 485 0 l 1,1,-1
 485 121 l 1,2,-1
 707 121 l 1,3,-1
 707 393 l 1,4,-1
 84 393 l 1,5,-1
 84 508 l 1,6,-1
 709 1520 l 1,7,-1
 1085 1520 l 1,8,-1
 1085 522 l 1,9,-1
 1341 522 l 1,10,-1
 1341 393 l 1,11,-1
 1085 393 l 1,12,-1
 1085 121 l 1,13,-1
 1307 121 l 1,14,-1
 1307 0 l 1,0,-1
707 522 m 1,15,-1
 707 1247 l 1,16,-1
 262 522 l 1,17,-1
 707 522 l 1,15,-1
EndSplineSet
EndChar
StartChar: five
Encoding: 53 53 53
Width: 1425
Flags: W
Fore
1155 1493 m 1,0,-1
 1155 1231 l 1,1,-1
 356 1231 l 1,2,-1
 356 903 l 1,3,4
 422 954 422 954 503 980 c 128,-1,5
 584 1006 584 1006 674 1006 c 0,6,7
 950 1006 950 1006 1110 866.5 c 128,-1,8
 1270 727 1270 727 1270 487 c 0,9,10
 1270 243 1270 243 1110 107 c 128,-1,11
 950 -29 950 -29 662 -29 c 0,12,13
 540 -29 540 -29 419.5 -9 c 128,-1,14
 299 11 299 11 168 53 c 1,15,-1
 168 379 l 1,16,-1
 288 379 l 1,17,18
 294 232 294 232 364.5 160 c 128,-1,19
 435 88 435 88 573 88 c 0,20,21
 720 88 720 88 791 186.5 c 128,-1,22
 862 285 862 285 862 487 c 0,23,24
 862 686 862 686 792.5 784.5 c 128,-1,25
 723 883 723 883 582 883 c 0,26,27
 506 883 506 883 446.5 851.5 c 128,-1,28
 387 820 387 820 336 754 c 1,29,-1
 236 754 l 1,30,-1
 236 1493 l 1,31,-1
 1155 1493 l 1,0,-1
EndSplineSet
EndChar
StartChar: six
Encoding: 54 54 54
Width: 1425
Flags: W
Fore
504 885 m 1,0,1
 569 937 569 937 649.5 963 c 128,-1,2
 730 989 730 989 825 989 c 0,3,4
 1054 989 1054 989 1184.5 855 c 128,-1,5
 1315 721 1315 721 1315 487 c 0,6,7
 1315 240 1315 240 1168 105.5 c 128,-1,8
 1021 -29 1021 -29 750 -29 c 0,9,10
 444 -29 444 -29 286.5 155.5 c 128,-1,11
 129 340 129 340 129 698 c 0,12,13
 129 1105 129 1105 304 1312.5 c 128,-1,14
 479 1520 479 1520 823 1520 c 0,15,16
 913 1520 913 1520 1016 1505 c 128,-1,17
 1119 1490 1119 1490 1237 1460 c 1,18,-1
 1237 1196 l 1,19,-1
 1116 1196 l 1,20,21
 1091 1298 1091 1298 1021.5 1350.5 c 128,-1,22
 952 1403 952 1403 842 1403 c 0,23,24
 664 1403 664 1403 584.5 1281 c 128,-1,25
 505 1159 505 1159 504 885 c 1,0,1
727 88 m 0,26,27
 830 88 830 88 874 175.5 c 128,-1,28
 918 263 918 263 918 479 c 0,29,30
 918 695 918 695 874 782.5 c 128,-1,31
 830 870 830 870 727 870 c 0,32,33
 624 870 624 870 580.5 782.5 c 128,-1,34
 537 695 537 695 537 479 c 0,35,36
 537 263 537 263 580.5 175.5 c 128,-1,37
 624 88 624 88 727 88 c 0,26,27
EndSplineSet
EndChar
StartChar: seven
Encoding: 55 55 55
Width: 1425
Flags: W
Fore
1255 1239 m 1,0,-1
 639 0 l 1,1,-1
 436 0 l 1,2,-1
 1036 1210 l 1,3,-1
 299 1210 l 1,4,-1
 299 1008 l 1,5,-1
 162 1008 l 1,6,-1
 162 1493 l 1,7,-1
 1255 1493 l 1,8,-1
 1255 1239 l 1,0,-1
EndSplineSet
EndChar
StartChar: eight
Encoding: 56 56 56
Width: 1425
Flags: W
Fore
952 795 m 1,0,1
 1130 766 1130 766 1222.5 664 c 128,-1,2
 1315 562 1315 562 1315 397 c 0,3,4
 1315 191 1315 191 1159.5 81 c 128,-1,5
 1004 -29 1004 -29 711 -29 c 0,6,7
 418 -29 418 -29 262 81 c 128,-1,8
 106 191 106 191 106 397 c 0,9,10
 106 562 106 562 199 664 c 128,-1,11
 292 766 292 766 469 795 c 1,12,13
 312 831 312 831 234 915.5 c 128,-1,14
 156 1000 156 1000 156 1130 c 0,15,16
 156 1320 156 1320 298 1420 c 128,-1,17
 440 1520 440 1520 711 1520 c 0,18,19
 981 1520 981 1520 1123.5 1420 c 128,-1,20
 1266 1320 1266 1320 1266 1130 c 0,21,22
 1266 1000 1266 1000 1187.5 915.5 c 128,-1,23
 1109 831 1109 831 952 795 c 1,0,1
879 1126 m 0,24,25
 879 1284 879 1284 841 1343.5 c 128,-1,26
 803 1403 803 1403 711 1403 c 0,27,28
 618 1403 618 1403 580.5 1343.5 c 128,-1,29
 543 1284 543 1284 543 1126 c 0,30,31
 543 969 543 969 580.5 910.5 c 128,-1,32
 618 852 618 852 711 852 c 0,33,34
 804 852 804 852 841.5 910.5 c 128,-1,35
 879 969 879 969 879 1126 c 0,24,25
918 414 m 0,36,37
 918 597 918 597 871.5 666 c 128,-1,38
 825 735 825 735 711 735 c 0,39,40
 596 735 596 735 550 666 c 128,-1,41
 504 597 504 597 504 414 c 0,42,43
 504 229 504 229 550.5 158.5 c 128,-1,44
 597 88 597 88 711 88 c 0,45,46
 824 88 824 88 871 158.5 c 128,-1,47
 918 229 918 229 918 414 c 0,36,37
EndSplineSet
EndChar
StartChar: nine
Encoding: 57 57 57
Width: 1425
Flags: W
Fore
698 1403 m 0,0,1
 595 1403 595 1403 551.5 1315.5 c 128,-1,2
 508 1228 508 1228 508 1012 c 0,3,4
 508 796 508 796 551.5 708.5 c 128,-1,5
 595 621 595 621 698 621 c 0,6,7
 801 621 801 621 845 708.5 c 128,-1,8
 889 796 889 796 889 1012 c 0,9,10
 889 1228 889 1228 845 1315.5 c 128,-1,11
 801 1403 801 1403 698 1403 c 0,0,1
921 608 m 1,12,13
 855 555 855 555 774.5 528.5 c 128,-1,14
 694 502 694 502 600 502 c 0,15,16
 372 502 372 502 241.5 635.5 c 128,-1,17
 111 769 111 769 111 1004 c 0,18,19
 111 1252 111 1252 257 1386 c 128,-1,20
 403 1520 403 1520 674 1520 c 0,21,22
 980 1520 980 1520 1138 1335 c 128,-1,23
 1296 1150 1296 1150 1296 793 c 0,24,25
 1296 386 1296 386 1121 178.5 c 128,-1,26
 946 -29 946 -29 602 -29 c 0,27,28
 512 -29 512 -29 409 -14 c 128,-1,29
 306 1 306 1 188 31 c 1,30,-1
 188 295 l 1,31,-1
 309 295 l 1,32,33
 334 193 334 193 403.5 140.5 c 128,-1,34
 473 88 473 88 584 88 c 0,35,36
 760 88 760 88 840 210.5 c 128,-1,37
 920 333 920 333 921 608 c 1,12,13
EndSplineSet
EndChar
StartChar: colon
Encoding: 58 58 58
Width: 756
Flags: W
Fore
188 813 m 0,0,1
 188 892 188 892 243.5 948 c 128,-1,2
 299 1004 299 1004 377 1004 c 0,3,4
 455 1004 455 1004 511 947.5 c 128,-1,5
 567 891 567 891 567 813 c 0,6,7
 567 735 567 735 511.5 680 c 128,-1,8
 456 625 456 625 377 625 c 0,9,10
 298 625 298 625 243 680 c 128,-1,11
 188 735 188 735 188 813 c 0,0,1
188 162 m 0,12,13
 188 240 188 240 243.5 296 c 128,-1,14
 299 352 299 352 377 352 c 0,15,16
 455 352 455 352 511 296 c 128,-1,17
 567 240 567 240 567 162 c 0,18,19
 567 83 567 83 511 27 c 128,-1,20
 455 -29 455 -29 377 -29 c 0,21,22
 299 -29 299 -29 243.5 27 c 128,-1,23
 188 83 188 83 188 162 c 0,12,13
EndSplineSet
EndChar
StartChar: semicolon
Encoding: 59 59 59
Width: 756
Flags: W
Fore
188 813 m 0,0,1
 188 892 188 892 243.5 948 c 128,-1,2
 299 1004 299 1004 377 1004 c 0,3,4
 455 1004 455 1004 511 947.5 c 128,-1,5
 567 891 567 891 567 813 c 0,6,7
 567 735 567 735 511.5 680 c 128,-1,8
 456 625 456 625 377 625 c 0,9,10
 298 625 298 625 243 680 c 128,-1,11
 188 735 188 735 188 813 c 0,0,1
53 -188 m 1,12,13
 158 -105 158 -105 207 -1.5 c 128,-1,14
 256 102 256 102 256 240 c 2,15,-1
 256 328 l 1,16,-1
 541 328 l 1,17,18
 541 103 541 103 448 -59 c 128,-1,19
 355 -221 355 -221 164 -330 c 1,20,-1
 53 -188 l 1,12,13
EndSplineSet
EndChar
StartChar: less
Encoding: 60 60 60
Width: 1716
Flags: W
Fore
1499 979 m 1,0,-1
 520 641 l 1,1,-1
 1499 305 l 1,2,-1
 1499 66 l 1,3,-1
 217 530 l 1,4,-1
 217 756 l 1,5,-1
 1499 1219 l 1,6,-1
 1499 979 l 1,0,-1
EndSplineSet
EndChar
StartChar: equal
Encoding: 61 61 61
Width: 1716
Flags: W
Fore
217 528 m 1,0,-1
 1499 528 l 1,1,-1
 1499 301 l 1,2,-1
 217 301 l 1,3,-1
 217 528 l 1,0,-1
217 983 m 1,4,-1
 1499 983 l 1,5,-1
 1499 756 l 1,6,-1
 217 756 l 1,7,-1
 217 983 l 1,4,-1
EndSplineSet
EndChar
StartChar: greater
Encoding: 62 62 62
Width: 1716
Flags: W
Fore
217 979 m 1,0,-1
 217 1219 l 1,1,-1
 1499 756 l 1,2,-1
 1499 530 l 1,3,-1
 217 66 l 1,4,-1
 217 305 l 1,5,-1
 1196 641 l 1,6,-1
 217 979 l 1,0,-1
EndSplineSet
EndChar
StartChar: question
Encoding: 63 63 63
Width: 1200
Flags: W
Fore
342 162 m 0,0,1
 342 240 342 240 398 296 c 128,-1,2
 454 352 454 352 532 352 c 0,3,4
 611 352 611 352 667 296 c 128,-1,5
 723 240 723 240 723 162 c 0,6,7
 723 83 723 83 667 27 c 128,-1,8
 611 -29 611 -29 532 -29 c 0,9,10
 454 -29 454 -29 398 27 c 128,-1,11
 342 83 342 83 342 162 c 0,0,1
133 1452 m 1,12,13
 257 1486 257 1486 369 1503 c 128,-1,14
 481 1520 481 1520 586 1520 c 0,15,16
 838 1520 838 1520 973 1409.5 c 128,-1,17
 1108 1299 1108 1299 1108 1094 c 0,18,19
 1108 892 1108 892 977.5 775.5 c 128,-1,20
 847 659 847 659 602 641 c 1,21,-1
 602 436 l 1,22,-1
 463 436 l 1,23,-1
 463 735 l 1,24,25
 603 778 603 778 668 870 c 128,-1,26
 733 962 733 962 733 1116 c 0,27,28
 733 1260 733 1260 672 1333.5 c 128,-1,29
 611 1407 611 1407 492 1407 c 0,30,31
 382 1407 382 1407 322.5 1341 c 128,-1,32
 263 1275 263 1275 254 1145 c 1,33,-1
 133 1145 l 1,34,-1
 133 1452 l 1,12,13
EndSplineSet
EndChar
StartChar: at
Encoding: 64 64 64
Width: 2048
Flags: W
Fore
1272 504 m 2,0,-1
 1272 580 l 2,1,2
 1272 709 1272 709 1210 787.5 c 128,-1,3
 1148 866 1148 866 1047 866 c 0,4,5
 948 866 948 866 887.5 778.5 c 128,-1,6
 827 691 827 691 827 543 c 0,7,8
 827 395 827 395 887.5 307 c 128,-1,9
 948 219 948 219 1047 219 c 0,10,11
 1148 219 1148 219 1210 296.5 c 128,-1,12
 1272 374 1272 374 1272 504 c 2,0,-1
1272 240 m 1,13,14
 1228 168 1228 168 1156.5 130 c 128,-1,15
 1085 92 1085 92 995 92 c 0,16,17
 804 92 804 92 695 212 c 128,-1,18
 586 332 586 332 586 543 c 0,19,20
 586 754 586 754 695 873.5 c 128,-1,21
 804 993 804 993 995 993 c 0,22,23
 1085 993 1085 993 1156.5 955 c 128,-1,24
 1228 917 1228 917 1272 846 c 1,25,-1
 1272 971 l 1,26,-1
 1491 971 l 1,27,-1
 1491 229 l 1,28,29
 1634 268 1634 268 1712 385 c 128,-1,30
 1790 502 1790 502 1790 678 c 0,31,32
 1790 821 1790 821 1735 938 c 128,-1,33
 1680 1055 1680 1055 1567 1151 c 0,34,35
 1475 1229 1475 1229 1351 1271 c 128,-1,36
 1227 1313 1227 1313 1087 1313 c 0,37,38
 957 1313 957 1313 844 1278 c 128,-1,39
 731 1243 731 1243 637 1174 c 0,40,41
 495 1068 495 1068 418.5 904 c 128,-1,42
 342 740 342 740 342 543 c 0,43,44
 342 388 342 388 390.5 250.5 c 128,-1,45
 439 113 439 113 528 12 c 0,46,47
 635 -107 635 -107 774.5 -168 c 128,-1,48
 914 -229 914 -229 1077 -229 c 0,49,50
 1199 -229 1199 -229 1313 -195 c 128,-1,51
 1427 -161 1427 -161 1530 -94 c 1,52,-1
 1587 -188 l 1,53,54
 1459 -272 1459 -272 1320.5 -314 c 128,-1,55
 1182 -356 1182 -356 1038 -356 c 0,56,57
 844 -356 844 -356 682 -293 c 128,-1,58
 520 -230 520 -230 393 -104 c 0,59,60
 267 20 267 20 201 185.5 c 128,-1,61
 135 351 135 351 135 543 c 0,62,63
 135 735 135 735 201 900 c 128,-1,64
 267 1065 267 1065 393 1190 c 0,65,66
 521 1316 521 1316 684.5 1378 c 128,-1,67
 848 1440 848 1440 1053 1440 c 0,68,69
 1231 1440 1231 1440 1377 1391.5 c 128,-1,70
 1523 1343 1523 1343 1638 1245 c 1,71,72
 1771 1134 1771 1134 1837 992 c 128,-1,73
 1903 850 1903 850 1903 676 c 0,74,75
 1903 400 1903 400 1745 246 c 128,-1,76
 1587 92 1587 92 1303 92 c 2,77,-1
 1272 92 l 1,78,-1
 1272 240 l 1,13,14
EndSplineSet
EndChar
StartChar: A
Encoding: 65 65 65
Width: 1589
Flags: W
Fore
-16 0 m 1,0,-1
 -16 121 l 1,1,-1
 106 121 l 1,2,-1
 668 1493 l 1,3,-1
 907 1493 l 1,4,-1
 1470 121 l 1,5,-1
 1612 121 l 1,6,-1
 1612 0 l 1,7,-1
 913 0 l 1,8,-1
 913 121 l 1,9,-1
 1059 121 l 1,10,-1
 936 426 l 1,11,-1
 375 426 l 1,12,-1
 250 121 l 1,13,-1
 428 121 l 1,14,-1
 428 0 l 1,15,-1
 -16 0 l 1,0,-1
424 547 m 1,16,-1
 887 547 l 1,17,-1
 657 1118 l 1,18,-1
 424 547 l 1,16,-1
EndSplineSet
KernsSLIFO: 563 -83 0 0 375 -83 0 0 7813 -83 0 0 7811 -83 0 0 7809 -83 0 0 373 -83 0 0 539 -36 0 0 355 -36 0 0 562 -102 0 0 7922 -102 0 0 374 -102 0 0 7812 -102 0 0 7810 -102 0 0 7808 -102 0 0 372 -102 0 0 538 -112 0 0 354 -112 0 0 357 -36 0 0 356 -112 0 0 253 -83 0 0 221 -102 0 0 64258 -36 0 0 64257 -36 0 0 376 -102 0 0 255 -83 0 0 8217 -243 0 0 8221 -243 0 0 121 -83 0 0 119 -83 0 0 118 -83 0 0 116 -36 0 0 102 -36 0 0 89 -102 0 0 87 -102 0 0 86 -149 0 0 84 -112 0 0
EndChar
StartChar: B
Encoding: 66 66 66
Width: 1731
Flags: W
Fore
96 0 m 1,0,-1
 96 121 l 1,1,-1
 287 121 l 1,2,-1
 287 1372 l 1,3,-1
 96 1372 l 1,4,-1
 96 1493 l 1,5,-1
 981 1493 l 2,6,7
 1254 1493 1254 1493 1391 1401 c 128,-1,8
 1528 1309 1528 1309 1528 1124 c 0,9,10
 1528 991 1528 991 1433.5 913 c 128,-1,11
 1339 835 1339 835 1153 815 c 1,12,13
 1378 794 1378 794 1498 695 c 128,-1,14
 1618 596 1618 596 1618 432 c 0,15,16
 1618 210 1618 210 1450.5 105 c 128,-1,17
 1283 0 1283 0 926 0 c 2,18,-1
 96 0 l 1,0,-1
672 870 m 1,19,-1
 803 870 l 2,20,21
 975 870 975 870 1058 932.5 c 128,-1,22
 1141 995 1141 995 1141 1124 c 0,23,24
 1141 1254 1141 1254 1060.5 1313 c 128,-1,25
 980 1372 980 1372 803 1372 c 2,26,-1
 672 1372 l 1,27,-1
 672 870 l 1,19,-1
672 121 m 1,28,-1
 815 121 l 2,29,30
 1006 121 1006 121 1098 197 c 128,-1,31
 1190 273 1190 273 1190 432 c 0,32,33
 1190 592 1190 592 1097 671 c 128,-1,34
 1004 750 1004 750 815 750 c 2,35,-1
 672 750 l 1,36,-1
 672 121 l 1,28,-1
EndSplineSet
KernsSLIFO: 7922 -36 0 0 562 -36 0 0 374 -36 0 0 558 38 0 0 492 38 0 0 490 38 0 0 336 38 0 0 334 38 0 0 332 38 0 0 290 38 0 0 288 38 0 0 284 38 0 0 266 38 0 0 264 38 0 0 268 38 0 0 262 38 0 0 286 38 0 0 221 -36 0 0 210 38 0 0 212 38 0 0 211 38 0 0 376 -36 0 0 338 38 0 0 213 38 0 0 216 38 0 0 214 38 0 0 199 38 0 0 89 -36 0 0 79 38 0 0 71 38 0 0 67 38 0 0 45 38 0 0
EndChar
StartChar: C
Encoding: 67 67 67
Width: 1630
Flags: W
Fore
1526 426 m 1,0,1
 1467 195 1467 195 1314 83 c 128,-1,2
 1161 -29 1161 -29 903 -29 c 0,3,4
 525 -29 525 -29 305.5 179.5 c 128,-1,5
 86 388 86 388 86 745 c 0,6,7
 86 1103 86 1103 305.5 1311.5 c 128,-1,8
 525 1520 525 1520 903 1520 c 0,9,10
 1036 1520 1036 1520 1180 1488 c 128,-1,11
 1324 1456 1324 1456 1485 1391 c 1,12,-1
 1485 1024 l 1,13,-1
 1358 1024 l 1,14,15
 1319 1212 1319 1212 1216 1305.5 c 128,-1,16
 1113 1399 1113 1399 944 1399 c 0,17,18
 726 1399 726 1399 620 1238.5 c 128,-1,19
 514 1078 514 1078 514 745 c 0,20,21
 514 412 514 412 620 252 c 128,-1,22
 726 92 726 92 946 92 c 0,23,24
 1095 92 1095 92 1189.5 175 c 128,-1,25
 1284 258 1284 258 1327 426 c 1,26,-1
 1526 426 l 1,0,1
EndSplineSet
KernsSLIFO: 46 -36 0 0 44 -36 0 0
EndChar
StartChar: D
Encoding: 68 68 68
Width: 1776
Flags: W
Fore
672 121 m 1,0,-1
 811 121 l 2,1,2
 1045 121 1045 121 1153.5 271 c 128,-1,3
 1262 421 1262 421 1262 748 c 0,4,5
 1262 1073 1262 1073 1154 1222.5 c 128,-1,6
 1046 1372 1046 1372 811 1372 c 2,7,-1
 672 1372 l 1,8,-1
 672 121 l 1,0,-1
96 0 m 1,9,-1
 96 121 l 1,10,-1
 287 121 l 1,11,-1
 287 1372 l 1,12,-1
 96 1372 l 1,13,-1
 96 1493 l 1,14,-1
 862 1493 l 2,15,16
 1264 1493 1264 1493 1477 1301 c 128,-1,17
 1690 1109 1690 1109 1690 748 c 0,18,19
 1690 385 1690 385 1476.5 192.5 c 128,-1,20
 1263 0 1263 0 862 0 c 2,21,-1
 96 0 l 1,9,-1
EndSplineSet
KernsSLIFO: 86 -36 0 0 46 -73 0 0 45 38 0 0 44 -73 0 0
EndChar
StartChar: E
Encoding: 69 69 69
Width: 1561
Flags: W
Fore
96 0 m 1,0,-1
 96 121 l 1,1,-1
 287 121 l 1,2,-1
 287 1372 l 1,3,-1
 96 1372 l 1,4,-1
 96 1493 l 1,5,-1
 1438 1493 l 1,6,-1
 1438 1141 l 1,7,-1
 1300 1141 l 1,8,-1
 1300 1356 l 1,9,-1
 672 1356 l 1,10,-1
 672 877 l 1,11,-1
 1063 877 l 1,12,-1
 1063 1067 l 1,13,-1
 1200 1067 l 1,14,-1
 1200 551 l 1,15,-1
 1063 551 l 1,16,-1
 1063 741 l 1,17,-1
 672 741 l 1,18,-1
 672 137 l 1,19,-1
 1319 137 l 1,20,-1
 1319 352 l 1,21,-1
 1456 352 l 1,22,-1
 1456 0 l 1,23,-1
 96 0 l 1,0,-1
EndSplineSet
KernsSLIFO: 45 38 0 0
EndChar
StartChar: F
Encoding: 70 70 70
Width: 1454
Flags: W
Fore
96 0 m 1,0,-1
 96 121 l 1,1,-1
 287 121 l 1,2,-1
 287 1372 l 1,3,-1
 96 1372 l 1,4,-1
 96 1493 l 1,5,-1
 1427 1493 l 1,6,-1
 1427 1141 l 1,7,-1
 1290 1141 l 1,8,-1
 1290 1356 l 1,9,-1
 674 1356 l 1,10,-1
 674 877 l 1,11,-1
 1053 877 l 1,12,-1
 1053 1067 l 1,13,-1
 1190 1067 l 1,14,-1
 1190 551 l 1,15,-1
 1053 551 l 1,16,-1
 1053 741 l 1,17,-1
 674 741 l 1,18,-1
 674 121 l 1,19,-1
 909 121 l 1,20,-1
 909 0 l 1,21,-1
 96 0 l 1,0,-1
EndSplineSet
KernsSLIFO: 483 -112 0 0 371 -36 0 0 369 -36 0 0 365 -36 0 0 363 -36 0 0 361 -36 0 0 343 -36 0 0 559 -112 0 0 493 -112 0 0 491 -112 0 0 337 -112 0 0 335 -112 0 0 333 -112 0 0 281 -112 0 0 279 -112 0 0 277 -112 0 0 275 -112 0 0 261 -112 0 0 260 -120 0 0 259 -112 0 0 258 -120 0 0 257 -112 0 0 256 -120 0 0 252 -36 0 0 229 -112 0 0 230 -112 0 0 59 -73 0 0 242 -112 0 0 45 -92 0 0 46 -206 0 0 367 -36 0 0 245 -112 0 0 235 -112 0 0 249 -36 0 0 44 -206 0 0 224 -112 0 0 195 -120 0 0 234 -112 0 0 341 -36 0 0 232 -112 0 0 196 -120 0 0 193 -120 0 0 251 -36 0 0 227 -112 0 0 194 -120 0 0 248 -112 0 0 244 -112 0 0 65 -120 0 0 97 -112 0 0 228 -112 0 0 246 -112 0 0 250 -36 0 0 225 -112 0 0 345 -36 0 0 226 -112 0 0 233 -112 0 0 283 -112 0 0 101 -112 0 0 339 -112 0 0 111 -112 0 0 114 -36 0 0 117 -36 0 0 192 -120 0 0 58 -73 0 0 243 -112 0 0
EndChar
StartChar: G
Encoding: 71 71 71
Width: 1749
Flags: W
Fore
1409 1024 m 1,0,1
 1364 1222 1364 1222 1259 1310.5 c 128,-1,2
 1154 1399 1154 1399 963 1399 c 0,3,4
 731 1399 731 1399 622.5 1241.5 c 128,-1,5
 514 1084 514 1084 514 745 c 0,6,7
 514 409 514 409 618 250.5 c 128,-1,8
 722 92 722 92 942 92 c 0,9,10
 1026 92 1026 92 1098 111 c 128,-1,11
 1170 130 1170 130 1229 168 c 1,12,-1
 1229 578 l 1,13,-1
 1049 578 l 1,14,-1
 1049 698 l 1,15,-1
 1587 698 l 1,16,-1
 1587 125 l 1,17,18
 1419 47 1419 47 1251.5 9 c 128,-1,19
 1084 -29 1084 -29 909 -29 c 0,20,21
 525 -29 525 -29 305.5 178 c 128,-1,22
 86 385 86 385 86 745 c 0,23,24
 86 1106 86 1106 305.5 1313 c 128,-1,25
 525 1520 525 1520 909 1520 c 0,26,27
 1069 1520 1069 1520 1224 1488 c 128,-1,28
 1379 1456 1379 1456 1536 1391 c 1,29,-1
 1536 1024 l 1,30,-1
 1409 1024 l 1,0,1
EndSplineSet
KernsSLIFO: 46 -73 0 0 45 38 0 0 44 -73 0 0
EndChar
StartChar: H
Encoding: 72 72 72
Width: 1935
Flags: W
Fore
96 0 m 1,0,-1
 96 121 l 1,1,-1
 287 121 l 1,2,-1
 287 1372 l 1,3,-1
 96 1372 l 1,4,-1
 96 1493 l 1,5,-1
 864 1493 l 1,6,-1
 864 1372 l 1,7,-1
 672 1372 l 1,8,-1
 672 870 l 1,9,-1
 1266 870 l 1,10,-1
 1266 1372 l 1,11,-1
 1075 1372 l 1,12,-1
 1075 1493 l 1,13,-1
 1843 1493 l 1,14,-1
 1843 1372 l 1,15,-1
 1651 1372 l 1,16,-1
 1651 121 l 1,17,-1
 1843 121 l 1,18,-1
 1843 0 l 1,19,-1
 1075 0 l 1,20,-1
 1075 121 l 1,21,-1
 1266 121 l 1,22,-1
 1266 733 l 1,23,-1
 672 733 l 1,24,-1
 672 121 l 1,25,-1
 864 121 l 1,26,-1
 864 0 l 1,27,-1
 96 0 l 1,0,-1
EndSplineSet
EndChar
StartChar: I
Encoding: 73 73 73
Width: 958
Flags: W
Fore
96 0 m 1,0,-1
 96 121 l 1,1,-1
 287 121 l 1,2,-1
 287 1372 l 1,3,-1
 96 1372 l 1,4,-1
 96 1493 l 1,5,-1
 864 1493 l 1,6,-1
 864 1372 l 1,7,-1
 672 1372 l 1,8,-1
 672 121 l 1,9,-1
 864 121 l 1,10,-1
 864 0 l 1,11,-1
 96 0 l 1,0,-1
EndSplineSet
EndChar
StartChar: J
Encoding: 74 74 74
Width: 969
Flags: W
Fore
-150 -358 m 1,0,-1
 -150 -123 l 1,1,-1
 -20 -123 l 1,2,3
 -14 -217 -14 -217 24.5 -261 c 128,-1,4
 63 -305 63 -305 139 -305 c 0,5,6
 236 -305 236 -305 274.5 -230.5 c 128,-1,7
 313 -156 313 -156 313 49 c 2,8,-1
 313 1372 l 1,9,-1
 96 1372 l 1,10,-1
 96 1493 l 1,11,-1
 891 1493 l 1,12,-1
 891 1372 l 1,13,-1
 700 1372 l 1,14,-1
 700 41 l 2,15,16
 700 -202 700 -202 577.5 -314 c 128,-1,17
 455 -426 455 -426 188 -426 c 0,18,19
 105 -426 105 -426 21 -409 c 128,-1,20
 -63 -392 -63 -392 -150 -358 c 1,0,-1
EndSplineSet
KernsSLIFO: 59 -83 0 0 58 -83 0 0 46 -159 0 0 44 -83 0 0
EndChar
StartChar: K
Encoding: 75 75 75
Width: 1780
Flags: W
Fore
96 0 m 1,0,-1
 96 121 l 1,1,-1
 287 121 l 1,2,-1
 287 1372 l 1,3,-1
 96 1372 l 1,4,-1
 96 1493 l 1,5,-1
 864 1493 l 1,6,-1
 864 1372 l 1,7,-1
 672 1372 l 1,8,-1
 672 827 l 1,9,-1
 1305 1372 l 1,10,-1
 1145 1372 l 1,11,-1
 1145 1493 l 1,12,-1
 1702 1493 l 1,13,-1
 1702 1372 l 1,14,-1
 1503 1372 l 1,15,-1
 967 911 l 1,16,-1
 1696 121 l 1,17,-1
 1843 121 l 1,18,-1
 1843 0 l 1,19,-1
 1337 0 l 1,20,-1
 672 725 l 1,21,-1
 672 121 l 1,22,-1
 864 121 l 1,23,-1
 864 0 l 1,24,-1
 96 0 l 1,0,-1
EndSplineSet
KernsSLIFO: 367 -45 0 0 366 -73 0 0 283 -45 0 0 268 -55 0 0 262 -55 0 0 253 -92 0 0 221 -55 0 0 217 -73 0 0 219 -73 0 0 218 -73 0 0 210 -55 0 0 212 -55 0 0 211 -55 0 0 193 -83 0 0 194 -83 0 0 376 -55 0 0 255 -92 0 0 339 -45 0 0 338 -55 0 0 213 -55 0 0 195 -83 0 0 192 -83 0 0 248 -36 0 0 216 -55 0 0 252 -45 0 0 251 -45 0 0 249 -45 0 0 250 -45 0 0 245 -45 0 0 246 -45 0 0 244 -45 0 0 242 -45 0 0 243 -45 0 0 235 -45 0 0 234 -45 0 0 232 -45 0 0 233 -45 0 0 220 -73 0 0 214 -55 0 0 199 -55 0 0 196 -83 0 0 121 -92 0 0 117 -45 0 0 111 -45 0 0 101 -45 0 0 89 -55 0 0 87 -73 0 0 85 -73 0 0 79 -55 0 0 67 -55 0 0 65 -83 0 0 45 -149 0 0
EndChar
StartChar: L
Encoding: 76 76 76
Width: 1440
Flags: W
Fore
96 0 m 1,0,-1
 96 121 l 1,1,-1
 287 121 l 1,2,-1
 287 1372 l 1,3,-1
 96 1372 l 1,4,-1
 96 1493 l 1,5,-1
 864 1493 l 1,6,-1
 864 1372 l 1,7,-1
 672 1372 l 1,8,-1
 672 137 l 1,9,-1
 1260 137 l 1,10,-1
 1260 373 l 1,11,-1
 1395 373 l 1,12,-1
 1395 0 l 1,13,-1
 96 0 l 1,0,-1
EndSplineSet
KernsSLIFO: 366 -112 0 0 356 -167 0 0 253 -73 0 0 221 -131 0 0 217 -112 0 0 219 -112 0 0 218 -112 0 0 376 -131 0 0 255 -73 0 0 8217 -491 0 0 8216 -491 0 0 8221 -491 0 0 8220 -491 0 0 220 -112 0 0 121 -73 0 0 89 -131 0 0 87 -139 0 0 86 -243 0 0 85 -112 0 0 84 -167 0 0
EndChar
StartChar: M
Encoding: 77 77 77
Width: 2267
Flags: W
Fore
86 0 m 1,0,-1
 86 121 l 1,1,-1
 276 121 l 1,2,-1
 276 1372 l 1,3,-1
 86 1372 l 1,4,-1
 86 1493 l 1,5,-1
 702 1493 l 1,6,-1
 1128 535 l 1,7,-1
 1556 1493 l 1,8,-1
 2171 1493 l 1,9,-1
 2171 1372 l 1,10,-1
 1980 1372 l 1,11,-1
 1980 121 l 1,12,-1
 2171 121 l 1,13,-1
 2171 0 l 1,14,-1
 1403 0 l 1,15,-1
 1403 121 l 1,16,-1
 1593 121 l 1,17,-1
 1593 1260 l 1,18,-1
 1130 219 l 1,19,-1
 877 219 l 1,20,-1
 416 1260 l 1,21,-1
 416 121 l 1,22,-1
 606 121 l 1,23,-1
 606 0 l 1,24,-1
 86 0 l 1,0,-1
EndSplineSet
EndChar
StartChar: N
Encoding: 78 78 78
Width: 1872
Flags: W
Fore
90 0 m 1,0,-1
 90 121 l 1,1,-1
 281 121 l 1,2,-1
 281 1372 l 1,3,-1
 90 1372 l 1,4,-1
 90 1493 l 1,5,-1
 557 1493 l 1,6,-1
 1458 436 l 1,7,-1
 1458 1372 l 1,8,-1
 1268 1372 l 1,9,-1
 1268 1493 l 1,10,-1
 1790 1493 l 1,11,-1
 1790 1372 l 1,12,-1
 1599 1372 l 1,13,-1
 1599 0 l 1,14,-1
 1337 0 l 1,15,-1
 422 1079 l 1,16,-1
 422 121 l 1,17,-1
 612 121 l 1,18,-1
 612 0 l 1,19,-1
 90 0 l 1,0,-1
EndSplineSet
KernsSLIFO: 59 -73 0 0 58 -73 0 0 46 -131 0 0 44 -131 0 0
EndChar
StartChar: O
Encoding: 79 79 79
Width: 1784
Flags: W
Fore
891 92 m 0,0,1
 1082 92 1082 92 1175 253 c 128,-1,2
 1268 414 1268 414 1268 745 c 0,3,4
 1268 1077 1268 1077 1175 1238 c 128,-1,5
 1082 1399 1082 1399 891 1399 c 0,6,7
 701 1399 701 1399 607.5 1236.5 c 128,-1,8
 514 1074 514 1074 514 745 c 0,9,10
 514 417 514 417 607.5 254.5 c 128,-1,11
 701 92 701 92 891 92 c 0,0,1
891 -29 m 0,12,13
 514 -29 514 -29 300 177 c 128,-1,14
 86 383 86 383 86 745 c 0,15,16
 86 1107 86 1107 300.5 1313.5 c 128,-1,17
 515 1520 515 1520 891 1520 c 0,18,19
 1268 1520 1268 1520 1482 1314 c 128,-1,20
 1696 1108 1696 1108 1696 745 c 0,21,22
 1696 383 1696 383 1481.5 177 c 128,-1,23
 1267 -29 1267 -29 891 -29 c 0,12,13
EndSplineSet
KernsSLIFO: 88 -36 0 0 86 -36 0 0 46 -120 0 0 45 75 0 0 44 -120 0 0
EndChar
StartChar: P
Encoding: 80 80 80
Width: 1540
Flags: W
Fore
96 0 m 1,0,-1
 96 121 l 1,1,-1
 287 121 l 1,2,-1
 287 1372 l 1,3,-1
 96 1372 l 1,4,-1
 96 1493 l 1,5,-1
 946 1493 l 2,6,7
 1195 1493 1195 1493 1342 1374.5 c 128,-1,8
 1489 1256 1489 1256 1489 1057 c 0,9,10
 1489 857 1489 857 1341.5 737.5 c 128,-1,11
 1194 618 1194 618 946 618 c 2,12,-1
 672 618 l 1,13,-1
 672 121 l 1,14,-1
 913 121 l 1,15,-1
 913 0 l 1,16,-1
 96 0 l 1,0,-1
672 739 m 1,17,-1
 784 739 l 2,18,19
 914 739 914 739 991.5 825.5 c 128,-1,20
 1069 912 1069 912 1069 1057 c 0,21,22
 1069 1201 1069 1201 992 1286.5 c 128,-1,23
 915 1372 915 1372 784 1372 c 2,24,-1
 672 1372 l 1,25,-1
 672 739 l 1,17,-1
EndSplineSet
KernsSLIFO: 283 -55 0 0 193 -149 0 0 194 -149 0 0 8222 -264 0 0 8218 -264 0 0 339 -55 0 0 195 -149 0 0 192 -149 0 0 248 -55 0 0 230 -55 0 0 245 -55 0 0 246 -55 0 0 244 -55 0 0 242 -55 0 0 243 -55 0 0 235 -55 0 0 234 -55 0 0 232 -55 0 0 233 -55 0 0 229 -55 0 0 227 -55 0 0 228 -55 0 0 226 -55 0 0 224 -55 0 0 225 -55 0 0 196 -149 0 0 111 -55 0 0 101 -55 0 0 97 -55 0 0 65 -149 0 0 59 -73 0 0 58 -73 0 0 46 -339 0 0 45 -112 0 0 44 -264 0 0
EndChar
StartChar: Q
Encoding: 81 81 81
Width: 1784
Flags: W
Fore
885 -29 m 1,0,1
 507 -23 507 -23 296.5 181 c 128,-1,2
 86 385 86 385 86 745 c 0,3,4
 86 1107 86 1107 300.5 1313.5 c 128,-1,5
 515 1520 515 1520 891 1520 c 0,6,7
 1268 1520 1268 1520 1482 1314 c 128,-1,8
 1696 1108 1696 1108 1696 745 c 0,9,10
 1696 427 1696 427 1531.5 229 c 128,-1,11
 1367 31 1367 31 1063 -16 c 1,12,13
 1116 -73 1116 -73 1192 -98 c 128,-1,14
 1268 -123 1268 -123 1389 -123 c 2,15,-1
 1440 -123 l 1,16,-1
 1440 -369 l 1,17,-1
 1411 -369 l 2,18,19
 1221 -369 1221 -369 1094 -287 c 128,-1,20
 967 -205 967 -205 885 -29 c 1,0,1
891 92 m 0,21,22
 1082 92 1082 92 1175 253 c 128,-1,23
 1268 414 1268 414 1268 745 c 0,24,25
 1268 1077 1268 1077 1175 1238 c 128,-1,26
 1082 1399 1082 1399 891 1399 c 0,27,28
 701 1399 701 1399 607.5 1236.5 c 128,-1,29
 514 1074 514 1074 514 745 c 0,30,31
 514 417 514 417 607.5 254.5 c 128,-1,32
 701 92 701 92 891 92 c 0,21,22
EndSplineSet
KernsSLIFO: 46 -102 0 0 45 75 0 0 44 -102 0 0
EndChar
StartChar: R
Encoding: 82 82 82
Width: 1702
Flags: W
Fore
1087 729 m 1,0,1
 1176 716 1176 716 1237 670 c 128,-1,2
 1298 624 1298 624 1343 537 c 2,3,-1
 1561 121 l 1,4,-1
 1714 121 l 1,5,-1
 1714 0 l 1,6,-1
 1223 0 l 1,7,-1
 985 451 l 1,8,9
 916 591 916 591 867.5 629.5 c 128,-1,10
 819 668 819 668 733 668 c 2,11,-1
 672 668 l 1,12,-1
 672 121 l 1,13,-1
 864 121 l 1,14,-1
 864 0 l 1,15,-1
 96 0 l 1,16,-1
 96 121 l 1,17,-1
 287 121 l 1,18,-1
 287 1372 l 1,19,-1
 96 1372 l 1,20,-1
 96 1493 l 1,21,-1
 948 1493 l 2,22,23
 1208 1493 1208 1493 1349.5 1388.5 c 128,-1,24
 1491 1284 1491 1284 1491 1092 c 0,25,26
 1491 936 1491 936 1390.5 845.5 c 128,-1,27
 1290 755 1290 755 1087 729 c 1,0,1
672 788 m 1,28,-1
 803 788 l 2,29,30
 943 788 943 788 1018.5 864 c 128,-1,31
 1094 940 1094 940 1094 1081 c 0,32,33
 1094 1222 1094 1222 1018.5 1297 c 128,-1,34
 943 1372 943 1372 803 1372 c 2,35,-1
 672 1372 l 1,36,-1
 672 788 l 1,28,-1
EndSplineSet
KernsSLIFO: 356 -36 0 0 253 -36 0 0 221 -63 0 0 376 -63 0 0 255 -36 0 0 8217 -73 0 0 8221 -73 0 0 248 38 0 0 230 47 0 0 229 47 0 0 227 47 0 0 228 47 0 0 226 47 0 0 224 47 0 0 225 47 0 0 121 -36 0 0 97 47 0 0 89 -63 0 0 87 -45 0 0 86 -73 0 0 84 -36 0 0
EndChar
StartChar: S
Encoding: 83 83 83
Width: 1479
Flags: W
Fore
158 72 m 1,0,-1
 158 426 l 1,1,-1
 285 426 l 1,2,3
 314 258 314 258 422 175 c 128,-1,4
 530 92 530 92 721 92 c 0,5,6
 876 92 876 92 957 151 c 128,-1,7
 1038 210 1038 210 1038 324 c 0,8,9
 1038 414 1038 414 983 464 c 128,-1,10
 928 514 928 514 756 557 c 2,11,-1
 532 612 l 1,12,13
 313 668 313 668 224 767.5 c 128,-1,14
 135 867 135 867 135 1051 c 0,15,16
 135 1273 135 1273 282.5 1396.5 c 128,-1,17
 430 1520 430 1520 696 1520 c 0,18,19
 827 1520 827 1520 968.5 1498 c 128,-1,20
 1110 1476 1110 1476 1262 1432 c 1,21,-1
 1262 1102 l 1,22,-1
 1135 1102 l 1,23,24
 1106 1256 1106 1256 1008 1327.5 c 128,-1,25
 910 1399 910 1399 729 1399 c 0,26,27
 581 1399 581 1399 505.5 1347.5 c 128,-1,28
 430 1296 430 1296 430 1194 c 0,29,30
 430 1101 430 1101 482 1052.5 c 128,-1,31
 534 1004 534 1004 737 952 c 1,32,-1
 961 897 l 2,33,34
 1169 845 1169 845 1262.5 735 c 128,-1,35
 1356 625 1356 625 1356 432 c 0,36,37
 1356 206 1356 206 1200 88.5 c 128,-1,38
 1044 -29 1044 -29 741 -29 c 0,39,40
 595 -29 595 -29 451 -4 c 128,-1,41
 307 21 307 21 158 72 c 1,0,-1
EndSplineSet
KernsSLIFO: 350 -45 0 0 352 -45 0 0 83 -45 0 0 46 -73 0 0 45 75 0 0 44 -73 0 0
EndChar
StartChar: T
Encoding: 84 84 84
Width: 1524
Flags: W
Fore
371 0 m 1,0,-1
 371 121 l 1,1,-1
 569 121 l 1,2,-1
 569 1356 l 1,3,-1
 160 1356 l 1,4,-1
 160 1120 l 1,5,-1
 23 1120 l 1,6,-1
 23 1493 l 1,7,-1
 1503 1493 l 1,8,-1
 1503 1120 l 1,9,-1
 1368 1120 l 1,10,-1
 1368 1356 l 1,11,-1
 956 1356 l 1,12,-1
 956 121 l 1,13,-1
 1155 121 l 1,14,-1
 1155 0 l 1,15,-1
 371 0 l 1,0,-1
EndSplineSet
KernsSLIFO: 252 -188 0 0 229 -196 0 0 230 -159 0 0 59 -73 0 0 242 -235 0 0 255 -225 0 0 45 -339 0 0 8222 -149 0 0 367 -188 0 0 245 -235 0 0 235 -235 0 0 249 -188 0 0 44 -225 0 0 224 -196 0 0 195 -112 0 0 234 -235 0 0 231 -235 0 0 341 -149 0 0 232 -235 0 0 196 -112 0 0 193 -112 0 0 269 -235 0 0 345 -149 0 0 233 -235 0 0 251 -188 0 0 253 -225 0 0 8218 -149 0 0 227 -196 0 0 194 -112 0 0 248 -159 0 0 244 -235 0 0 353 -188 0 0 65 -112 0 0 283 -235 0 0 187 -149 0 0 351 -188 0 0 228 -196 0 0 119 -225 0 0 246 -235 0 0 250 -188 0 0 8250 -149 0 0 263 -235 0 0 225 -196 0 0 46 -264 0 0 84 -73 0 0 226 -196 0 0 101 -235 0 0 356 -73 0 0 97 -196 0 0 99 -235 0 0 171 -149 0 0 339 -159 0 0 8249 -149 0 0 111 -235 0 0 115 -188 0 0 114 -149 0 0 117 -188 0 0 192 -112 0 0 121 -225 0 0 58 -73 0 0 243 -235 0 0
EndChar
StartChar: U
Encoding: 85 85 85
Width: 1786
Flags: W
Fore
260 1372 m 1,0,-1
 70 1372 l 1,1,-1
 70 1493 l 1,2,-1
 838 1493 l 1,3,-1
 838 1372 l 1,4,-1
 647 1372 l 1,5,-1
 647 625 l 2,6,7
 647 346 647 346 734 234.5 c 128,-1,8
 821 123 821 123 1032 123 c 0,9,10
 1238 123 1238 123 1324.5 235.5 c 128,-1,11
 1411 348 1411 348 1411 625 c 2,12,-1
 1411 1372 l 1,13,-1
 1221 1372 l 1,14,-1
 1221 1493 l 1,15,-1
 1741 1493 l 1,16,-1
 1741 1372 l 1,17,-1
 1550 1372 l 1,18,-1
 1550 604 l 2,19,20
 1550 262 1550 262 1402 116.5 c 128,-1,21
 1254 -29 1254 -29 905 -29 c 0,22,23
 558 -29 558 -29 409 118 c 128,-1,24
 260 265 260 265 260 606 c 2,25,-1
 260 1372 l 1,0,-1
EndSplineSet
KernsSLIFO: 193 -63 0 0 194 -63 0 0 195 -63 0 0 192 -63 0 0 196 -63 0 0 65 -63 0 0 59 -73 0 0 58 -73 0 0 46 -188 0 0 45 -36 0 0 44 -188 0 0
EndChar
StartChar: V
Encoding: 86 86 86
Width: 1589
Flags: W
Fore
1618 1493 m 1,0,-1
 1618 1372 l 1,1,-1
 1493 1372 l 1,2,-1
 930 0 l 1,3,-1
 692 0 l 1,4,-1
 129 1372 l 1,5,-1
 -12 1372 l 1,6,-1
 -12 1493 l 1,7,-1
 688 1493 l 1,8,-1
 688 1372 l 1,9,-1
 543 1372 l 1,10,-1
 946 383 l 1,11,-1
 1352 1372 l 1,12,-1
 1174 1372 l 1,13,-1
 1174 1493 l 1,14,-1
 1618 1493 l 1,0,-1
EndSplineSet
KernsSLIFO: 367 -131 0 0 283 -188 0 0 253 -83 0 0 210 -36 0 0 212 -36 0 0 211 -36 0 0 193 -159 0 0 194 -159 0 0 8222 -264 0 0 8218 -264 0 0 255 -83 0 0 8217 38 0 0 8221 38 0 0 339 -188 0 0 338 -36 0 0 213 -36 0 0 195 -159 0 0 192 -159 0 0 248 -188 0 0 230 -188 0 0 216 -36 0 0 252 -131 0 0 251 -131 0 0 249 -131 0 0 250 -131 0 0 245 -188 0 0 246 -188 0 0 244 -188 0 0 242 -188 0 0 243 -188 0 0 235 -188 0 0 234 -188 0 0 232 -188 0 0 233 -188 0 0 229 -188 0 0 227 -188 0 0 228 -188 0 0 226 -188 0 0 224 -188 0 0 225 -188 0 0 214 -36 0 0 196 -159 0 0 121 -83 0 0 117 -131 0 0 111 -188 0 0 105 -36 0 0 101 -188 0 0 97 -188 0 0 79 -36 0 0 65 -159 0 0 59 -206 0 0 58 -206 0 0 46 -358 0 0 45 -149 0 0 44 -358 0 0
EndChar
StartChar: W
Encoding: 87 87 87
Width: 2300
Flags: W
Fore
1745 0 m 1,0,-1
 1487 0 l 1,1,-1
 1149 1087 l 1,2,-1
 811 0 l 1,3,-1
 553 0 l 1,4,-1
 127 1372 l 1,5,-1
 -18 1372 l 1,6,-1
 -18 1493 l 1,7,-1
 690 1493 l 1,8,-1
 690 1372 l 1,9,-1
 530 1372 l 1,10,-1
 815 455 l 1,11,-1
 1137 1493 l 1,12,-1
 1421 1493 l 1,13,-1
 1749 438 l 1,14,-1
 2040 1372 l 1,15,-1
 1862 1372 l 1,16,-1
 1862 1493 l 1,17,-1
 2324 1493 l 1,18,-1
 2324 1372 l 1,19,-1
 2171 1372 l 1,20,-1
 1745 0 l 1,0,-1
EndSplineSet
KernsSLIFO: 252 -83 0 0 229 -178 0 0 230 -139 0 0 59 -139 0 0 242 -167 0 0 45 -112 0 0 8222 -225 0 0 367 -83 0 0 245 -167 0 0 235 -167 0 0 249 -83 0 0 44 -319 0 0 224 -178 0 0 195 -131 0 0 234 -167 0 0 341 -92 0 0 8221 38 0 0 232 -167 0 0 196 -131 0 0 193 -131 0 0 8217 38 0 0 251 -83 0 0 253 -45 0 0 8218 -225 0 0 227 -178 0 0 194 -131 0 0 248 -167 0 0 244 -167 0 0 65 -131 0 0 97 -178 0 0 228 -178 0 0 246 -167 0 0 250 -83 0 0 225 -178 0 0 345 -92 0 0 46 -319 0 0 226 -178 0 0 233 -167 0 0 283 -167 0 0 101 -167 0 0 105 -36 0 0 339 -167 0 0 255 -45 0 0 111 -167 0 0 114 -92 0 0 117 -83 0 0 192 -131 0 0 121 -45 0 0 58 -139 0 0 243 -167 0 0
EndChar
StartChar: X
Encoding: 88 88 88
Width: 1589
Flags: W
Fore
694 575 m 1,0,-1
 383 121 l 1,1,-1
 567 121 l 1,2,-1
 567 0 l 1,3,-1
 37 0 l 1,4,-1
 37 121 l 1,5,-1
 221 121 l 1,6,-1
 614 692 l 1,7,-1
 147 1372 l 1,8,-1
 10 1372 l 1,9,-1
 10 1493 l 1,10,-1
 752 1493 l 1,11,-1
 752 1372 l 1,12,-1
 588 1372 l 1,13,-1
 877 952 l 1,14,-1
 1163 1372 l 1,15,-1
 989 1372 l 1,16,-1
 989 1493 l 1,17,-1
 1509 1493 l 1,18,-1
 1509 1372 l 1,19,-1
 1325 1372 l 1,20,-1
 956 836 l 1,21,-1
 1446 121 l 1,22,-1
 1587 121 l 1,23,-1
 1587 0 l 1,24,-1
 842 0 l 1,25,-1
 842 121 l 1,26,-1
 1008 121 l 1,27,-1
 694 575 l 1,0,-1
EndSplineSet
KernsSLIFO: 268 -36 0 0 262 -36 0 0 210 -36 0 0 212 -36 0 0 211 -36 0 0 193 -73 0 0 194 -73 0 0 338 -36 0 0 213 -36 0 0 195 -73 0 0 192 -73 0 0 216 -36 0 0 214 -36 0 0 199 -36 0 0 196 -73 0 0 79 -36 0 0 67 -36 0 0 65 -73 0 0 45 -73 0 0
EndChar
StartChar: Y
Encoding: 89 89 89
Width: 1462
Flags: W
Fore
352 0 m 1,0,-1
 352 121 l 1,1,-1
 553 121 l 1,2,-1
 553 618 l 1,3,-1
 109 1372 l 1,4,-1
 -18 1372 l 1,5,-1
 -18 1493 l 1,6,-1
 698 1493 l 1,7,-1
 698 1372 l 1,8,-1
 532 1372 l 1,9,-1
 868 803 l 1,10,-1
 1202 1372 l 1,11,-1
 1053 1372 l 1,12,-1
 1053 1493 l 1,13,-1
 1481 1493 l 1,14,-1
 1481 1372 l 1,15,-1
 1354 1372 l 1,16,-1
 940 670 l 1,17,-1
 940 121 l 1,18,-1
 1141 121 l 1,19,-1
 1141 0 l 1,20,-1
 352 0 l 1,0,-1
EndSplineSet
KernsSLIFO: 367 -178 0 0 283 -178 0 0 268 -36 0 0 262 -36 0 0 193 -131 0 0 194 -131 0 0 339 -178 0 0 195 -131 0 0 192 -131 0 0 248 -178 0 0 230 -159 0 0 252 -178 0 0 251 -178 0 0 249 -178 0 0 250 -178 0 0 245 -178 0 0 246 -178 0 0 244 -178 0 0 242 -178 0 0 243 -178 0 0 235 -178 0 0 234 -178 0 0 232 -178 0 0 233 -178 0 0 229 -159 0 0 227 -159 0 0 228 -159 0 0 226 -159 0 0 224 -159 0 0 225 -159 0 0 199 -36 0 0 196 -131 0 0 117 -178 0 0 111 -178 0 0 105 -36 0 0 101 -178 0 0 97 -159 0 0 67 -36 0 0 65 -131 0 0 59 -253 0 0 58 -253 0 0 46 -264 0 0 45 -206 0 0 44 -264 0 0
EndChar
StartChar: Z
Encoding: 90 90 90
Width: 1495
Flags: W
Fore
76 0 m 1,0,-1
 76 141 l 1,1,-1
 967 1356 l 1,2,-1
 252 1356 l 1,3,-1
 252 1133 l 1,4,-1
 115 1133 l 1,5,-1
 115 1493 l 1,6,-1
 1411 1493 l 1,7,-1
 1411 1352 l 1,8,-1
 530 137 l 1,9,-1
 1284 137 l 1,10,-1
 1284 346 l 1,11,-1
 1421 346 l 1,12,-1
 1421 0 l 1,13,-1
 76 0 l 1,0,-1
EndSplineSet
KernsSLIFO: 46 -36 0 0 44 -36 0 0
EndChar
StartChar: bracketleft
Encoding: 91 91 91
Width: 969
Flags: W
Fore
256 1556 m 1,0,-1
 823 1556 l 1,1,-1
 823 1436 l 1,2,-1
 610 1436 l 1,3,-1
 610 -150 l 1,4,-1
 823 -150 l 1,5,-1
 823 -270 l 1,6,-1
 256 -270 l 1,7,-1
 256 1556 l 1,0,-1
EndSplineSet
EndChar
StartChar: backslash
Encoding: 92 92 92
Width: 748
Flags: W
Fore
221 1493 m 1,0,-1
 748 -190 l 1,1,-1
 526 -190 l 1,2,-1
 0 1493 l 1,3,-1
 221 1493 l 1,0,-1
EndSplineSet
EndChar
StartChar: bracketright
Encoding: 93 93 93
Width: 969
Flags: W
Fore
713 1556 m 1,0,-1
 713 -270 l 1,1,-1
 145 -270 l 1,2,-1
 145 -150 l 1,3,-1
 358 -150 l 1,4,-1
 358 1436 l 1,5,-1
 145 1436 l 1,6,-1
 145 1556 l 1,7,-1
 713 1556 l 1,0,-1
EndSplineSet
EndChar
StartChar: asciicircum
Encoding: 94 94 94
Width: 1716
Flags: W
Fore
973 1493 m 1,0,-1
 1509 936 l 1,1,-1
 1296 936 l 1,2,-1
 858 1251 l 1,3,-1
 420 936 l 1,4,-1
 207 936 l 1,5,-1
 750 1493 l 1,6,-1
 973 1493 l 1,0,-1
EndSplineSet
EndChar
StartChar: underscore
Encoding: 95 95 95
Width: 1024
Flags: W
Fore
1024 -293 m 1,0,-1
 1024 -483 l 1,1,-1
 0 -483 l 1,2,-1
 0 -293 l 1,3,-1
 1024 -293 l 1,0,-1
EndSplineSet
EndChar
StartChar: grave
Encoding: 96 96 96
Width: 1024
Flags: W
Fore
420 1638 m 1,0,-1
 678 1262 l 1,1,-1
 514 1262 l 1,2,-1
 141 1638 l 1,3,-1
 420 1638 l 1,0,-1
EndSplineSet
EndChar
StartChar: a
Encoding: 97 97 97
Width: 1327
Flags: W
Fore
1128 653 m 2,0,-1
 1128 121 l 1,1,-1
 1280 121 l 1,2,-1
 1280 0 l 1,3,-1
 774 0 l 1,4,-1
 774 135 l 1,5,6
 704 51 704 51 618 11 c 128,-1,7
 532 -29 532 -29 422 -29 c 0,8,9
 259 -29 259 -29 171.5 58.5 c 128,-1,10
 84 146 84 146 84 309 c 0,11,12
 84 488 84 488 209.5 577 c 128,-1,13
 335 666 335 666 588 666 c 2,14,-1
 774 666 l 1,15,-1
 774 729 l 2,16,17
 774 858 774 858 713 919.5 c 128,-1,18
 652 981 652 981 524 981 c 0,19,20
 418 981 418 981 360.5 937.5 c 128,-1,21
 303 894 303 894 279 795 c 1,22,-1
 166 795 l 1,23,-1
 166 1024 l 1,24,25
 261 1058 261 1058 363 1075 c 128,-1,26
 465 1092 465 1092 578 1092 c 0,27,28
 863 1092 863 1092 995.5 986 c 128,-1,29
 1128 880 1128 880 1128 653 c 2,0,-1
774 334 m 2,30,-1
 774 547 l 1,31,-1
 641 547 l 2,32,33
 542 547 542 547 489 493 c 128,-1,34
 436 439 436 439 436 338 c 0,35,36
 436 237 436 237 474.5 187 c 128,-1,37
 513 137 513 137 592 137 c 0,38,39
 674 137 674 137 724 191 c 128,-1,40
 774 245 774 245 774 334 c 2,30,-1
EndSplineSet
EndChar
StartChar: b
Encoding: 98 98 98
Width: 1432
Flags: W
Fore
199 121 m 1,0,-1
 199 1436 l 1,1,-1
 47 1436 l 1,2,-1
 47 1556 l 1,3,-1
 553 1556 l 1,4,-1
 553 928 l 1,5,6
 598 1011 598 1011 674 1051.5 c 128,-1,7
 750 1092 750 1092 862 1092 c 0,8,9
 1089 1092 1089 1092 1219.5 942.5 c 128,-1,10
 1350 793 1350 793 1350 532 c 0,11,12
 1350 271 1350 271 1219.5 121 c 128,-1,13
 1089 -29 1089 -29 862 -29 c 0,14,15
 750 -29 750 -29 674 11.5 c 128,-1,16
 598 52 598 52 553 135 c 1,17,-1
 553 0 l 1,18,-1
 47 0 l 1,19,-1
 47 121 l 1,20,-1
 199 121 l 1,0,-1
553 479 m 2,21,22
 553 293 553 293 600.5 210 c 128,-1,23
 648 127 648 127 754 127 c 0,24,25
 863 127 863 127 907.5 215 c 128,-1,26
 952 303 952 303 952 532 c 0,27,28
 952 761 952 761 907.5 848.5 c 128,-1,29
 863 936 863 936 754 936 c 0,30,31
 648 936 648 936 600.5 853 c 128,-1,32
 553 770 553 770 553 584 c 2,33,-1
 553 479 l 2,21,22
EndSplineSet
EndChar
StartChar: c
Encoding: 99 99 99
Width: 1247
Flags: W
Fore
1155 332 m 1,0,1
 1117 150 1117 150 999.5 60.5 c 128,-1,2
 882 -29 882 -29 680 -29 c 0,3,4
 396 -29 396 -29 240 118 c 128,-1,5
 84 265 84 265 84 532 c 0,6,7
 84 796 84 796 238 944 c 128,-1,8
 392 1092 392 1092 666 1092 c 0,9,10
 777 1092 777 1092 890 1071 c 128,-1,11
 1003 1050 1003 1050 1120 1008 c 1,12,-1
 1120 713 l 1,13,-1
 1008 713 l 1,14,15
 992 848 992 848 929 913.5 c 128,-1,16
 866 979 866 979 752 979 c 0,17,18
 604 979 604 979 541.5 879 c 128,-1,19
 479 779 479 779 479 532 c 0,20,21
 479 291 479 291 540 187.5 c 128,-1,22
 601 84 601 84 739 84 c 0,23,24
 846 84 846 84 910.5 148 c 128,-1,25
 975 212 975 212 989 332 c 1,26,-1
 1155 332 l 1,0,1
EndSplineSet
EndChar
StartChar: d
Encoding: 100 100 100
Width: 1432
Flags: W
Fore
879 479 m 2,0,-1
 879 584 l 2,1,2
 879 770 879 770 831 853 c 128,-1,3
 783 936 783 936 678 936 c 0,4,5
 568 936 568 936 523.5 848.5 c 128,-1,6
 479 761 479 761 479 532 c 0,7,8
 479 303 479 303 524 215 c 128,-1,9
 569 127 569 127 678 127 c 0,10,11
 783 127 783 127 831 210 c 128,-1,12
 879 293 879 293 879 479 c 2,0,-1
1233 121 m 1,13,-1
 1384 121 l 1,14,-1
 1384 0 l 1,15,-1
 879 0 l 1,16,-1
 879 135 l 1,17,18
 834 52 834 52 757.5 11.5 c 128,-1,19
 681 -29 681 -29 569 -29 c 0,20,21
 343 -29 343 -29 213.5 121 c 128,-1,22
 84 271 84 271 84 532 c 0,23,24
 84 794 84 794 213.5 943 c 128,-1,25
 343 1092 343 1092 569 1092 c 0,26,27
 681 1092 681 1092 757.5 1051.5 c 128,-1,28
 834 1011 834 1011 879 928 c 1,29,-1
 879 1436 l 1,30,-1
 727 1436 l 1,31,-1
 727 1556 l 1,32,-1
 1233 1556 l 1,33,-1
 1233 121 l 1,13,-1
EndSplineSet
EndChar
StartChar: e
Encoding: 101 101 101
Width: 1303
Flags: W
Fore
821 600 m 1,0,1
 821 810 821 810 782 894.5 c 128,-1,2
 743 979 743 979 649 979 c 0,3,4
 558 979 558 979 518.5 896 c 128,-1,5
 479 813 479 813 479 618 c 2,6,-1
 479 600 l 1,7,-1
 821 600 l 1,0,1
1210 481 m 1,8,-1
 479 481 l 1,9,-1
 479 473 l 2,10,11
 479 267 479 267 541 175.5 c 128,-1,12
 603 84 603 84 741 84 c 0,13,14
 856 84 856 84 927 145 c 128,-1,15
 998 206 998 206 1018 322 c 1,16,-1
 1184 322 l 1,17,18
 1141 141 1141 141 1013 56 c 128,-1,19
 885 -29 885 -29 655 -29 c 0,20,21
 379 -29 379 -29 231.5 116.5 c 128,-1,22
 84 262 84 262 84 532 c 0,23,24
 84 796 84 796 235 944 c 128,-1,25
 386 1092 386 1092 655 1092 c 0,26,27
 919 1092 919 1092 1060 936.5 c 128,-1,28
 1201 781 1201 781 1210 481 c 1,8,-1
EndSplineSet
EndChar
StartChar: f
Encoding: 102 102 102
Width: 881
Flags: W
Fore
991 1290 m 1,0,-1
 879 1290 l 1,1,2
 871 1368 871 1368 833.5 1406 c 128,-1,3
 796 1444 796 1444 727 1444 c 0,4,5
 647 1444 647 1444 611 1386.5 c 128,-1,6
 575 1329 575 1329 575 1200 c 2,7,-1
 575 1063 l 1,8,-1
 842 1063 l 1,9,-1
 842 942 l 1,10,-1
 575 942 l 1,11,-1
 575 121 l 1,12,-1
 780 121 l 1,13,-1
 780 0 l 1,14,-1
 70 0 l 1,15,-1
 70 121 l 1,16,-1
 221 121 l 1,17,-1
 221 942 l 1,18,-1
 63 942 l 1,19,-1
 63 1063 l 1,20,-1
 221 1063 l 1,21,-1
 221 1196 l 2,22,23
 221 1373 221 1373 334 1464.5 c 128,-1,24
 447 1556 447 1556 666 1556 c 0,25,26
 751 1556 751 1556 832 1546.5 c 128,-1,27
 913 1537 913 1537 991 1518 c 1,28,-1
 991 1290 l 1,0,-1
EndSplineSet
KernsSLIFO: 8217 151 0 0 8221 151 0 0 8220 65 0 0 46 -73 0 0 45 -73 0 0 44 -45 0 0
EndChar
StartChar: g
Encoding: 103 103 103
Width: 1432
Flags: W
Fore
1233 942 m 1,0,-1
 1233 14 l 2,1,2
 1233 -210 1233 -210 1073.5 -332.5 c 128,-1,3
 914 -455 914 -455 623 -455 c 0,4,5
 517 -455 517 -455 408 -438.5 c 128,-1,6
 299 -422 299 -422 184 -389 c 1,7,-1
 184 -135 l 1,8,-1
 297 -135 l 1,9,10
 312 -240 312 -240 381.5 -291 c 128,-1,11
 451 -342 451 -342 580 -342 c 0,12,13
 744 -342 744 -342 811.5 -263.5 c 128,-1,14
 879 -185 879 -185 879 14 c 2,15,-1
 879 135 l 1,16,17
 834 52 834 52 757.5 11.5 c 128,-1,18
 681 -29 681 -29 569 -29 c 0,19,20
 343 -29 343 -29 213.5 121 c 128,-1,21
 84 271 84 271 84 532 c 0,22,23
 84 794 84 794 213.5 943 c 128,-1,24
 343 1092 343 1092 569 1092 c 0,25,26
 681 1092 681 1092 757.5 1051.5 c 128,-1,27
 834 1011 834 1011 879 928 c 1,28,-1
 879 1063 l 1,29,-1
 1384 1063 l 1,30,-1
 1384 942 l 1,31,-1
 1233 942 l 1,0,-1
879 584 m 2,32,33
 879 770 879 770 831 853 c 128,-1,34
 783 936 783 936 678 936 c 0,35,36
 568 936 568 936 523.5 848.5 c 128,-1,37
 479 761 479 761 479 532 c 0,38,39
 479 303 479 303 524 215 c 128,-1,40
 569 127 569 127 678 127 c 0,41,42
 783 127 783 127 831 210 c 128,-1,43
 879 293 879 293 879 479 c 2,44,-1
 879 584 l 2,32,33
EndSplineSet
EndChar
StartChar: h
Encoding: 104 104 104
Width: 1489
Flags: W
Fore
70 0 m 1,0,-1
 70 121 l 1,1,-1
 221 121 l 1,2,-1
 221 1436 l 1,3,-1
 63 1436 l 1,4,-1
 63 1556 l 1,5,-1
 575 1556 l 1,6,-1
 575 913 l 1,7,8
 639 1008 639 1008 721 1050 c 128,-1,9
 803 1092 803 1092 928 1092 c 0,10,11
 1107 1092 1107 1092 1198.5 986.5 c 128,-1,12
 1290 881 1290 881 1290 676 c 2,13,-1
 1290 121 l 1,14,-1
 1442 121 l 1,15,-1
 1442 0 l 1,16,-1
 807 0 l 1,17,-1
 807 121 l 1,18,-1
 936 121 l 1,19,-1
 936 686 l 2,20,21
 936 821 936 821 901.5 873.5 c 128,-1,22
 867 926 867 926 782 926 c 0,23,24
 675 926 675 926 625 847.5 c 128,-1,25
 575 769 575 769 575 598 c 2,26,-1
 575 121 l 1,27,-1
 705 121 l 1,28,-1
 705 0 l 1,29,-1
 70 0 l 1,0,-1
EndSplineSet
EndChar
StartChar: i
Encoding: 105 105 105
Width: 778
Flags: W
Fore
188 1364 m 0,0,1
 188 1445 188 1445 244 1500.5 c 128,-1,2
 300 1556 300 1556 381 1556 c 0,3,4
 460 1556 460 1556 515.5 1500.5 c 128,-1,5
 571 1445 571 1445 571 1364 c 0,6,7
 571 1285 571 1285 515.5 1229.5 c 128,-1,8
 460 1174 460 1174 381 1174 c 0,9,10
 300 1174 300 1174 244 1229 c 128,-1,11
 188 1284 188 1284 188 1364 c 0,0,1
575 121 m 1,12,-1
 727 121 l 1,13,-1
 727 0 l 1,14,-1
 70 0 l 1,15,-1
 70 121 l 1,16,-1
 221 121 l 1,17,-1
 221 942 l 1,18,-1
 70 942 l 1,19,-1
 70 1063 l 1,20,-1
 575 1063 l 1,21,-1
 575 121 l 1,12,-1
EndSplineSet
EndChar
StartChar: j
Encoding: 106 106 106
Width: 741
Flags: W
Fore
178 1364 m 0,0,1
 178 1445 178 1445 233.5 1500.5 c 128,-1,2
 289 1556 289 1556 371 1556 c 0,3,4
 449 1556 449 1556 505 1500 c 128,-1,5
 561 1444 561 1444 561 1364 c 0,6,7
 561 1285 561 1285 505.5 1229.5 c 128,-1,8
 450 1174 450 1174 371 1174 c 0,9,10
 290 1174 290 1174 234 1229 c 128,-1,11
 178 1284 178 1284 178 1364 c 0,0,1
219 942 m 1,12,-1
 68 942 l 1,13,-1
 68 1063 l 1,14,-1
 573 1063 l 1,15,-1
 573 -125 l 2,16,17
 573 -288 573 -288 457.5 -371.5 c 128,-1,18
 342 -455 342 -455 117 -455 c 0,19,20
 57 -455 57 -455 -11 -445 c 128,-1,21
 -79 -435 -79 -435 -152 -416 c 1,22,-1
 -152 -190 l 1,23,-1
 -39 -191 l 1,24,25
 -37 -271 -37 -271 -7.5 -306.5 c 128,-1,26
 22 -342 22 -342 88 -342 c 0,27,28
 161 -342 161 -342 190 -295 c 128,-1,29
 219 -248 219 -248 219 -125 c 2,30,-1
 219 942 l 1,12,-1
EndSplineSet
EndChar
StartChar: k
Encoding: 107 107 107
Width: 1419
Flags: W
Fore
709 0 m 1,0,-1
 70 0 l 1,1,-1
 70 121 l 1,2,-1
 221 121 l 1,3,-1
 221 1436 l 1,4,-1
 70 1436 l 1,5,-1
 70 1556 l 1,6,-1
 575 1556 l 1,7,-1
 575 557 l 1,8,-1
 1004 942 l 1,9,-1
 877 942 l 1,10,-1
 877 1063 l 1,11,-1
 1362 1063 l 1,12,-1
 1362 942 l 1,13,-1
 1165 942 l 1,14,-1
 891 696 l 1,15,-1
 1339 121 l 1,16,-1
 1454 121 l 1,17,-1
 1454 0 l 1,18,-1
 844 0 l 1,19,-1
 844 121 l 1,20,-1
 969 121 l 1,21,-1
 674 500 l 1,22,-1
 575 412 l 1,23,-1
 575 121 l 1,24,-1
 709 121 l 1,25,-1
 709 0 l 1,0,-1
EndSplineSet
KernsSLIFO: 45 -83 0 0
EndChar
StartChar: l
Encoding: 108 108 108
Width: 778
Flags: W
Fore
575 121 m 1,0,-1
 727 121 l 1,1,-1
 727 0 l 1,2,-1
 70 0 l 1,3,-1
 70 121 l 1,4,-1
 221 121 l 1,5,-1
 221 1436 l 1,6,-1
 70 1436 l 1,7,-1
 70 1556 l 1,8,-1
 575 1556 l 1,9,-1
 575 121 l 1,0,-1
EndSplineSet
EndChar
StartChar: m
Encoding: 109 109 109
Width: 2167
Flags: W
Fore
1243 889 m 1,0,1
 1317 995 1317 995 1403 1043.5 c 128,-1,2
 1489 1092 1489 1092 1604 1092 c 0,3,4
 1787 1092 1787 1092 1877.5 988.5 c 128,-1,5
 1968 885 1968 885 1968 676 c 2,6,-1
 1968 121 l 1,7,-1
 2120 121 l 1,8,-1
 2120 0 l 1,9,-1
 1487 0 l 1,10,-1
 1487 121 l 1,11,-1
 1614 121 l 1,12,-1
 1614 623 l 2,13,14
 1614 822 1614 822 1583.5 874 c 128,-1,15
 1553 926 1553 926 1470 926 c 0,16,17
 1376 926 1376 926 1324 853.5 c 128,-1,18
 1272 781 1272 781 1272 647 c 2,19,-1
 1272 121 l 1,20,-1
 1399 121 l 1,21,-1
 1399 0 l 1,22,-1
 791 0 l 1,23,-1
 791 121 l 1,24,-1
 918 121 l 1,25,-1
 918 623 l 2,26,27
 918 822 918 822 887 874 c 128,-1,28
 856 926 856 926 774 926 c 0,29,30
 679 926 679 926 627 853.5 c 128,-1,31
 575 781 575 781 575 647 c 2,32,-1
 575 121 l 1,33,-1
 702 121 l 1,34,-1
 702 0 l 1,35,-1
 70 0 l 1,36,-1
 70 121 l 1,37,-1
 221 121 l 1,38,-1
 221 942 l 1,39,-1
 70 942 l 1,40,-1
 70 1063 l 1,41,-1
 575 1063 l 1,42,-1
 575 913 l 1,43,44
 637 1006 637 1006 717 1049 c 128,-1,45
 797 1092 797 1092 907 1092 c 0,46,47
 1037 1092 1037 1092 1118 1042.5 c 128,-1,48
 1199 993 1199 993 1243 889 c 1,0,1
EndSplineSet
EndChar
StartChar: n
Encoding: 110 110 110
Width: 1489
Flags: W
Fore
70 0 m 1,0,-1
 70 121 l 1,1,-1
 221 121 l 1,2,-1
 221 942 l 1,3,-1
 70 942 l 1,4,-1
 70 1063 l 1,5,-1
 575 1063 l 1,6,-1
 575 913 l 1,7,8
 639 1008 639 1008 721 1050 c 128,-1,9
 803 1092 803 1092 928 1092 c 0,10,11
 1107 1092 1107 1092 1198.5 986.5 c 128,-1,12
 1290 881 1290 881 1290 676 c 2,13,-1
 1290 121 l 1,14,-1
 1442 121 l 1,15,-1
 1442 0 l 1,16,-1
 807 0 l 1,17,-1
 807 121 l 1,18,-1
 936 121 l 1,19,-1
 936 686 l 2,20,21
 936 821 936 821 901.5 873.5 c 128,-1,22
 867 926 867 926 782 926 c 0,23,24
 675 926 675 926 625 847.5 c 128,-1,25
 575 769 575 769 575 598 c 2,26,-1
 575 121 l 1,27,-1
 705 121 l 1,28,-1
 705 0 l 1,29,-1
 70 0 l 1,0,-1
EndSplineSet
EndChar
StartChar: o
Encoding: 111 111 111
Width: 1366
Flags: W
Fore
684 84 m 0,0,1
 796 84 796 84 841.5 180 c 128,-1,2
 887 276 887 276 887 532 c 0,3,4
 887 788 887 788 842 883.5 c 128,-1,5
 797 979 797 979 684 979 c 0,6,7
 571 979 571 979 525 882.5 c 128,-1,8
 479 786 479 786 479 532 c 0,9,10
 479 278 479 278 525 181 c 128,-1,11
 571 84 571 84 684 84 c 0,0,1
684 -29 m 0,12,13
 403 -29 403 -29 243.5 120.5 c 128,-1,14
 84 270 84 270 84 532 c 0,15,16
 84 795 84 795 243.5 943.5 c 128,-1,17
 403 1092 403 1092 684 1092 c 0,18,19
 966 1092 966 1092 1125 943.5 c 128,-1,20
 1284 795 1284 795 1284 532 c 0,21,22
 1284 270 1284 270 1124.5 120.5 c 128,-1,23
 965 -29 965 -29 684 -29 c 0,12,13
EndSplineSet
KernsSLIFO: 46 -36 0 0
EndChar
StartChar: p
Encoding: 112 112 112
Width: 1432
Flags: W
Fore
553 584 m 2,0,-1
 553 479 l 2,1,2
 553 293 553 293 600.5 210 c 128,-1,3
 648 127 648 127 754 127 c 0,4,5
 863 127 863 127 907.5 215 c 128,-1,6
 952 303 952 303 952 532 c 0,7,8
 952 761 952 761 907.5 848.5 c 128,-1,9
 863 936 863 936 754 936 c 0,10,11
 648 936 648 936 600.5 853 c 128,-1,12
 553 770 553 770 553 584 c 2,0,-1
199 942 m 1,13,-1
 47 942 l 1,14,-1
 47 1063 l 1,15,-1
 553 1063 l 1,16,-1
 553 928 l 1,17,18
 598 1011 598 1011 674 1051.5 c 128,-1,19
 750 1092 750 1092 862 1092 c 0,20,21
 1089 1092 1089 1092 1219.5 942.5 c 128,-1,22
 1350 793 1350 793 1350 532 c 0,23,24
 1350 271 1350 271 1219.5 121 c 128,-1,25
 1089 -29 1089 -29 862 -29 c 0,26,27
 750 -29 750 -29 674 11.5 c 128,-1,28
 598 52 598 52 553 135 c 1,29,-1
 553 -305 l 1,30,-1
 717 -305 l 1,31,-1
 717 -426 l 1,32,-1
 47 -426 l 1,33,-1
 47 -305 l 1,34,-1
 199 -305 l 1,35,-1
 199 942 l 1,13,-1
EndSplineSet
EndChar
StartChar: q
Encoding: 113 113 113
Width: 1432
Flags: W
Fore
1233 942 m 1,0,-1
 1233 -305 l 1,1,-1
 1384 -305 l 1,2,-1
 1384 -426 l 1,3,-1
 715 -426 l 1,4,-1
 715 -305 l 1,5,-1
 879 -305 l 1,6,-1
 879 135 l 1,7,8
 834 52 834 52 757.5 11.5 c 128,-1,9
 681 -29 681 -29 569 -29 c 0,10,11
 343 -29 343 -29 213.5 121 c 128,-1,12
 84 271 84 271 84 532 c 0,13,14
 84 794 84 794 213.5 943 c 128,-1,15
 343 1092 343 1092 569 1092 c 0,16,17
 681 1092 681 1092 757.5 1051.5 c 128,-1,18
 834 1011 834 1011 879 928 c 1,19,-1
 879 1063 l 1,20,-1
 1384 1063 l 1,21,-1
 1384 942 l 1,22,-1
 1233 942 l 1,0,-1
879 584 m 2,23,24
 879 770 879 770 831 853 c 128,-1,25
 783 936 783 936 678 936 c 0,26,27
 568 936 568 936 523.5 848.5 c 128,-1,28
 479 761 479 761 479 532 c 0,29,30
 479 303 479 303 524 215 c 128,-1,31
 569 127 569 127 678 127 c 0,32,33
 783 127 783 127 831 210 c 128,-1,34
 879 293 879 293 879 479 c 2,35,-1
 879 584 l 2,23,24
EndSplineSet
EndChar
StartChar: r
Encoding: 114 114 114
Width: 1079
Flags: W
Fore
1100 1075 m 1,0,-1
 1100 758 l 1,1,-1
 987 758 l 1,2,3
 981 843 981 843 941 884.5 c 128,-1,4
 901 926 901 926 825 926 c 0,5,6
 709 926 709 926 642 824 c 128,-1,7
 575 722 575 722 575 541 c 2,8,-1
 575 121 l 1,9,-1
 768 121 l 1,10,-1
 768 0 l 1,11,-1
 70 0 l 1,12,-1
 70 121 l 1,13,-1
 221 121 l 1,14,-1
 221 942 l 1,15,-1
 59 942 l 1,16,-1
 59 1063 l 1,17,-1
 575 1063 l 1,18,-1
 575 874 l 1,19,20
 627 985 627 985 712.5 1038.5 c 128,-1,21
 798 1092 798 1092 922 1092 c 0,22,23
 953 1092 953 1092 997.5 1087.5 c 128,-1,24
 1042 1083 1042 1083 1100 1075 c 1,0,-1
EndSplineSet
KernsSLIFO: 8217 75 0 0 8216 75 0 0 8221 75 0 0 8220 75 0 0 46 -188 0 0 44 -149 0 0
EndChar
StartChar: s
Encoding: 115 115 115
Width: 1153
Flags: W
Fore
96 31 m 1,0,-1
 96 328 l 1,1,-1
 209 328 l 1,2,3
 223 209 223 209 298 146.5 c 128,-1,4
 373 84 373 84 502 84 c 0,5,6
 610 84 610 84 667.5 121.5 c 128,-1,7
 725 159 725 159 725 229 c 0,8,9
 725 293 725 293 688.5 328 c 128,-1,10
 652 363 652 363 547 389 c 2,11,-1
 401 426 l 2,12,13
 236 467 236 467 162 543.5 c 128,-1,14
 88 620 88 620 88 750 c 0,15,16
 88 923 88 923 208 1007.5 c 128,-1,17
 328 1092 328 1092 578 1092 c 0,18,19
 672 1092 672 1092 778.5 1076.5 c 128,-1,20
 885 1061 885 1061 1014 1028 c 1,21,-1
 1014 760 l 1,22,-1
 901 760 l 1,23,24
 892 869 892 869 823.5 924 c 128,-1,25
 755 979 755 979 627 979 c 0,26,27
 519 979 519 979 463.5 944.5 c 128,-1,28
 408 910 408 910 408 844 c 0,29,30
 408 790 408 790 440 759 c 128,-1,31
 472 728 472 728 555 707 c 2,32,-1
 700 670 l 2,33,34
 909 617 909 617 989 539 c 128,-1,35
 1069 461 1069 461 1069 322 c 0,36,37
 1069 142 1069 142 940.5 56.5 c 128,-1,38
 812 -29 812 -29 541 -29 c 0,39,40
 442 -29 442 -29 331 -14 c 128,-1,41
 220 1 220 1 96 31 c 1,0,-1
EndSplineSet
EndChar
StartChar: t
Encoding: 116 116 116
Width: 946
Flags: W
Fore
203 942 m 1,0,-1
 49 942 l 1,1,-1
 49 1063 l 1,2,-1
 203 1063 l 1,3,-1
 203 1393 l 1,4,-1
 557 1393 l 1,5,-1
 557 1063 l 1,6,-1
 852 1063 l 1,7,-1
 852 942 l 1,8,-1
 557 942 l 1,9,-1
 557 291 l 2,10,11
 557 152 557 152 579 118 c 128,-1,12
 601 84 601 84 659 84 c 0,13,14
 723 84 723 84 754 127 c 128,-1,15
 785 170 785 170 787 260 c 1,16,-1
 936 260 l 1,17,18
 927 100 927 100 848.5 35.5 c 128,-1,19
 770 -29 770 -29 578 -29 c 0,20,21
 359 -29 359 -29 281 39.5 c 128,-1,22
 203 108 203 108 203 291 c 2,23,-1
 203 942 l 1,0,-1
EndSplineSet
EndChar
StartChar: u
Encoding: 117 117 117
Width: 1489
Flags: W
Fore
1268 1063 m 1,0,-1
 1268 121 l 1,1,-1
 1419 121 l 1,2,-1
 1419 0 l 1,3,-1
 913 0 l 1,4,-1
 913 150 l 1,5,6
 850 55 850 55 768 13 c 128,-1,7
 686 -29 686 -29 561 -29 c 0,8,9
 382 -29 382 -29 290.5 76.5 c 128,-1,10
 199 182 199 182 199 387 c 2,11,-1
 199 942 l 1,12,-1
 47 942 l 1,13,-1
 47 1063 l 1,14,-1
 553 1063 l 1,15,-1
 553 442 l 2,16,17
 553 244 553 244 586 190.5 c 128,-1,18
 619 137 619 137 707 137 c 0,19,20
 814 137 814 137 863.5 216 c 128,-1,21
 913 295 913 295 913 467 c 2,22,-1
 913 942 l 1,23,-1
 784 942 l 1,24,-1
 784 1063 l 1,25,-1
 1268 1063 l 1,0,-1
EndSplineSet
EndChar
StartChar: v
Encoding: 118 118 118
Width: 1190
Flags: W
Fore
457 0 m 1,0,-1
 80 942 l 1,1,-1
 -37 942 l 1,2,-1
 -37 1063 l 1,3,-1
 573 1063 l 1,4,-1
 573 942 l 1,5,-1
 444 942 l 1,6,-1
 713 270 l 1,7,-1
 981 942 l 1,8,-1
 842 942 l 1,9,-1
 842 1063 l 1,10,-1
 1241 1063 l 1,11,-1
 1241 942 l 1,12,-1
 1118 942 l 1,13,-1
 741 0 l 1,14,-1
 457 0 l 1,0,-1
EndSplineSet
KernsSLIFO: 8217 75 0 0 8216 75 0 0 8221 75 0 0 8220 75 0 0 46 -206 0 0 44 -167 0 0
EndChar
StartChar: w
Encoding: 119 119 119
Width: 1763
Flags: W
Fore
1104 1063 m 1,0,-1
 1346 354 l 1,1,-1
 1546 942 l 1,2,-1
 1407 942 l 1,3,-1
 1407 1063 l 1,4,-1
 1804 1063 l 1,5,-1
 1804 942 l 1,6,-1
 1679 942 l 1,7,-1
 1358 0 l 1,8,-1
 1114 0 l 1,9,-1
 889 666 l 1,10,-1
 662 0 l 1,11,-1
 420 0 l 1,12,-1
 98 942 l 1,13,-1
 -18 942 l 1,14,-1
 -18 1063 l 1,15,-1
 584 1063 l 1,16,-1
 584 942 l 1,17,-1
 459 942 l 1,18,-1
 655 367 l 1,19,-1
 893 1063 l 1,20,-1
 1104 1063 l 1,0,-1
EndSplineSet
KernsSLIFO: 8217 75 0 0 8216 75 0 0 8221 75 0 0 8220 75 0 0 46 -206 0 0 44 -167 0 0
EndChar
StartChar: x
Encoding: 120 120 120
Width: 1221
Flags: W
Fore
719 678 m 1,0,-1
 907 942 l 1,1,-1
 776 942 l 1,2,-1
 776 1063 l 1,3,-1
 1190 1063 l 1,4,-1
 1190 942 l 1,5,-1
 1049 942 l 1,6,-1
 778 563 l 1,7,-1
 1094 121 l 1,8,-1
 1235 121 l 1,9,-1
 1235 0 l 1,10,-1
 559 0 l 1,11,-1
 559 121 l 1,12,-1
 696 121 l 1,13,-1
 496 401 l 1,14,-1
 295 121 l 1,15,-1
 438 121 l 1,16,-1
 438 0 l 1,17,-1
 0 0 l 1,18,-1
 0 121 l 1,19,-1
 152 121 l 1,20,-1
 434 518 l 1,21,-1
 129 942 l 1,22,-1
 10 942 l 1,23,-1
 10 1063 l 1,24,-1
 659 1063 l 1,25,-1
 659 942 l 1,26,-1
 530 942 l 1,27,-1
 719 678 l 1,0,-1
EndSplineSet
KernsSLIFO: 45 -36 0 0
EndChar
StartChar: y
Encoding: 121 121 121
Width: 1190
Flags: W
Fore
639 -240 m 1,0,1
 591 -357 591 -357 523 -406 c 128,-1,2
 455 -455 455 -455 340 -455 c 0,3,4
 291 -455 291 -455 231 -444 c 128,-1,5
 171 -433 171 -433 100 -412 c 1,6,-1
 100 -190 l 1,7,-1
 213 -191 l 1,8,9
 216 -268 216 -268 249.5 -305 c 128,-1,10
 283 -342 283 -342 350 -342 c 0,11,12
 415 -342 415 -342 455 -306.5 c 128,-1,13
 495 -271 495 -271 535 -172 c 1,14,-1
 551 -135 l 1,15,-1
 88 942 l 1,16,-1
 -27 942 l 1,17,-1
 -27 1063 l 1,18,-1
 586 1063 l 1,19,-1
 586 942 l 1,20,-1
 459 942 l 1,21,-1
 729 313 l 1,22,-1
 981 942 l 1,23,-1
 840 942 l 1,24,-1
 840 1063 l 1,25,-1
 1239 1063 l 1,26,-1
 1239 942 l 1,27,-1
 1110 942 l 1,28,-1
 639 -240 l 1,0,1
EndSplineSet
KernsSLIFO: 8217 75 0 0 8216 75 0 0 8221 75 0 0 8220 75 0 0 46 -235 0 0 44 -196 0 0
EndChar
StartChar: z
Encoding: 122 122 122
Width: 1163
Flags: W
Fore
72 0 m 1,0,-1
 72 121 l 1,1,-1
 682 946 l 1,2,-1
 223 946 l 1,3,-1
 223 764 l 1,4,-1
 104 764 l 1,5,-1
 104 1063 l 1,6,-1
 1094 1063 l 1,7,-1
 1094 944 l 1,8,-1
 483 119 l 1,9,-1
 975 119 l 1,10,-1
 975 311 l 1,11,-1
 1094 311 l 1,12,-1
 1094 0 l 1,13,-1
 72 0 l 1,0,-1
EndSplineSet
EndChar
StartChar: braceleft
Encoding: 123 123 123
Width: 1317
Flags: W
Fore
1133 -213 m 1,0,-1
 1133 -334 l 1,1,-1
 985 -334 l 2,2,3
 749 -334 749 -334 667 -309.5 c 128,-1,4
 585 -285 585 -285 535 -223 c 0,5,6
 506 -187 506 -187 493.5 -132 c 128,-1,7
 481 -77 481 -77 481 35 c 2,8,-1
 481 285 l 2,9,10
 481 436 481 436 427.5 493.5 c 128,-1,11
 374 551 374 551 233 551 c 2,12,-1
 172 551 l 1,13,-1
 172 672 l 1,14,-1
 233 672 l 2,15,16
 374 672 374 672 427.5 729.5 c 128,-1,17
 481 787 481 787 481 938 c 2,18,-1
 481 1188 l 2,19,20
 481 1300 481 1300 493.5 1354.5 c 128,-1,21
 506 1409 506 1409 535 1446 c 0,22,23
 585 1507 585 1507 667 1531.5 c 128,-1,24
 749 1556 749 1556 985 1556 c 2,25,-1
 1133 1556 l 1,26,-1
 1133 1436 l 1,27,-1
 1030 1436 l 2,28,29
 918 1436 918 1436 877 1389 c 128,-1,30
 836 1342 836 1342 836 1206 c 2,31,-1
 836 936 l 2,32,33
 836 777 836 777 786.5 709.5 c 128,-1,34
 737 642 737 642 608 612 c 1,35,36
 739 578 739 578 787.5 512 c 128,-1,37
 836 446 836 446 836 287 c 2,38,-1
 836 16 l 2,39,40
 836 -119 836 -119 877 -166 c 128,-1,41
 918 -213 918 -213 1030 -213 c 2,42,-1
 1133 -213 l 1,0,-1
EndSplineSet
EndChar
StartChar: bar
Encoding: 124 124 124
Width: 745
Flags: W
Fore
479 1565 m 1,0,-1
 479 -483 l 1,1,-1
 264 -483 l 1,2,-1
 264 1565 l 1,3,-1
 479 1565 l 1,0,-1
EndSplineSet
EndChar
StartChar: braceright
Encoding: 125 125 125
Width: 1317
Flags: W
Fore
186 -213 m 1,0,-1
 287 -213 l 2,1,2
 398 -213 398 -213 439.5 -166 c 128,-1,3
 481 -119 481 -119 481 16 c 2,4,-1
 481 287 l 2,5,6
 481 444 481 444 530 511 c 128,-1,7
 579 578 579 578 711 612 c 1,8,9
 581 642 581 642 531 710 c 128,-1,10
 481 778 481 778 481 936 c 2,11,-1
 481 1206 l 2,12,13
 481 1342 481 1342 439.5 1389 c 128,-1,14
 398 1436 398 1436 287 1436 c 2,15,-1
 186 1436 l 1,16,-1
 186 1556 l 1,17,-1
 332 1556 l 2,18,19
 568 1556 568 1556 650 1531.5 c 128,-1,20
 732 1507 732 1507 782 1446 c 0,21,22
 811 1409 811 1409 823.5 1354.5 c 128,-1,23
 836 1300 836 1300 836 1188 c 2,24,-1
 836 938 l 2,25,26
 836 787 836 787 889.5 729.5 c 128,-1,27
 943 672 943 672 1083 672 c 2,28,-1
 1145 672 l 1,29,-1
 1145 551 l 1,30,-1
 1083 551 l 2,31,32
 943 551 943 551 889.5 493.5 c 128,-1,33
 836 436 836 436 836 285 c 2,34,-1
 836 35 l 2,35,36
 836 -77 836 -77 823.5 -132 c 128,-1,37
 811 -187 811 -187 782 -223 c 0,38,39
 732 -285 732 -285 650 -309.5 c 128,-1,40
 568 -334 568 -334 332 -334 c 2,41,-1
 186 -334 l 1,42,-1
 186 -213 l 1,0,-1
EndSplineSet
EndChar
StartChar: asciitilde
Encoding: 126 126 126
Width: 1716
Flags: W
Fore
1499 831 m 1,0,-1
 1499 625 l 1,1,2
 1406 539 1406 539 1312.5 498 c 128,-1,3
 1219 457 1219 457 1118 457 c 0,4,5
 1023 457 1023 457 871 515 c 0,6,7
 854 521 854 521 846 524 c 0,8,9
 839 527 839 527 826 532 c 0,10,11
 654 598 654 598 557 598 c 0,12,13
 480 598 480 598 396.5 562 c 128,-1,14
 313 526 313 526 217 453 c 1,15,-1
 217 659 l 1,16,17
 313 746 313 746 405.5 786.5 c 128,-1,18
 498 827 498 827 598 827 c 0,19,20
 693 827 693 827 844 770 c 0,21,22
 862 763 862 763 870 760 c 2,23,-1
 885 754 l 2,24,25
 1058 686 1058 686 1159 686 c 0,26,27
 1236 686 1236 686 1319.5 722 c 128,-1,28
 1403 758 1403 758 1499 831 c 1,0,-1
EndSplineSet
EndChar
StartChar: exclamdown
Encoding: 161 161 161
Width: 899
Flags: W
Fore
639 1329 m 0,0,1
 639 1251 639 1251 583 1196 c 128,-1,2
 527 1141 527 1141 449 1141 c 0,3,4
 370 1141 370 1141 315 1196 c 128,-1,5
 260 1251 260 1251 260 1329 c 0,6,7
 260 1408 260 1408 315.5 1464 c 128,-1,8
 371 1520 371 1520 449 1520 c 0,9,10
 527 1520 527 1520 583 1463.5 c 128,-1,11
 639 1407 639 1407 639 1329 c 0,0,1
637 0 m 1,12,-1
 262 0 l 1,13,-1
 379 842 l 1,14,-1
 379 1032 l 1,15,-1
 518 1032 l 1,16,-1
 518 842 l 1,17,-1
 637 0 l 1,12,-1
EndSplineSet
EndChar
StartChar: cent
Encoding: 162 162 162
Width: 1425
Flags: W
Fore
739 94 m 1,0,-1
 739 969 l 1,1,2
 640 944 640 944 596.5 843.5 c 128,-1,3
 553 743 553 743 553 532 c 0,4,5
 553 321 553 321 596 221 c 128,-1,6
 639 121 639 121 739 94 c 1,0,-1
1233 332 m 1,7,8
 1201 175 1201 175 1106.5 85.5 c 128,-1,9
 1012 -4 1012 -4 860 -23 c 1,10,-1
 860 -299 l 1,11,-1
 739 -299 l 1,12,-1
 739 -29 l 1,13,14
 462 -23 462 -23 311 123.5 c 128,-1,15
 160 270 160 270 160 532 c 0,16,17
 160 794 160 794 311 939.5 c 128,-1,18
 462 1085 462 1085 739 1092 c 1,19,-1
 739 1356 l 1,20,-1
 860 1356 l 1,21,-1
 860 1087 l 1,22,23
 919 1083 919 1083 999.5 1064 c 128,-1,24
 1080 1045 1080 1045 1198 1008 c 1,25,-1
 1198 713 l 1,26,-1
 1085 713 l 1,27,28
 1070 839 1070 839 1015 903.5 c 128,-1,29
 960 968 960 968 860 979 c 1,30,-1
 860 88 l 1,31,32
 951 104 951 104 1003 165 c 128,-1,33
 1055 226 1055 226 1067 332 c 1,34,-1
 1233 332 l 1,7,8
EndSplineSet
EndChar
StartChar: sterling
Encoding: 163 163 163
Width: 1425
Flags: W
Fore
1247 1202 m 1,0,-1
 1127 1202 l 1,1,2
 1121 1299 1121 1299 1071.5 1353 c 128,-1,3
 1022 1407 1022 1407 938 1407 c 0,4,5
 821 1407 821 1407 770 1332.5 c 128,-1,6
 719 1258 719 1258 719 1083 c 2,7,-1
 719 815 l 1,8,-1
 1071 815 l 1,9,-1
 1071 694 l 1,10,-1
 719 694 l 1,11,-1
 719 137 l 1,12,-1
 1139 137 l 1,13,-1
 1139 365 l 1,14,-1
 1276 365 l 1,15,-1
 1276 0 l 1,16,-1
 147 0 l 1,17,-1
 147 121 l 1,18,-1
 340 121 l 1,19,-1
 340 694 l 1,20,-1
 147 694 l 1,21,-1
 147 815 l 1,22,-1
 340 815 l 1,23,-1
 340 1092 l 2,24,25
 340 1308 340 1308 473.5 1414 c 128,-1,26
 607 1520 607 1520 881 1520 c 0,27,28
 946 1520 946 1520 1036.5 1511 c 128,-1,29
 1127 1502 1127 1502 1247 1485 c 1,30,-1
 1247 1202 l 1,0,-1
EndSplineSet
EndChar
StartChar: currency
Encoding: 164 164 164
Width: 1303
Flags: W
Fore
653 422 m 0,0,1
 744 422 744 422 808 485.5 c 128,-1,2
 872 549 872 549 872 641 c 0,3,4
 872 733 872 733 808.5 796.5 c 128,-1,5
 745 860 745 860 653 860 c 0,6,7
 562 860 562 860 498 796.5 c 128,-1,8
 434 733 434 733 434 641 c 0,9,10
 434 548 434 548 497 485 c 128,-1,11
 560 422 560 422 653 422 c 0,0,1
436 268 m 1,12,-1
 227 61 l 1,13,-1
 76 215 l 1,14,-1
 285 424 l 1,15,16
 254 470 254 470 239.5 523.5 c 128,-1,17
 225 577 225 577 225 641 c 0,18,19
 225 704 225 704 240 758 c 128,-1,20
 255 812 255 812 285 858 c 1,21,-1
 76 1063 l 1,22,-1
 229 1221 l 1,23,-1
 436 1010 l 1,24,25
 484 1040 484 1040 538 1054.5 c 128,-1,26
 592 1069 592 1069 653 1069 c 0,27,28
 708 1069 708 1069 762.5 1054.5 c 128,-1,29
 817 1040 817 1040 874 1010 c 1,30,-1
 1079 1221 l 1,31,-1
 1231 1067 l 1,32,-1
 1022 862 l 1,33,34
 1052 806 1052 806 1066.5 750.5 c 128,-1,35
 1081 695 1081 695 1081 641 c 0,36,37
 1081 578 1081 578 1066.5 525.5 c 128,-1,38
 1052 473 1052 473 1022 426 c 1,39,-1
 1231 215 l 1,40,-1
 1075 61 l 1,41,-1
 868 272 l 1,42,43
 822 242 822 242 769 227.5 c 128,-1,44
 716 213 716 213 653 213 c 0,45,46
 595 213 595 213 541 227 c 128,-1,47
 487 241 487 241 436 268 c 1,12,-1
EndSplineSet
EndChar
StartChar: yen
Encoding: 165 165 165
Width: 1425
Flags: W
Fore
326 0 m 1,0,-1
 326 121 l 1,1,-1
 516 121 l 1,2,-1
 516 467 l 1,3,-1
 113 467 l 1,4,-1
 113 584 l 1,5,-1
 516 584 l 1,6,-1
 516 643 l 1,7,-1
 455 778 l 1,8,-1
 113 778 l 1,9,-1
 113 895 l 1,10,-1
 399 895 l 1,11,-1
 176 1372 l 1,12,-1
 39 1372 l 1,13,-1
 39 1493 l 1,14,-1
 733 1493 l 1,15,-1
 733 1372 l 1,16,-1
 563 1372 l 1,17,-1
 821 821 l 1,18,-1
 1077 1372 l 1,19,-1
 926 1372 l 1,20,-1
 926 1493 l 1,21,-1
 1362 1493 l 1,22,-1
 1362 1372 l 1,23,-1
 1227 1372 l 1,24,-1
 1006 895 l 1,25,-1
 1298 895 l 1,26,-1
 1298 778 l 1,27,-1
 948 778 l 1,28,-1
 895 662 l 1,29,-1
 895 584 l 1,30,-1
 1298 584 l 1,31,-1
 1298 467 l 1,32,-1
 895 467 l 1,33,-1
 895 121 l 1,34,-1
 1085 121 l 1,35,-1
 1085 0 l 1,36,-1
 326 0 l 1,0,-1
EndSplineSet
EndChar
StartChar: brokenbar
Encoding: 166 166 166
Width: 745
Flags: W
Fore
479 1432 m 1,0,-1
 479 674 l 1,1,-1
 264 674 l 1,2,-1
 264 1432 l 1,3,-1
 479 1432 l 1,0,-1
479 408 m 1,4,-1
 479 -350 l 1,5,-1
 264 -350 l 1,6,-1
 264 408 l 1,7,-1
 479 408 l 1,4,-1
EndSplineSet
EndChar
StartChar: section
Encoding: 167 167 167
Width: 1071
Flags: W
Fore
897 1475 m 1,0,-1
 897 1235 l 1,1,-1
 778 1235 l 1,2,3
 772 1321 772 1321 720 1364 c 128,-1,4
 668 1407 668 1407 571 1407 c 0,5,6
 490 1407 490 1407 444.5 1370 c 128,-1,7
 399 1333 399 1333 399 1266 c 0,8,9
 399 1219 399 1219 426 1186 c 128,-1,10
 453 1153 453 1153 543 1106 c 2,11,-1
 678 1034 l 1,12,13
 867 936 867 936 937.5 852 c 128,-1,14
 1008 768 1008 768 1008 653 c 0,15,16
 1008 549 1008 549 951 475 c 128,-1,17
 894 401 894 401 780 358 c 1,18,19
 863 311 863 311 901.5 247.5 c 128,-1,20
 940 184 940 184 940 94 c 0,21,22
 940 -43 940 -43 831 -119 c 128,-1,23
 722 -195 722 -195 522 -195 c 0,24,25
 439 -195 439 -195 348.5 -183.5 c 128,-1,26
 258 -172 258 -172 156 -150 c 1,27,-1
 156 90 l 1,28,-1
 274 90 l 1,29,30
 282 0 282 0 334 -41 c 128,-1,31
 386 -82 386 -82 492 -82 c 0,32,33
 579 -82 579 -82 625.5 -45 c 128,-1,34
 672 -8 672 -8 672 61 c 0,35,36
 672 108 672 108 645.5 141 c 128,-1,37
 619 174 619 174 528 221 c 2,38,-1
 393 293 l 2,39,40
 205 392 205 392 134 476 c 128,-1,41
 63 560 63 560 63 674 c 0,42,43
 63 777 63 777 120.5 850 c 128,-1,44
 178 923 178 923 293 967 c 1,45,46
 210 1013 210 1013 170.5 1077.5 c 128,-1,47
 131 1142 131 1142 131 1231 c 0,48,49
 131 1367 131 1367 240 1443.5 c 128,-1,50
 349 1520 349 1520 545 1520 c 0,51,52
 619 1520 619 1520 706 1508.5 c 128,-1,53
 793 1497 793 1497 897 1475 c 1,0,-1
395 901 m 1,54,55
 351 868 351 868 328 829 c 128,-1,56
 305 790 305 790 305 745 c 0,57,58
 305 684 305 684 350.5 633 c 128,-1,59
 396 582 396 582 506 524 c 2,60,-1
 674 436 l 1,61,62
 719 471 719 471 742.5 510.5 c 128,-1,63
 766 550 766 550 766 592 c 0,64,65
 766 652 766 652 719.5 703 c 128,-1,66
 673 754 673 754 561 813 c 2,67,-1
 395 901 l 1,54,55
EndSplineSet
EndChar
StartChar: dieresis
Encoding: 168 168 168
Width: 1024
Flags: W
Fore
141 1468 m 0,0,1
 141 1528 141 1528 185 1571 c 128,-1,2
 229 1614 229 1614 289 1614 c 0,3,4
 349 1614 349 1614 391.5 1571 c 128,-1,5
 434 1528 434 1528 434 1468 c 0,6,7
 434 1408 434 1408 391 1364.5 c 128,-1,8
 348 1321 348 1321 289 1321 c 0,9,10
 229 1321 229 1321 185 1365 c 128,-1,11
 141 1409 141 1409 141 1468 c 0,0,1
588 1468 m 0,12,13
 588 1528 588 1528 631.5 1571 c 128,-1,14
 675 1614 675 1614 735 1614 c 0,15,16
 795 1614 795 1614 839 1571 c 128,-1,17
 883 1528 883 1528 883 1468 c 0,18,19
 883 1409 883 1409 839 1365 c 128,-1,20
 795 1321 795 1321 735 1321 c 0,21,22
 675 1321 675 1321 631.5 1365 c 128,-1,23
 588 1409 588 1409 588 1468 c 0,12,13
EndSplineSet
Ligature: 0 1 'liga' space uni0308
EndChar
StartChar: copyright
Encoding: 169 169 169
Width: 2048
Flags: W
Fore
1024 1485 m 0,0,1
 1176 1485 1176 1485 1307.5 1430 c 128,-1,2
 1439 1375 1439 1375 1548 1266 c 0,3,4
 1657 1157 1657 1157 1711 1026 c 128,-1,5
 1765 895 1765 895 1765 741 c 0,6,7
 1765 589 1765 589 1711 458.5 c 128,-1,8
 1657 328 1657 328 1548 219 c 0,9,10
 1439 110 1439 110 1307.5 55 c 128,-1,11
 1176 0 1176 0 1024 0 c 0,12,13
 872 0 872 0 740.5 55 c 128,-1,14
 609 110 609 110 500 219 c 0,15,16
 391 328 391 328 337 458.5 c 128,-1,17
 283 589 283 589 283 741 c 0,18,19
 283 895 283 895 337 1026 c 128,-1,20
 391 1157 391 1157 500 1266 c 0,21,22
 609 1375 609 1375 740.5 1430 c 128,-1,23
 872 1485 872 1485 1024 1485 c 0,0,1
1024 1331 m 0,24,25
 903 1331 903 1331 799 1287.5 c 128,-1,26
 695 1244 695 1244 608 1157 c 0,27,28
 522 1071 522 1071 479 967.5 c 128,-1,29
 436 864 436 864 436 741 c 0,30,31
 436 619 436 619 479 515.5 c 128,-1,32
 522 412 522 412 608 326 c 0,33,34
 694 240 694 240 798.5 197 c 128,-1,35
 903 154 903 154 1024 154 c 0,36,37
 1147 154 1147 154 1250 196.5 c 128,-1,38
 1353 239 1353 239 1440 326 c 0,39,40
 1526 412 1526 412 1569 515.5 c 128,-1,41
 1612 619 1612 619 1612 741 c 0,42,43
 1612 864 1612 864 1569 967.5 c 128,-1,44
 1526 1071 1526 1071 1440 1157 c 0,45,46
 1352 1245 1352 1245 1248.5 1288 c 128,-1,47
 1145 1331 1145 1331 1024 1331 c 0,24,25
1391 580 m 1,48,49
 1364 441 1364 441 1272.5 371 c 128,-1,50
 1181 301 1181 301 1026 301 c 0,51,52
 838 301 838 301 722 422 c 128,-1,53
 606 543 606 543 606 741 c 0,54,55
 606 943 606 943 723 1063.5 c 128,-1,56
 840 1184 840 1184 1036 1184 c 0,57,58
 1115 1184 1115 1184 1195 1165.5 c 128,-1,59
 1275 1147 1275 1147 1362 1108 c 1,60,-1
 1362 885 l 1,61,-1
 1257 885 l 1,62,63
 1245 979 1245 979 1192.5 1032 c 128,-1,64
 1140 1085 1140 1085 1059 1085 c 0,65,66
 955 1085 955 1085 895.5 993.5 c 128,-1,67
 836 902 836 902 836 741 c 0,68,69
 836 580 836 580 895 489.5 c 128,-1,70
 954 399 954 399 1059 399 c 0,71,72
 1132 399 1132 399 1181 445 c 128,-1,73
 1230 491 1230 491 1253 580 c 1,74,-1
 1391 580 l 1,48,49
EndSplineSet
EndChar
StartChar: ordfeminine
Encoding: 170 170 170
Width: 997
Flags: W
Fore
113 639 m 1,0,-1
 911 639 l 1,1,-1
 911 504 l 1,2,-1
 113 504 l 1,3,-1
 113 639 l 1,0,-1
846 1212 m 2,4,-1
 846 850 l 1,5,-1
 961 850 l 1,6,-1
 961 756 l 1,7,-1
 582 756 l 1,8,-1
 582 848 l 1,9,10
 531 791 531 791 466.5 764 c 128,-1,11
 402 737 402 737 317 737 c 0,12,13
 194 737 194 737 127.5 798 c 128,-1,14
 61 859 61 859 61 973 c 0,15,16
 61 1101 61 1101 155.5 1164 c 128,-1,17
 250 1227 250 1227 442 1227 c 2,18,-1
 582 1227 l 1,19,-1
 582 1255 l 2,20,21
 582 1345 582 1345 535 1389.5 c 128,-1,22
 488 1434 488 1434 393 1434 c 0,23,24
 317 1434 317 1434 273 1401.5 c 128,-1,25
 229 1369 229 1369 219 1307 c 1,26,-1
 123 1307 l 1,27,-1
 123 1473 l 1,28,29
 196 1496 196 1496 273 1508 c 128,-1,30
 350 1520 350 1520 434 1520 c 0,31,32
 648 1520 648 1520 747 1446 c 128,-1,33
 846 1372 846 1372 846 1212 c 2,4,-1
582 1001 m 2,34,-1
 582 1133 l 1,35,-1
 481 1133 l 2,36,37
 409 1133 409 1133 367.5 1095.5 c 128,-1,38
 326 1058 326 1058 326 993 c 0,39,40
 326 931 326 931 356.5 897.5 c 128,-1,41
 387 864 387 864 444 864 c 0,42,43
 507 864 507 864 544.5 901 c 128,-1,44
 582 938 582 938 582 1001 c 2,34,-1
EndSplineSet
EndChar
StartChar: guillemotleft
Encoding: 171 171 171
Width: 1280
Flags: W
Fore
1087 1069 m 1,0,-1
 1087 922 l 1,1,-1
 848 600 l 1,2,-1
 1087 279 l 1,3,-1
 1087 131 l 1,4,-1
 618 516 l 1,5,-1
 618 684 l 1,6,-1
 1087 1069 l 1,0,-1
627 1069 m 1,7,-1
 627 922 l 1,8,-1
 387 600 l 1,9,-1
 627 279 l 1,10,-1
 627 131 l 1,11,-1
 158 516 l 1,12,-1
 158 684 l 1,13,-1
 627 1069 l 1,7,-1
EndSplineSet
KernsSLIFO: 356 -149 0 0 84 -149 0 0 74 -73 0 0
EndChar
StartChar: logicalnot
Encoding: 172 172 172
Width: 1716
Flags: W
Fore
217 903 m 1,0,-1
 1499 903 l 1,1,-1
 1499 287 l 1,2,-1
 1270 287 l 1,3,-1
 1270 676 l 1,4,-1
 217 676 l 1,5,-1
 217 903 l 1,0,-1
EndSplineSet
EndChar
StartChar: sfthyphen
Encoding: 173 173 173
Width: 850
Flags: W
Fore
111 684 m 1,0,-1
 739 684 l 1,1,-1
 739 414 l 1,2,-1
 111 414 l 1,3,-1
 111 684 l 1,0,-1
EndSplineSet
EndChar
StartChar: registered
Encoding: 174 174 174
Width: 2048
Flags: W
Fore
1166 754 m 1,0,1
 1205 743 1205 743 1235 716.5 c 128,-1,2
 1265 690 1265 690 1284 649 c 2,3,-1
 1384 434 l 1,4,-1
 1444 434 l 1,5,-1
 1444 352 l 1,6,-1
 1221 352 l 1,7,-1
 1104 606 l 1,8,9
 1072 674 1072 674 1042.5 695.5 c 128,-1,10
 1013 717 1013 717 958 717 c 2,11,-1
 932 717 l 1,12,-1
 932 434 l 1,13,-1
 1018 434 l 1,14,-1
 1018 352 l 1,15,-1
 649 352 l 1,16,-1
 649 434 l 1,17,-1
 735 434 l 1,18,-1
 735 1077 l 1,19,-1
 649 1077 l 1,20,-1
 649 1159 l 1,21,-1
 1102 1159 l 2,22,23
 1222 1159 1222 1159 1291 1104 c 128,-1,24
 1360 1049 1360 1049 1360 954 c 0,25,26
 1360 865 1360 865 1310.5 814 c 128,-1,27
 1261 763 1261 763 1166 754 c 1,0,1
932 799 m 1,28,-1
 999 799 l 2,29,30
 1078 799 1078 799 1120.5 835 c 128,-1,31
 1163 871 1163 871 1163 938 c 0,32,33
 1163 1005 1163 1005 1120.5 1041 c 128,-1,34
 1078 1077 1078 1077 999 1077 c 2,35,-1
 932 1077 l 1,36,-1
 932 799 l 1,28,-1
1024 1485 m 0,37,38
 1176 1485 1176 1485 1307.5 1430 c 128,-1,39
 1439 1375 1439 1375 1548 1266 c 0,40,41
 1657 1157 1657 1157 1711 1026 c 128,-1,42
 1765 895 1765 895 1765 741 c 0,43,44
 1765 589 1765 589 1711 458.5 c 128,-1,45
 1657 328 1657 328 1548 219 c 0,46,47
 1439 110 1439 110 1307.5 55 c 128,-1,48
 1176 0 1176 0 1024 0 c 0,49,50
 872 0 872 0 740.5 55 c 128,-1,51
 609 110 609 110 500 219 c 0,52,53
 391 328 391 328 337 458.5 c 128,-1,54
 283 589 283 589 283 741 c 0,55,56
 283 895 283 895 337 1026 c 128,-1,57
 391 1157 391 1157 500 1266 c 0,58,59
 609 1375 609 1375 740.5 1430 c 128,-1,60
 872 1485 872 1485 1024 1485 c 0,37,38
1024 1331 m 0,61,62
 903 1331 903 1331 799 1287.5 c 128,-1,63
 695 1244 695 1244 608 1157 c 0,64,65
 522 1071 522 1071 479 967.5 c 128,-1,66
 436 864 436 864 436 741 c 0,67,68
 436 619 436 619 479 515.5 c 128,-1,69
 522 412 522 412 608 326 c 0,70,71
 694 240 694 240 798.5 197 c 128,-1,72
 903 154 903 154 1024 154 c 0,73,74
 1147 154 1147 154 1250 196.5 c 128,-1,75
 1353 239 1353 239 1440 326 c 0,76,77
 1526 412 1526 412 1569 515.5 c 128,-1,78
 1612 619 1612 619 1612 741 c 0,79,80
 1612 864 1612 864 1569 967.5 c 128,-1,81
 1526 1071 1526 1071 1440 1157 c 0,82,83
 1352 1245 1352 1245 1248.5 1288 c 128,-1,84
 1145 1331 1145 1331 1024 1331 c 0,61,62
EndSplineSet
EndChar
StartChar: macron
Encoding: 175 175 175
Width: 1024
Flags: W
Fore
197 1548 m 1,0,-1
 827 1548 l 1,1,-1
 827 1360 l 1,2,-1
 197 1360 l 1,3,-1
 197 1548 l 1,0,-1
EndSplineSet
Ligature: 0 1 'liga' space uni0304
EndChar
StartChar: degree
Encoding: 176 176 176
Width: 1024
Flags: W
Fore
512 1534 m 0,0,1
 578 1534 578 1534 639 1508.5 c 128,-1,2
 700 1483 700 1483 748 1436 c 1,3,4
 795 1388 795 1388 819.5 1328 c 128,-1,5
 844 1268 844 1268 844 1200 c 0,6,7
 844 1133 844 1133 819.5 1072.5 c 128,-1,8
 795 1012 795 1012 750 967 c 0,9,10
 702 919 702 919 640 893.5 c 128,-1,11
 578 868 578 868 510 868 c 0,12,13
 369 868 369 868 273.5 963.5 c 128,-1,14
 178 1059 178 1059 178 1200 c 0,15,16
 178 1341 178 1341 274.5 1437.5 c 128,-1,17
 371 1534 371 1534 512 1534 c 0,0,1
512 1372 m 0,18,19
 440 1372 440 1372 390 1322 c 128,-1,20
 340 1272 340 1272 340 1200 c 0,21,22
 340 1128 340 1128 389.5 1079 c 128,-1,23
 439 1030 439 1030 512 1030 c 0,24,25
 584 1030 584 1030 634 1079.5 c 128,-1,26
 684 1129 684 1129 684 1200 c 0,27,28
 684 1272 684 1272 633.5 1322 c 128,-1,29
 583 1372 583 1372 512 1372 c 0,18,19
EndSplineSet
EndChar
StartChar: plusminus
Encoding: 177 177 177
Width: 1716
Flags: W
Fore
217 227 m 1,0,-1
 1499 227 l 1,1,-1
 1499 0 l 1,2,-1
 217 0 l 1,3,-1
 217 227 l 1,0,-1
973 1284 m 1,4,-1
 973 926 l 1,5,-1
 1499 926 l 1,6,-1
 1499 698 l 1,7,-1
 973 698 l 1,8,-1
 973 340 l 1,9,-1
 743 340 l 1,10,-1
 743 698 l 1,11,-1
 217 698 l 1,12,-1
 217 926 l 1,13,-1
 743 926 l 1,14,-1
 743 1284 l 1,15,-1
 973 1284 l 1,4,-1
EndSplineSet
EndChar
StartChar: twosuperior
Encoding: 178 178 178
Width: 897
Flags: W
Fore
188 1284 m 1,0,-1
 94 1284 l 1,1,-1
 94 1479 l 1,2,3
 166 1499 166 1499 241.5 1509.5 c 128,-1,4
 317 1520 317 1520 397 1520 c 0,5,6
 578 1520 578 1520 678 1456 c 128,-1,7
 778 1392 778 1392 778 1278 c 0,8,9
 778 1196 778 1196 723.5 1131.5 c 128,-1,10
 669 1067 669 1067 512 977 c 2,11,-1
 268 838 l 1,12,-1
 682 838 l 1,13,-1
 682 934 l 1,14,-1
 782 934 l 1,15,-1
 782 684 l 1,16,-1
 86 684 l 1,17,-1
 86 817 l 1,18,-1
 215 901 l 2,19,20
 402 1024 402 1024 452 1094 c 128,-1,21
 502 1164 502 1164 502 1257 c 0,22,23
 502 1341 502 1341 460.5 1388.5 c 128,-1,24
 419 1436 419 1436 346 1436 c 0,25,26
 283 1436 283 1436 239.5 1394.5 c 128,-1,27
 196 1353 196 1353 188 1284 c 1,0,-1
EndSplineSet
EndChar
StartChar: threesuperior
Encoding: 179 179 179
Width: 897
Flags: W
Fore
111 1481 m 1,0,1
 199 1500 199 1500 273.5 1510 c 128,-1,2
 348 1520 348 1520 412 1520 c 0,3,4
 592 1520 592 1520 685 1467.5 c 128,-1,5
 778 1415 778 1415 778 1315 c 0,6,7
 778 1243 778 1243 725.5 1196 c 128,-1,8
 673 1149 673 1149 571 1133 c 1,9,10
 691 1117 691 1117 753 1061.5 c 128,-1,11
 815 1006 815 1006 815 913 c 0,12,13
 815 791 815 791 713 729.5 c 128,-1,14
 611 668 611 668 410 668 c 0,15,16
 330 668 330 668 250 678.5 c 128,-1,17
 170 689 170 689 90 711 c 1,18,-1
 90 911 l 1,19,-1
 186 911 l 1,20,21
 193 831 193 831 236 791.5 c 128,-1,22
 279 752 279 752 358 752 c 0,23,24
 446 752 446 752 492.5 795 c 128,-1,25
 539 838 539 838 539 920 c 0,26,27
 539 1000 539 1000 490 1043.5 c 128,-1,28
 441 1087 441 1087 350 1087 c 2,29,-1
 309 1087 l 1,30,-1
 309 1171 l 1,31,-1
 340 1171 l 2,32,33
 421 1171 421 1171 464.5 1205 c 128,-1,34
 508 1239 508 1239 508 1303 c 0,35,36
 508 1366 508 1366 469 1401 c 128,-1,37
 430 1436 430 1436 358 1436 c 0,38,39
 292 1436 292 1436 252 1399.5 c 128,-1,40
 212 1363 212 1363 207 1299 c 1,41,-1
 111 1298 l 1,42,-1
 111 1481 l 1,0,1
EndSplineSet
EndChar
StartChar: acute
Encoding: 180 180 180
Width: 1024
Flags: W
Fore
604 1638 m 1,0,-1
 883 1638 l 1,1,-1
 510 1262 l 1,2,-1
 346 1262 l 1,3,-1
 604 1638 l 1,0,-1
EndSplineSet
LCarets: 0 65535 '    ' 1 0 
Ligature: 0 1 'liga' space acutecomb
EndChar
StartChar: mu
Encoding: 181 181 181
Width: 1499
Flags: W
Fore
1278 1063 m 1,0,-1
 1278 121 l 1,1,-1
 1430 121 l 1,2,-1
 1430 0 l 1,3,-1
 924 0 l 1,4,-1
 924 125 l 1,5,6
 869 42 869 42 814.5 6.5 c 128,-1,7
 760 -29 760 -29 686 -29 c 0,8,9
 655 -29 655 -29 625.5 -19 c 128,-1,10
 596 -9 596 -9 563 12 c 1,11,-1
 563 -305 l 1,12,-1
 715 -305 l 1,13,-1
 715 -426 l 1,14,-1
 57 -426 l 1,15,-1
 57 -305 l 1,16,-1
 209 -305 l 1,17,-1
 209 942 l 1,18,-1
 57 942 l 1,19,-1
 57 1063 l 1,20,-1
 563 1063 l 1,21,-1
 563 467 l 2,22,23
 563 247 563 247 597 192 c 128,-1,24
 631 137 631 137 719 137 c 0,25,26
 825 137 825 137 874.5 216.5 c 128,-1,27
 924 296 924 296 924 467 c 2,28,-1
 924 942 l 1,29,-1
 793 942 l 1,30,-1
 793 1063 l 1,31,-1
 1278 1063 l 1,0,-1
EndSplineSet
EndChar
StartChar: paragraph
Encoding: 182 182 182
Width: 1303
Flags: W
Fore
623 1493 m 2,0,-1
 1178 1493 l 1,1,-1
 1178 1368 l 1,2,-1
 1065 1368 l 1,3,-1
 1065 -197 l 1,4,-1
 913 -197 l 1,5,-1
 913 1368 l 1,6,-1
 750 1368 l 1,7,-1
 750 -197 l 1,8,-1
 598 -197 l 1,9,-1
 598 649 l 1,10,11
 383 666 383 666 265 776.5 c 128,-1,12
 147 887 147 887 147 1071 c 0,13,14
 147 1261 147 1261 277 1377 c 128,-1,15
 407 1493 407 1493 623 1493 c 2,0,-1
EndSplineSet
EndChar
StartChar: periodcentered
Encoding: 183 183 183
Width: 713
Flags: W
Fore
166 711 m 0,0,1
 166 789 166 789 222 845 c 128,-1,2
 278 901 278 901 356 901 c 0,3,4
 435 901 435 901 491 845 c 128,-1,5
 547 789 547 789 547 711 c 0,6,7
 547 633 547 633 491 577.5 c 128,-1,8
 435 522 435 522 356 522 c 0,9,10
 278 522 278 522 222 577.5 c 128,-1,11
 166 633 166 633 166 711 c 0,0,1
EndSplineSet
EndChar
StartChar: cedilla
Encoding: 184 184 184
Width: 1024
Flags: W
Fore
594 0 m 1,0,1
 656 -64 656 -64 685.5 -118.5 c 128,-1,2
 715 -173 715 -173 715 -225 c 0,3,4
 715 -311 715 -311 650.5 -356 c 128,-1,5
 586 -401 586 -401 465 -401 c 0,6,7
 417 -401 417 -401 366 -394.5 c 128,-1,8
 315 -388 315 -388 263 -375 c 1,9,-1
 262 -219 l 1,10,11
 307 -236 307 -236 349.5 -245 c 128,-1,12
 392 -254 392 -254 428 -254 c 0,13,14
 488 -254 488 -254 519.5 -230.5 c 128,-1,15
 551 -207 551 -207 551 -162 c 0,16,17
 551 -134 551 -134 534.5 -101 c 128,-1,18
 518 -68 518 -68 467 0 c 1,19,-1
 594 0 l 1,0,1
EndSplineSet
Ligature: 0 1 'liga' space uni0327
EndChar
StartChar: onesuperior
Encoding: 185 185 185
Width: 897
Flags: W
Fore
162 684 m 1,0,-1
 162 778 l 1,1,-1
 326 778 l 1,2,-1
 326 1391 l 1,3,-1
 143 1290 l 1,4,-1
 143 1395 l 1,5,-1
 365 1520 l 1,6,-1
 592 1520 l 1,7,-1
 592 778 l 1,8,-1
 756 778 l 1,9,-1
 756 684 l 1,10,-1
 162 684 l 1,0,-1
EndSplineSet
EndChar
StartChar: ordmasculine
Encoding: 186 186 186
Width: 1024
Flags: W
Fore
113 639 m 1,0,-1
 911 639 l 1,1,-1
 911 504 l 1,2,-1
 113 504 l 1,3,-1
 113 639 l 1,0,-1
512 823 m 0,4,5
 588 823 588 823 621.5 894 c 128,-1,6
 655 965 655 965 655 1128 c 0,7,8
 655 1292 655 1292 621.5 1363 c 128,-1,9
 588 1434 588 1434 512 1434 c 0,10,11
 435 1434 435 1434 402 1364 c 128,-1,12
 369 1294 369 1294 369 1128 c 0,13,14
 369 963 369 963 402 893 c 128,-1,15
 435 823 435 823 512 823 c 0,4,5
512 737 m 0,16,17
 300 737 300 737 180.5 841 c 128,-1,18
 61 945 61 945 61 1128 c 0,19,20
 61 1311 61 1311 180.5 1415.5 c 128,-1,21
 300 1520 300 1520 512 1520 c 0,22,23
 724 1520 724 1520 843.5 1415.5 c 128,-1,24
 963 1311 963 1311 963 1128 c 0,25,26
 963 945 963 945 843.5 841 c 128,-1,27
 724 737 724 737 512 737 c 0,16,17
EndSplineSet
EndChar
StartChar: guillemotright
Encoding: 187 187 187
Width: 1280
Flags: W
Fore
193 1069 m 1,0,-1
 662 684 l 1,1,-1
 662 516 l 1,2,-1
 193 131 l 1,3,-1
 193 279 l 1,4,-1
 432 600 l 1,5,-1
 193 922 l 1,6,-1
 193 1069 l 1,0,-1
653 1069 m 1,7,-1
 1122 684 l 1,8,-1
 1122 516 l 1,9,-1
 653 131 l 1,10,-1
 653 279 l 1,11,-1
 893 600 l 1,12,-1
 653 922 l 1,13,-1
 653 1069 l 1,7,-1
EndSplineSet
KernsSLIFO: 356 -149 0 0 84 -149 0 0 74 -73 0 0
EndChar
StartChar: questiondown
Encoding: 191 191 191
Width: 1200
Flags: W
Fore
858 1329 m 0,0,1
 858 1251 858 1251 802 1196 c 128,-1,2
 746 1141 746 1141 668 1141 c 0,3,4
 589 1141 589 1141 534 1196 c 128,-1,5
 479 1251 479 1251 479 1329 c 0,6,7
 479 1408 479 1408 534.5 1464 c 128,-1,8
 590 1520 590 1520 668 1520 c 0,9,10
 746 1520 746 1520 802 1463.5 c 128,-1,11
 858 1407 858 1407 858 1329 c 0,0,1
1067 39 m 1,12,13
 943 5 943 5 831 -12 c 128,-1,14
 719 -29 719 -29 614 -29 c 0,15,16
 362 -29 362 -29 227 81.5 c 128,-1,17
 92 192 92 192 92 397 c 0,18,19
 92 599 92 599 222.5 715.5 c 128,-1,20
 353 832 353 832 598 850 c 1,21,-1
 598 1055 l 1,22,-1
 737 1055 l 1,23,-1
 737 756 l 1,24,25
 598 713 598 713 532.5 620.5 c 128,-1,26
 467 528 467 528 467 375 c 0,27,28
 467 230 467 230 528 157 c 128,-1,29
 589 84 589 84 709 84 c 0,30,31
 818 84 818 84 877.5 150 c 128,-1,32
 937 216 937 216 947 346 c 1,33,-1
 1067 346 l 1,34,-1
 1067 39 l 1,12,13
EndSplineSet
EndChar
StartChar: Aring
Encoding: 197 197 197
Width: 1589
Flags: W
Fore
657 1616 m 0,0,1
 657 1562 657 1562 696 1523.5 c 128,-1,2
 735 1485 735 1485 788 1485 c 0,3,4
 843 1485 843 1485 881.5 1523.5 c 128,-1,5
 920 1562 920 1562 920 1616 c 0,6,7
 920 1670 920 1670 881 1708.5 c 128,-1,8
 842 1747 842 1747 788 1747 c 0,9,10
 735 1747 735 1747 696 1708.5 c 128,-1,11
 657 1670 657 1670 657 1616 c 0,0,1
-16 0 m 1,12,-1
 -16 121 l 1,13,-1
 106 121 l 1,14,-1
 625 1384 l 1,15,16
 567 1421 567 1421 535.5 1481.5 c 128,-1,17
 504 1542 504 1542 504 1616 c 0,18,19
 504 1733 504 1733 587.5 1817 c 128,-1,20
 671 1901 671 1901 788 1901 c 0,21,22
 906 1901 906 1901 989.5 1817 c 128,-1,23
 1073 1733 1073 1733 1073 1616 c 0,24,25
 1073 1542 1073 1542 1042.5 1483 c 128,-1,26
 1012 1424 1012 1424 952 1384 c 1,27,-1
 1470 121 l 1,28,-1
 1612 121 l 1,29,-1
 1612 0 l 1,30,-1
 913 0 l 1,31,-1
 913 121 l 1,32,-1
 1059 121 l 1,33,-1
 936 426 l 1,34,-1
 375 426 l 1,35,-1
 250 121 l 1,36,-1
 428 121 l 1,37,-1
 428 0 l 1,38,-1
 -16 0 l 1,12,-1
424 547 m 1,39,-1
 887 547 l 1,40,-1
 659 1118 l 1,41,-1
 424 547 l 1,39,-1
EndSplineSet
Ligature: 0 0 'liga' A uni030A
EndChar
StartChar: AE
Encoding: 198 198 198
Width: 2118
Flags: W
Fore
401 545 m 1,0,-1
 866 545 l 1,1,-1
 866 1372 l 1,2,-1
 791 1372 l 1,3,-1
 401 545 l 1,0,-1
676 0 m 1,4,-1
 676 121 l 1,5,-1
 866 121 l 1,6,-1
 866 424 l 1,7,-1
 344 424 l 1,8,-1
 201 121 l 1,9,-1
 365 121 l 1,10,-1
 365 0 l 1,11,-1
 -63 0 l 1,12,-1
 -63 121 l 1,13,-1
 51 121 l 1,14,-1
 643 1372 l 1,15,-1
 442 1372 l 1,16,-1
 442 1493 l 1,17,-1
 1993 1493 l 1,18,-1
 1993 1141 l 1,19,-1
 1855 1141 l 1,20,-1
 1855 1356 l 1,21,-1
 1253 1356 l 1,22,-1
 1253 877 l 1,23,-1
 1620 877 l 1,24,-1
 1620 1067 l 1,25,-1
 1755 1067 l 1,26,-1
 1755 551 l 1,27,-1
 1620 551 l 1,28,-1
 1620 741 l 1,29,-1
 1253 741 l 1,30,-1
 1253 137 l 1,31,-1
 1876 137 l 1,32,-1
 1876 352 l 1,33,-1
 2011 352 l 1,34,-1
 2011 0 l 1,35,-1
 676 0 l 1,4,-1
EndSplineSet
KernsSLIFO: 45 38 0 0
EndChar
StartChar: Eth
Encoding: 208 208 208
Width: 1790
Flags: W
Fore
686 121 m 1,0,-1
 825 121 l 2,1,2
 1059 121 1059 121 1166.5 270.5 c 128,-1,3
 1274 420 1274 420 1274 748 c 0,4,5
 1274 1074 1274 1074 1166.5 1223 c 128,-1,6
 1059 1372 1059 1372 825 1372 c 2,7,-1
 686 1372 l 1,8,-1
 686 850 l 1,9,-1
 1018 850 l 1,10,-1
 1018 713 l 1,11,-1
 686 713 l 1,12,-1
 686 121 l 1,0,-1
109 0 m 1,13,-1
 109 121 l 1,14,-1
 301 121 l 1,15,-1
 301 713 l 1,16,-1
 88 713 l 1,17,-1
 88 850 l 1,18,-1
 301 850 l 1,19,-1
 301 1372 l 1,20,-1
 109 1372 l 1,21,-1
 109 1493 l 1,22,-1
 877 1493 l 2,23,24
 1277 1493 1277 1493 1489.5 1301.5 c 128,-1,25
 1702 1110 1702 1110 1702 748 c 0,26,27
 1702 385 1702 385 1489.5 192.5 c 128,-1,28
 1277 0 1277 0 877 0 c 2,29,-1
 109 0 l 1,13,-1
EndSplineSet
KernsSLIFO: 221 -36 0 0 193 -36 0 0 194 -36 0 0 376 -36 0 0 195 -36 0 0 192 -36 0 0 196 -36 0 0 89 -36 0 0 86 -36 0 0 65 -36 0 0 46 -73 0 0 45 75 0 0 44 -73 0 0
EndChar
StartChar: multiply
Encoding: 215 215 215
Width: 1716
Flags: W
Fore
1452 1081 m 1,0,-1
 1012 641 l 1,1,-1
 1452 201 l 1,2,-1
 1298 47 l 1,3,-1
 858 487 l 1,4,-1
 418 47 l 1,5,-1
 264 201 l 1,6,-1
 705 641 l 1,7,-1
 264 1081 l 1,8,-1
 418 1237 l 1,9,-1
 858 797 l 1,10,-1
 1298 1237 l 1,11,-1
 1452 1081 l 1,0,-1
EndSplineSet
EndChar
StartChar: Oslash
Encoding: 216 216 216
Width: 1784
Flags: W
Fore
535 479 m 1,0,-1
 1212 1157 l 1,1,2
 1170 1276 1170 1276 1088.5 1337.5 c 128,-1,3
 1007 1399 1007 1399 891 1399 c 0,4,5
 701 1399 701 1399 607.5 1236.5 c 128,-1,6
 514 1074 514 1074 514 745 c 0,7,8
 514 669 514 669 519 603 c 128,-1,9
 524 537 524 537 535 479 c 1,0,-1
571 334 m 1,10,11
 616 212 616 212 695.5 152 c 128,-1,12
 775 92 775 92 891 92 c 0,13,14
 1086 92 1086 92 1178 259 c 128,-1,15
 1270 426 1270 426 1270 784 c 0,16,17
 1270 849 1270 849 1264 899.5 c 128,-1,18
 1258 950 1258 950 1245 993 c 1,19,-1
 571 334 l 1,10,11
1516 1280 m 1,20,21
 1606 1176 1606 1176 1651 1042.5 c 128,-1,22
 1696 909 1696 909 1696 745 c 0,23,24
 1696 383 1696 383 1481.5 177 c 128,-1,25
 1267 -29 1267 -29 891 -29 c 0,26,27
 733 -29 733 -29 600.5 10 c 128,-1,28
 468 49 468 49 362 127 c 1,29,-1
 158 -78 l 1,30,-1
 68 12 l 1,31,-1
 268 213 l 1,32,33
 177 315 177 315 131.5 448.5 c 128,-1,34
 86 582 86 582 86 745 c 0,35,36
 86 1107 86 1107 300.5 1313.5 c 128,-1,37
 515 1520 515 1520 891 1520 c 0,38,39
 1051 1520 1051 1520 1184 1481.5 c 128,-1,40
 1317 1443 1317 1443 1421 1366 c 1,41,-1
 1624 1569 l 1,42,-1
 1714 1479 l 1,43,-1
 1516 1280 l 1,20,21
EndSplineSet
KernsSLIFO: 88 -36 0 0 86 -36 0 0 46 -120 0 0 45 75 0 0 44 -120 0 0
EndChar
StartChar: Thorn
Encoding: 222 222 222
Width: 1550
Flags: W
Fore
96 0 m 1,0,-1
 96 121 l 1,1,-1
 287 121 l 1,2,-1
 287 1372 l 1,3,-1
 96 1372 l 1,4,-1
 96 1493 l 1,5,-1
 911 1493 l 1,6,-1
 911 1372 l 1,7,-1
 672 1372 l 1,8,-1
 672 1202 l 1,9,-1
 946 1202 l 2,10,11
 1195 1202 1195 1202 1342 1083.5 c 128,-1,12
 1489 965 1489 965 1489 766 c 0,13,14
 1489 567 1489 567 1341.5 447.5 c 128,-1,15
 1194 328 1194 328 946 328 c 2,16,-1
 672 328 l 1,17,-1
 672 121 l 1,18,-1
 913 121 l 1,19,-1
 913 0 l 1,20,-1
 96 0 l 1,0,-1
672 449 m 1,21,-1
 784 449 l 2,22,23
 914 449 914 449 991.5 535 c 128,-1,24
 1069 621 1069 621 1069 766 c 0,25,26
 1069 910 1069 910 992 995.5 c 128,-1,27
 915 1081 915 1081 784 1081 c 2,28,-1
 672 1081 l 1,29,-1
 672 449 l 1,21,-1
EndSplineSet
KernsSLIFO: 46 -301 0 0 45 38 0 0 44 -264 0 0
EndChar
StartChar: germandbls
Encoding: 223 223 223
Width: 1556
Flags: W
Fore
997 1221 m 1,0,1
 990 1345 990 1345 942 1394.5 c 128,-1,2
 894 1444 894 1444 782 1444 c 0,3,4
 673 1444 673 1444 624 1384.5 c 128,-1,5
 575 1325 575 1325 575 1190 c 2,6,-1
 575 0 l 1,7,-1
 70 0 l 1,8,-1
 70 121 l 1,9,-1
 221 121 l 1,10,-1
 221 1147 l 2,11,12
 221 1348 221 1348 361 1452 c 128,-1,13
 501 1556 501 1556 770 1556 c 0,14,15
 1033 1556 1033 1556 1167.5 1450.5 c 128,-1,16
 1302 1345 1302 1345 1329 1116 c 1,17,-1
 1307 1116 l 2,18,19
 1152 1116 1152 1116 1072.5 1070.5 c 128,-1,20
 993 1025 993 1025 993 936 c 0,21,22
 993 896 993 896 1016 862.5 c 128,-1,23
 1039 829 1039 829 1122 768 c 2,24,-1
 1210 705 l 2,25,26
 1387 577 1387 577 1436 498 c 128,-1,27
 1485 419 1485 419 1485 311 c 0,28,29
 1485 151 1485 151 1360.5 61 c 128,-1,30
 1236 -29 1236 -29 1012 -29 c 0,31,32
 932 -29 932 -29 844.5 -14 c 128,-1,33
 757 1 757 1 657 31 c 1,34,-1
 657 289 l 1,35,-1
 778 289 l 1,36,37
 791 182 791 182 840 133 c 128,-1,38
 889 84 889 84 983 84 c 0,39,40
 1059 84 1059 84 1106 128 c 128,-1,41
 1153 172 1153 172 1153 244 c 0,42,43
 1153 349 1153 349 989 466 c 0,44,45
 968 481 968 481 957 489 c 2,46,-1
 868 553 l 2,47,48
 766 627 766 627 721 705.5 c 128,-1,49
 676 784 676 784 676 889 c 0,50,51
 676 1023 676 1023 756 1105.5 c 128,-1,52
 836 1188 836 1188 997 1221 c 1,0,1
EndSplineSet
EndChar
StartChar: ae
Encoding: 230 230 230
Width: 1997
Flags: W
Fore
1513 600 m 1,0,1
 1513 810 1513 810 1474 894.5 c 128,-1,2
 1435 979 1435 979 1341 979 c 0,3,4
 1250 979 1250 979 1210.5 896 c 128,-1,5
 1171 813 1171 813 1171 618 c 2,6,-1
 1171 600 l 1,7,-1
 1513 600 l 1,0,1
975 936 m 1,8,9
 1052 1014 1052 1014 1144.5 1053 c 128,-1,10
 1237 1092 1237 1092 1348 1092 c 0,11,12
 1611 1092 1611 1092 1752 937 c 128,-1,13
 1893 782 1893 782 1902 481 c 1,14,-1
 1171 481 l 1,15,-1
 1171 473 l 2,16,17
 1171 267 1171 267 1233 175.5 c 128,-1,18
 1295 84 1295 84 1434 84 c 0,19,20
 1548 84 1548 84 1618 144.5 c 128,-1,21
 1688 205 1688 205 1708 322 c 1,22,-1
 1876 322 l 1,23,24
 1833 141 1833 141 1705.5 56 c 128,-1,25
 1578 -29 1578 -29 1348 -29 c 0,26,27
 1214 -29 1214 -29 1110 9.5 c 128,-1,28
 1006 48 1006 48 928 127 c 1,29,30
 839 49 839 49 733.5 10 c 128,-1,31
 628 -29 628 -29 504 -29 c 0,32,33
 298 -29 298 -29 191 57.5 c 128,-1,34
 84 144 84 144 84 309 c 0,35,36
 84 489 84 489 211.5 577.5 c 128,-1,37
 339 666 339 666 598 666 c 2,38,-1
 784 666 l 1,39,-1
 784 729 l 2,40,41
 784 845 784 845 713.5 912 c 128,-1,42
 643 979 643 979 520 979 c 0,43,44
 417 979 417 979 360 935.5 c 128,-1,45
 303 892 303 892 279 795 c 1,46,-1
 166 795 l 1,47,-1
 166 1024 l 1,48,49
 261 1058 261 1058 363 1075 c 128,-1,50
 465 1092 465 1092 578 1092 c 0,51,52
 715 1092 715 1092 813 1053.5 c 128,-1,53
 911 1015 911 1015 975 936 c 1,8,9
784 330 m 2,54,-1
 784 547 l 1,55,-1
 651 547 l 2,56,57
 542 547 542 547 489 492 c 128,-1,58
 436 437 436 437 436 324 c 0,59,60
 436 211 436 211 475.5 163 c 128,-1,61
 515 115 515 115 604 115 c 0,62,63
 690 115 690 115 737 171 c 128,-1,64
 784 227 784 227 784 330 c 2,54,-1
EndSplineSet
EndChar
StartChar: eth
Encoding: 240 240 240
Width: 1366
Flags: W
Fore
895 1337 m 1,0,1
 1083 1188 1083 1188 1183.5 986.5 c 128,-1,2
 1284 785 1284 785 1284 557 c 0,3,4
 1284 282 1284 282 1125 126.5 c 128,-1,5
 966 -29 966 -29 684 -29 c 0,6,7
 409 -29 409 -29 246.5 117.5 c 128,-1,8
 84 264 84 264 84 508 c 0,9,10
 84 738 84 738 243.5 889 c 128,-1,11
 403 1040 403 1040 647 1040 c 0,12,13
 689 1040 689 1040 732 1034 c 128,-1,14
 775 1028 775 1028 819 1016 c 1,15,16
 798 1079 798 1079 765.5 1134 c 128,-1,17
 733 1189 733 1189 686 1241 c 1,18,-1
 367 1092 l 1,19,-1
 317 1192 l 1,20,-1
 596 1323 l 1,21,22
 544 1361 544 1361 467.5 1392 c 128,-1,23
 391 1423 391 1423 291 1446 c 1,24,-1
 319 1556 l 1,25,26
 459 1539 459 1539 576 1502.5 c 128,-1,27
 693 1466 693 1466 784 1411 c 1,28,-1
 1114 1565 l 1,29,-1
 1161 1462 l 1,30,-1
 895 1337 l 1,0,1
838 891 m 1,31,32
 791 910 791 910 753.5 919 c 128,-1,33
 716 928 716 928 684 928 c 0,34,35
 573 928 573 928 526 832.5 c 128,-1,36
 479 737 479 737 479 508 c 0,37,38
 479 274 479 274 526 179 c 128,-1,39
 573 84 573 84 684 84 c 0,40,41
 795 84 795 84 841 178 c 128,-1,42
 887 272 887 272 887 508 c 0,43,44
 887 615 887 615 874.5 710.5 c 128,-1,45
 862 806 862 806 838 891 c 1,31,32
EndSplineSet
KernsSLIFO: 46 -36 0 0
EndChar
StartChar: divide
Encoding: 247 247 247
Width: 1716
Flags: W
Fore
709 1012 m 0,0,1
 709 1073 709 1073 753 1117 c 128,-1,2
 797 1161 797 1161 858 1161 c 0,3,4
 920 1161 920 1161 964 1117 c 128,-1,5
 1008 1073 1008 1073 1008 1012 c 0,6,7
 1008 950 1008 950 964 906 c 128,-1,8
 920 862 920 862 858 862 c 0,9,10
 797 862 797 862 753 906 c 128,-1,11
 709 950 709 950 709 1012 c 0,0,1
709 272 m 0,12,13
 709 334 709 334 753 378 c 128,-1,14
 797 422 797 422 858 422 c 0,15,16
 920 422 920 422 964 378 c 128,-1,17
 1008 334 1008 334 1008 272 c 0,18,19
 1008 211 1008 211 964 167 c 128,-1,20
 920 123 920 123 858 123 c 0,21,22
 797 123 797 123 753 167 c 128,-1,23
 709 211 709 211 709 272 c 0,12,13
217 756 m 1,24,-1
 1499 756 l 1,25,-1
 1499 528 l 1,26,-1
 217 528 l 1,27,-1
 217 756 l 1,24,-1
EndSplineSet
EndChar
StartChar: oslash
Encoding: 248 248 248
Width: 1366
Flags: W
Fore
481 416 m 1,0,-1
 868 801 l 1,1,2
 851 891 851 891 806 935 c 128,-1,3
 761 979 761 979 684 979 c 0,4,5
 574 979 574 979 527.5 883.5 c 128,-1,6
 481 788 481 788 481 553 c 2,7,-1
 481 416 l 1,0,-1
500 262 m 1,8,9
 515 173 515 173 561 128.5 c 128,-1,10
 607 84 607 84 684 84 c 0,11,12
 793 84 793 84 839 178 c 128,-1,13
 885 272 885 272 885 508 c 2,14,-1
 885 649 l 1,15,-1
 500 262 l 1,8,9
1151 913 m 1,16,17
 1217 841 1217 841 1250.5 745.5 c 128,-1,18
 1284 650 1284 650 1284 532 c 0,19,20
 1284 270 1284 270 1124.5 120.5 c 128,-1,21
 965 -29 965 -29 684 -29 c 0,22,23
 573 -29 573 -29 480 -4.5 c 128,-1,24
 387 20 387 20 307 70 c 1,25,-1
 135 -102 l 1,26,-1
 51 -16 l 1,27,-1
 215 147 l 1,28,29
 150 222 150 222 117 318.5 c 128,-1,30
 84 415 84 415 84 532 c 0,31,32
 84 795 84 795 243.5 943.5 c 128,-1,33
 403 1092 403 1092 684 1092 c 0,34,35
 800 1092 800 1092 894.5 1067 c 128,-1,36
 989 1042 989 1042 1061 993 c 1,37,-1
 1229 1161 l 1,38,-1
 1315 1075 l 1,39,-1
 1151 913 l 1,16,17
EndSplineSet
KernsSLIFO: 46 -36 0 0
EndChar
StartChar: thorn
Encoding: 254 254 254
Width: 1432
Flags: W
Fore
553 584 m 2,0,-1
 553 479 l 2,1,2
 553 293 553 293 600.5 210 c 128,-1,3
 648 127 648 127 754 127 c 0,4,5
 863 127 863 127 907.5 215 c 128,-1,6
 952 303 952 303 952 532 c 0,7,8
 952 761 952 761 907.5 848.5 c 128,-1,9
 863 936 863 936 754 936 c 0,10,11
 648 936 648 936 600.5 853 c 128,-1,12
 553 770 553 770 553 584 c 2,0,-1
199 1436 m 1,13,-1
 47 1436 l 1,14,-1
 47 1556 l 1,15,-1
 553 1556 l 1,16,-1
 553 928 l 1,17,18
 598 1011 598 1011 674 1051.5 c 128,-1,19
 750 1092 750 1092 862 1092 c 0,20,21
 1089 1092 1089 1092 1219.5 942.5 c 128,-1,22
 1350 793 1350 793 1350 532 c 0,23,24
 1350 271 1350 271 1219.5 121 c 128,-1,25
 1089 -29 1089 -29 862 -29 c 0,26,27
 750 -29 750 -29 674 11.5 c 128,-1,28
 598 52 598 52 553 135 c 1,29,-1
 553 -305 l 1,30,-1
 717 -305 l 1,31,-1
 717 -426 l 1,32,-1
 47 -426 l 1,33,-1
 47 -305 l 1,34,-1
 199 -305 l 1,35,-1
 199 1436 l 1,13,-1
EndSplineSet
KernsSLIFO: 46 -102 0 0 44 -36 0 0
EndChar
StartChar: Dcroat
Encoding: 272 272 272
Width: 1790
Flags: W
Fore
686 121 m 1,0,-1
 825 121 l 2,1,2
 1059 121 1059 121 1166.5 270.5 c 128,-1,3
 1274 420 1274 420 1274 748 c 0,4,5
 1274 1074 1274 1074 1166.5 1223 c 128,-1,6
 1059 1372 1059 1372 825 1372 c 2,7,-1
 686 1372 l 1,8,-1
 686 850 l 1,9,-1
 1018 850 l 1,10,-1
 1018 713 l 1,11,-1
 686 713 l 1,12,-1
 686 121 l 1,0,-1
109 0 m 1,13,-1
 109 121 l 1,14,-1
 301 121 l 1,15,-1
 301 713 l 1,16,-1
 88 713 l 1,17,-1
 88 850 l 1,18,-1
 301 850 l 1,19,-1
 301 1372 l 1,20,-1
 109 1372 l 1,21,-1
 109 1493 l 1,22,-1
 877 1493 l 2,23,24
 1277 1493 1277 1493 1489.5 1301.5 c 128,-1,25
 1702 1110 1702 1110 1702 748 c 0,26,27
 1702 385 1702 385 1489.5 192.5 c 128,-1,28
 1277 0 1277 0 877 0 c 2,29,-1
 109 0 l 1,13,-1
EndSplineSet
KernsSLIFO: 86 -36 0 0 46 -73 0 0 45 38 0 0 44 -73 0 0
EndChar
StartChar: dcroat
Encoding: 273 273 273
Width: 1432
Flags: W
Fore
879 479 m 2,0,-1
 879 584 l 2,1,2
 879 770 879 770 831 853 c 128,-1,3
 783 936 783 936 678 936 c 0,4,5
 568 936 568 936 523.5 848.5 c 128,-1,6
 479 761 479 761 479 532 c 0,7,8
 479 303 479 303 524 215 c 128,-1,9
 569 127 569 127 678 127 c 0,10,11
 783 127 783 127 831 210 c 128,-1,12
 879 293 879 293 879 479 c 2,0,-1
1233 121 m 1,13,-1
 1384 121 l 1,14,-1
 1384 0 l 1,15,-1
 879 0 l 1,16,-1
 879 135 l 1,17,18
 834 52 834 52 757.5 11.5 c 128,-1,19
 681 -29 681 -29 569 -29 c 0,20,21
 343 -29 343 -29 213.5 121 c 128,-1,22
 84 271 84 271 84 532 c 0,23,24
 84 794 84 794 213.5 943 c 128,-1,25
 343 1092 343 1092 569 1092 c 0,26,27
 681 1092 681 1092 757.5 1051.5 c 128,-1,28
 834 1011 834 1011 879 928 c 1,29,-1
 879 1223 l 1,30,-1
 555 1223 l 1,31,-1
 555 1343 l 1,32,-1
 879 1343 l 1,33,-1
 879 1436 l 1,34,-1
 727 1436 l 1,35,-1
 727 1556 l 1,36,-1
 1233 1556 l 1,37,-1
 1233 1343 l 1,38,-1
 1405 1343 l 1,39,-1
 1405 1223 l 1,40,-1
 1233 1223 l 1,41,-1
 1233 121 l 1,13,-1
EndSplineSet
EndChar
StartChar: Hbar
Encoding: 294 294 294
Width: 1935
Flags: W
Fore
96 0 m 1,0,-1
 96 121 l 1,1,-1
 287 121 l 1,2,-1
 287 1053 l 1,0,0
 96 1053 l 1,0,0
 96 1190 l 1,0,0
 287 1190 l 1,0,0
 287 1372 l 1,3,-1
 96 1372 l 1,4,-1
 96 1493 l 1,5,-1
 864 1493 l 1,6,-1
 864 1372 l 1,7,-1
 672 1372 l 1,8,-1
 672 1190 l 1,0,0
 1266 1190 l 1,0,0
 1266 1372 l 1,11,-1
 1075 1372 l 1,12,-1
 1075 1493 l 1,13,-1
 1843 1493 l 1,14,-1
 1843 1372 l 1,15,-1
 1651 1372 l 1,16,-1
 1651 1190 l 1,0,0
 1843 1190 l 1,0,0
 1843 1053 l 1,0,0
 1651 1053 l 1,0,0
 1651 121 l 1,17,-1
 1843 121 l 1,18,-1
 1843 0 l 1,19,-1
 1075 0 l 1,20,-1
 1075 121 l 1,21,-1
 1266 121 l 1,22,-1
 1266 733 l 1,23,-1
 672 733 l 1,24,-1
 672 121 l 1,25,-1
 864 121 l 1,26,-1
 864 0 l 1,27,-1
 96 0 l 1,0,-1
672 870 m 1,9,-1
 1266 870 l 1,10,-1
 1266 1053 l 1,0,0
 672 1053 l 1,0,0
 672 870 l 1,9,-1
EndSplineSet
EndChar
StartChar: hbar
Encoding: 295 295 295
Width: 1489
Flags: W
Fore
70 0 m 1,0,-1
 70 121 l 1,1,-1
 221 121 l 1,2,-1
 221 1196 l 1,0,0
 63 1196 l 1,0,0
 63 1333 l 1,0,0
 221 1333 l 1,0,0
 221 1436 l 1,3,-1
 63 1436 l 1,4,-1
 63 1556 l 1,5,-1
 575 1556 l 1,6,-1
 575 1333 l 1,0,0
 934 1333 l 1,0,0
 934 1196 l 1,0,0
 575 1196 l 1,0,0
 575 913 l 1,7,8
 639 1008 639 1008 721 1050 c 128,-1,9
 803 1092 803 1092 928 1092 c 0,10,11
 1107 1092 1107 1092 1198.5 986.5 c 128,-1,12
 1290 881 1290 881 1290 676 c 2,13,-1
 1290 121 l 1,14,-1
 1442 121 l 1,15,-1
 1442 0 l 1,16,-1
 807 0 l 1,17,-1
 807 121 l 1,18,-1
 936 121 l 1,19,-1
 936 686 l 2,20,21
 936 821 936 821 901.5 873.5 c 128,-1,22
 867 926 867 926 782 926 c 0,23,24
 675 926 675 926 625 847.5 c 128,-1,25
 575 769 575 769 575 598 c 2,26,-1
 575 121 l 1,27,-1
 705 121 l 1,28,-1
 705 0 l 1,29,-1
 70 0 l 1,0,-1
EndSplineSet
EndChar
StartChar: dotlessi
Encoding: 305 305 305
Width: 778
Flags: W
Fore
575 121 m 1,0,-1
 727 121 l 1,1,-1
 727 0 l 1,2,-1
 70 0 l 1,3,-1
 70 121 l 1,4,-1
 221 121 l 1,5,-1
 221 942 l 1,6,-1
 70 942 l 1,7,-1
 70 1063 l 1,8,-1
 575 1063 l 1,9,-1
 575 121 l 1,0,-1
EndSplineSet
EndChar
StartChar: kgreenlandic
Encoding: 312 312 312
Width: 1419
Flags: W
Fore
709 0 m 1,0,-1
 70 0 l 1,1,-1
 70 121 l 1,2,-1
 221 121 l 1,3,-1
 221 939 l 1,4,-1
 70 939 l 1,5,-1
 70 1060 l 1,6,-1
 575 1060 l 1,7,-1
 575 556 l 1,8,-1
 1004 939 l 1,9,-1
 877 939 l 1,10,-1
 877 1060 l 1,11,-1
 1362 1060 l 1,12,-1
 1362 939 l 1,13,-1
 1165 939 l 1,14,-1
 891 695 l 1,15,-1
 1339 121 l 1,16,-1
 1454 121 l 1,17,-1
 1454 0 l 1,18,-1
 844 0 l 1,19,-1
 844 121 l 1,20,-1
 969 121 l 1,21,-1
 674 499 l 1,22,-1
 575 411 l 1,23,-1
 575 121 l 1,24,-1
 709 121 l 1,25,-1
 709 0 l 1,0,-1
EndSplineSet
EndChar
StartChar: Lslash
Encoding: 321 321 321
Width: 1454
Flags: W
Fore
109 0 m 1,0,-1
 109 121 l 1,1,-1
 301 121 l 1,2,-1
 301 549 l 1,3,-1
 86 422 l 1,4,-1
 16 539 l 1,5,-1
 301 707 l 1,6,-1
 301 1372 l 1,7,-1
 109 1372 l 1,8,-1
 109 1493 l 1,9,-1
 877 1493 l 1,10,-1
 877 1372 l 1,11,-1
 686 1372 l 1,12,-1
 686 938 l 1,13,-1
 1026 1139 l 1,14,-1
 1096 1022 l 1,15,-1
 686 778 l 1,16,-1
 686 137 l 1,17,-1
 1274 137 l 1,18,-1
 1274 373 l 1,19,-1
 1409 373 l 1,20,-1
 1409 0 l 1,21,-1
 109 0 l 1,0,-1
EndSplineSet
KernsSLIFO: 366 -112 0 0 356 -167 0 0 253 -73 0 0 221 -131 0 0 217 -112 0 0 219 -112 0 0 218 -112 0 0 376 -131 0 0 255 -73 0 0 8217 -311 0 0 8221 -301 0 0 220 -112 0 0 121 -73 0 0 89 -131 0 0 87 -139 0 0 86 -243 0 0 85 -112 0 0 84 -167 0 0
EndChar
StartChar: lslash
Encoding: 322 322 322
Width: 788
Flags: W
Fore
580 121 m 1,0,-1
 731 121 l 1,1,-1
 731 0 l 1,2,-1
 74 0 l 1,3,-1
 74 121 l 1,4,-1
 225 121 l 1,5,-1
 225 653 l 1,6,-1
 70 557 l 1,7,-1
 8 662 l 1,8,-1
 225 795 l 1,9,-1
 225 1436 l 1,10,-1
 74 1436 l 1,11,-1
 74 1556 l 1,12,-1
 580 1556 l 1,13,-1
 580 999 l 1,14,-1
 735 1096 l 1,15,-1
 799 991 l 1,16,-1
 580 858 l 1,17,-1
 580 121 l 1,0,-1
EndSplineSet
EndChar
StartChar: Eng
Encoding: 330 330 330
Width: 1872
Flags: W
Fore
90 0 m 1,0,-1
 90 121 l 1,1,-1
 281 121 l 1,2,-1
 281 1372 l 1,3,-1
 90 1372 l 1,4,-1
 90 1493 l 1,5,-1
 557 1493 l 1,6,-1
 1458 436 l 1,7,-1
 1458 1372 l 1,8,-1
 1268 1372 l 1,9,-1
 1268 1493 l 1,10,-1
 1790 1493 l 1,11,-1
 1790 1372 l 1,12,-1
 1599 1372 l 1,13,-1
 1599 0 l 2,16,17
 1599 -289.5 1599 -289.5 1514 -367.5 c 128,-1,18
 1416.5 -455 1416.5 -455 1198 -455 c 0,19,20
 1138 -455 1138 -455 1070 -445 c 128,-1,21
 1002 -435 1002 -435 929 -416 c 1,22,-1
 929 -191 l 1,23,-1
 1042 -191 l 1,24,25
 1044 -271 1044 -271 1073.5 -306.5 c 128,-1,26
 1103 -342 1103 -342 1169 -342 c 0,27,28
 1268.5 -342 1268.5 -342 1306 -289 c 128,-1,29
 1337.5 -243 1337.5 -243 1337 0 c 1,15,-1
 422 1079 l 1,16,-1
 422 121 l 1,17,-1
 612 121 l 1,18,-1
 612 0 l 1,19,-1
 90 0 l 1,0,-1
EndSplineSet
EndChar
StartChar: eng
Encoding: 331 331 331
Width: 1489
Flags: W
Fore
70 0 m 1,0,-1
 70 121 l 1,1,-1
 221 121 l 1,2,-1
 221 942 l 1,3,-1
 70 942 l 1,4,-1
 70 1063 l 1,5,-1
 575 1063 l 1,6,-1
 575 913 l 1,7,8
 639 1008 639 1008 721 1050 c 128,-1,9
 803 1092 803 1092 928 1092 c 0,10,11
 1107 1092 1107 1092 1198.5 986.5 c 128,-1,12
 1290 881 1290 881 1290 676 c 2,13,-1
 1290 -125 l 2,16,17
 1290 -288 1290 -288 1174.5 -371.5 c 128,-1,18
 1059 -455 1059 -455 834 -455 c 0,19,20
 774 -455 774 -455 706 -445 c 128,-1,21
 638 -435 638 -435 565 -416 c 1,22,-1
 565 -191 l 1,23,-1
 678 -191 l 1,24,25
 680 -271 680 -271 709.5 -306.5 c 128,-1,26
 739 -342 739 -342 805 -342 c 0,27,28
 878 -342 878 -342 907 -295 c 128,-1,29
 936 -248 936 -248 936 -125 c 2,30,-1
 936 686 l 2,20,21
 936 821 936 821 901.5 873.5 c 128,-1,22
 867 926 867 926 782 926 c 0,23,24
 675 926 675 926 625 847.5 c 128,-1,25
 575 769 575 769 575 598 c 2,26,-1
 575 121 l 1,27,-1
 705 121 l 1,28,-1
 705 0 l 1,29,-1
 70 0 l 1,0,-1
EndSplineSet
EndChar
StartChar: OE
Encoding: 338 338 338
Width: 2417
Flags: W
Fore
1165 121 m 1,0,-1
 1165 1372 l 1,1,-1
 1038 1372 l 2,2,3
 774 1372 774 1372 640 1215 c 128,-1,4
 506 1058 506 1058 506 748 c 0,5,6
 506 434 506 434 639 277.5 c 128,-1,7
 772 121 772 121 1038 121 c 2,8,-1
 1165 121 l 1,0,-1
2312 0 m 1,9,-1
 991 0 l 2,10,11
 784 0 784 0 648.5 26 c 128,-1,12
 513 52 513 52 412 109 c 1,13,14
 255 195 255 195 170.5 361 c 128,-1,15
 86 527 86 527 86 748 c 0,16,17
 86 968 86 968 170.5 1132.5 c 128,-1,18
 255 1297 255 1297 412 1384 c 1,19,20
 512 1442 512 1442 646 1467.5 c 128,-1,21
 780 1493 780 1493 991 1493 c 2,22,-1
 2294 1493 l 1,23,-1
 2294 1141 l 1,24,-1
 2157 1141 l 1,25,-1
 2157 1356 l 1,26,-1
 1552 1356 l 1,27,-1
 1552 877 l 1,28,-1
 1919 877 l 1,29,-1
 1919 1067 l 1,30,-1
 2056 1067 l 1,31,-1
 2056 551 l 1,32,-1
 1919 551 l 1,33,-1
 1919 741 l 1,34,-1
 1552 741 l 1,35,-1
 1552 137 l 1,36,-1
 2175 137 l 1,37,-1
 2175 352 l 1,38,-1
 2312 352 l 1,39,-1
 2312 0 l 1,9,-1
EndSplineSet
KernsSLIFO: 45 38 0 0
EndChar
StartChar: oe
Encoding: 339 339 339
Width: 2105
Flags: W
Fore
684 84 m 0,0,1
 796 84 796 84 841.5 180 c 128,-1,2
 887 276 887 276 887 532 c 0,3,4
 887 788 887 788 842 883.5 c 128,-1,5
 797 979 797 979 684 979 c 0,6,7
 571 979 571 979 525 882.5 c 128,-1,8
 479 786 479 786 479 532 c 0,9,10
 479 278 479 278 525 181 c 128,-1,11
 571 84 571 84 684 84 c 0,0,1
1624 600 m 1,12,13
 1624 810 1624 810 1584.5 894.5 c 128,-1,14
 1545 979 1545 979 1452 979 c 0,15,16
 1362 979 1362 979 1323 897 c 128,-1,17
 1284 815 1284 815 1284 618 c 2,18,-1
 1284 600 l 1,19,-1
 1624 600 l 1,12,13
1085 936 m 1,20,21
 1160 1016 1160 1016 1253 1054 c 128,-1,22
 1346 1092 1346 1092 1464 1092 c 0,23,24
 1724 1092 1724 1092 1865 935 c 128,-1,25
 2006 778 2006 778 2015 482 c 1,26,-1
 1284 481 l 1,27,-1
 1284 473 l 2,28,29
 1284 266 1284 266 1345 175 c 128,-1,30
 1406 84 1406 84 1544 84 c 0,31,32
 1659 84 1659 84 1730 145 c 128,-1,33
 1801 206 1801 206 1821 322 c 1,34,-1
 1987 322 l 1,35,36
 1948 148 1948 148 1822 59.5 c 128,-1,37
 1696 -29 1696 -29 1487 -29 c 0,38,39
 1355 -29 1355 -29 1256 9.5 c 128,-1,40
 1157 48 1157 48 1085 127 c 1,41,42
 1015 50 1015 50 909 10.5 c 128,-1,43
 803 -29 803 -29 668 -29 c 0,44,45
 398 -29 398 -29 241 122 c 128,-1,46
 84 273 84 273 84 532 c 0,47,48
 84 795 84 795 243.5 943.5 c 128,-1,49
 403 1092 403 1092 684 1092 c 0,50,51
 811 1092 811 1092 910.5 1053.5 c 128,-1,52
 1010 1015 1010 1015 1085 936 c 1,20,21
EndSplineSet
EndChar
StartChar: Tbar
Encoding: 358 358 358
Width: 1524
Flags: W
TeX: 0 0 0 0
Fore
371 0 m 1,0,-1
 371 121 l 1,1,-1
 569 121 l 1,2,-1
 569 659 l 1,0,0
 322 659 l 1,0,0
 322 851 l 1,0,0
 569 851 l 1,0,0
 569 1356 l 1,3,-1
 160 1356 l 1,4,-1
 160 1120 l 1,5,-1
 23 1120 l 1,6,-1
 23 1493 l 1,7,-1
 1503 1493 l 1,8,-1
 1503 1120 l 1,9,-1
 1368 1120 l 1,10,-1
 1368 1356 l 1,11,-1
 956 1356 l 1,12,-1
 956 851 l 1,0,0
 1203 851 l 1,0,0
 1203 659 l 1,0,0
 956 659 l 1,0,0
 956 121 l 1,13,-1
 1155 121 l 1,14,-1
 1155 0 l 1,15,-1
 371 0 l 1,0,-1
EndSplineSet
EndChar
StartChar: tbar
Encoding: 359 359 359
Width: 946
Flags: W
TeX: 0 0 0 0
Fore
203 942 m 1,0,-1
 49 942 l 1,1,-1
 49 1063 l 1,2,-1
 203 1063 l 1,3,-1
 203 1393 l 1,4,-1
 557 1393 l 1,5,-1
 557 1063 l 1,6,-1
 852 1063 l 1,7,-1
 852 942 l 1,8,-1
 557 942 l 1,9,-1
 557 665 l 1,0,0
 741 665 l 1,0,0
 741 473 l 1,0,0
 557 473 l 1,0,0
 557 291 l 2,10,11
 557 152 557 152 579 118 c 128,-1,12
 601 84 601 84 659 84 c 0,13,14
 723 84 723 84 754 127 c 128,-1,15
 785 170 785 170 787 260 c 1,16,-1
 936 260 l 1,17,18
 927 100 927 100 848 36 c 128,-1,19
 770 -29 770 -29 578 -29 c 0,20,21
 359 -29 359 -29 281 40 c 128,-1,22
 203 108 203 108 203 291 c 2,23,-1
 203 473 l 1,0,0
 55 473 l 1,0,0
 55 665 l 1,0,0
 203 665 l 1,0,0
 203 942 l 1,0,-1
EndSplineSet
EndChar
StartChar: longs
Encoding: 383 383 383
Width: 881
Flags: W
TeX: 0 0 0 0
Fore
575 121 m 1,12,-1
 780 121 l 1,13,-1
 780 0 l 1,14,-1
 70 0 l 1,15,-1
 70 121 l 1,16,-1
 221 121 l 1,17,-1
 221 942 l 1,18,-1
 63 942 l 1,19,-1
 63 1063 l 1,20,-1
 221 1063 l 1,21,-1
 221 1196 l 2,22,23
 221 1373 221 1373 334 1464.5 c 128,-1,24
 447 1556 447 1556 666 1556 c 0,25,26
 751 1556 751 1556 832 1546.5 c 128,-1,27
 913 1537 913 1537 991 1518 c 1,28,-1
 991 1290 l 1,0,-1
 879 1290 l 1,1,2
 871 1368 871 1368 833.5 1406 c 128,-1,3
 796 1444 796 1444 727 1444 c 0,4,5
 647 1444 647 1444 611 1386.5 c 128,-1,6
 575 1324.33 575 1324.33 575 1200 c 2,7,-1
 575 121 l 1,12,-1
EndSplineSet
EndChar
StartChar: uni0186
Encoding: 390 390 390
Width: 1630
Flags: W
TeX: 117 0 0 0
Fore
86 426 m 1,0,1
 285 426 l 1,26,-1
 328 258 328 258 422.5 175 c 128,-1,25
 517 92 517 92 666 92 c 0,23,24
 886 92 886 92 992 252 c 128,-1,22
 1098 412 1098 412 1098 745 c 0,20,21
 1098 1078 1098 1078 992 1238.5 c 128,-1,19
 886 1399 886 1399 668 1399 c 0,17,18
 499 1399 499 1399 396 1305.5 c 128,-1,16
 293 1212 293 1212 254 1024 c 1,14,15
 127 1024 l 1,13,-1
 127 1391 l 1,12,-1
 288 1456 288 1456 432 1488 c 128,-1,11
 576 1520 576 1520 709 1520 c 0,9,10
 1087 1520 1087 1520 1306.5 1311.5 c 128,-1,8
 1526 1103 1526 1103 1526 745 c 0,6,7
 1526 388 1526 388 1306.5 179.5 c 128,-1,5
 1087 -29 1087 -29 709 -29 c 0,3,4
 451 -29 451 -29 298 83 c 128,-1,2
 145 195 145 195 86 426 c 1,0,1
EndSplineSet
EndChar
StartChar: uni0190
Encoding: 400 400 400
Width: 1425
Flags: W
TeX: 117 0 0 0
Fore
1261 1450 m 1,0,1
 1261 1151 l 1,42,-1
 1140 1151 l 1,41,-1
 1126 1274 1126 1274 1057 1338.5 c 128,-1,40
 988 1403 988 1403 870 1403 c 0,38,39
 740 1403 740 1403 670.5 1335.5 c 128,-1,37
 601 1268 601 1268 601 1141 c 0,35,36
 601 1006 601 1006 675 938 c 128,-1,34
 749 870 749 870 896 870 c 2,32,33
 948 870 l 1,31,-1
 948 750 l 1,30,-1
 882 750 l 2,29,-1
 723 750 723 750 636.5 662 c 128,-1,28
 550 574 550 574 550 412 c 0,26,27
 550 257 550 257 633 172.5 c 128,-1,25
 716 88 716 88 868 88 c 0,23,24
 1006 88 1006 88 1084 162.5 c 128,-1,22
 1162 237 1162 237 1173 379 c 1,20,21
 1294 379 l 1,19,-1
 1294 51 l 1,18,-1
 1157 11 1157 11 1031.5 -9 c 128,-1,17
 906 -29 906 -29 788 -29 c 0,15,16
 474 -29 474 -29 308.5 82.5 c 128,-1,14
 143 194 143 194 143 403 c 0,12,13
 143 580 143 580 239 682 c 128,-1,11
 335 784 335 784 530 815 c 1,9,10
 370 844 370 844 287 928 c 128,-1,8
 204 1012 204 1012 204 1147 c 0,6,7
 204 1327 204 1327 348.5 1423.5 c 128,-1,5
 493 1520 493 1520 763 1520 c 0,3,4
 881 1520 881 1520 1005 1502.5 c 128,-1,2
 1129 1485 1129 1485 1261 1450 c 1,0,1
EndSplineSet
EndChar
StartChar: florin
Encoding: 402 402 402
Width: 1425
Flags: W
Fore
561 1135 m 1,0,1
 584 1323 584 1323 700 1421.5 c 128,-1,2
 816 1520 816 1520 1016 1520 c 0,3,4
 1083 1520 1083 1520 1159.5 1508 c 128,-1,5
 1236 1496 1236 1496 1325 1473 c 1,6,-1
 1325 1239 l 1,7,-1
 1204 1239 l 1,8,9
 1204 1329 1204 1329 1178 1368 c 128,-1,10
 1152 1407 1152 1407 1092 1407 c 0,11,12
 1017 1407 1017 1407 982 1350 c 128,-1,13
 947 1293 947 1293 926 1112 c 1,14,-1
 891 821 l 1,15,-1
 1153 821 l 1,16,-1
 1153 700 l 1,17,-1
 877 700 l 1,18,-1
 786 -47 l 1,19,20
 765 -234 765 -234 647.5 -333 c 128,-1,21
 530 -432 530 -432 330 -432 c 0,22,23
 261 -432 261 -432 184.5 -420.5 c 128,-1,24
 108 -409 108 -409 20 -385 c 1,25,-1
 20 -152 l 1,26,-1
 141 -152 l 1,27,28
 141 -241 141 -241 168 -280 c 128,-1,29
 195 -319 195 -319 254 -319 c 0,30,31
 330 -319 330 -319 365 -262.5 c 128,-1,32
 400 -206 400 -206 422 -25 c 2,33,-1
 510 700 l 1,34,-1
 268 700 l 1,35,-1
 268 821 l 1,36,-1
 524 821 l 1,37,-1
 561 1135 l 1,0,1
EndSplineSet
EndChar
StartChar: uni0194
Encoding: 404 404 404
Width: 1578
Flags: W
TeX: 0 0 0 0
Fore
674.3 710 m 0,0,0
 194 1386 l 1,8,-1
 10 1386 l 1,9,-1
 10 1493 l 1,10,-1
 690.8 1493 l 1,11,-1
 690.8 1386 l 1,12,-1
 635 1386 l 1,13,-1
 902.3 966 l 1,14,-1
 1213.05 1386 l 1,15,-1
 1013.95 1386 l 1,16,-1
 1013.95 1493 l 1,17,-1
 1576.3 1493 l 1,18,-1
 1576.3 1386 l 1,19,-1
 1383.1 1386 l 1,20,-1
 979.3 855 l 0,0,0
 1544.3 90 1544.3 90 1355.5 -44 c 0,0,0
 1153.74 -188 1153.74 -188 771.3 -188 c 16,0,0
 364.201 -188 364.201 -188 292.899 12 c 0,0,0
 228.173 193 228.173 193 674.3 710 c 0,0,0
759.3 595 m 1,0,0
 441.899 212.406 441.899 212.406 444.3 80 c 24,0,0
 447.014 -69.7031 447.014 -69.7031 771.3 -67 c 16,0,0
 1059.74 -64.5957 1059.74 -64.5957 1044.3 85 c 16,0,0
 1032.2 202.221 1032.2 202.221 759.3 595 c 1,0,0
EndSplineSet
EndChar
StartChar: dotlessj
Encoding: 567 567 567
Width: 741
Flags: W
Fore
219 942 m 1,12,-1
 68 942 l 1,13,-1
 68 1063 l 1,14,-1
 573 1063 l 1,15,-1
 573 -125 l 2,16,17
 573 -288 573 -288 457.5 -371.5 c 128,-1,18
 342 -455 342 -455 117 -455 c 0,19,20
 57 -455 57 -455 -11 -445 c 128,-1,21
 -79 -435 -79 -435 -152 -416 c 1,22,-1
 -152 -190 l 1,23,-1
 -39 -191 l 1,24,25
 -37 -271 -37 -271 -7.5 -306.5 c 128,-1,26
 22 -342 22 -342 88 -342 c 0,27,28
 161 -342 161 -342 190 -295 c 128,-1,29
 219 -248 219 -248 219 -125 c 2,30,-1
 219 942 l 1,12,-1
EndSplineSet
EndChar
StartChar: uni0250
Encoding: 592 592 592
Width: 1327
Flags: W
Fore
236 410 m 2,0,-1
 236 942 l 1,1,-1
 84 942 l 1,2,-1
 84 1063 l 1,3,-1
 590 1063 l 1,4,-1
 590 928 l 1,5,6
 660 1012 660 1012 746 1052 c 128,-1,7
 832 1092 832 1092 942 1092 c 0,8,9
 1105 1092 1105 1092 1192.5 1004.5 c 128,-1,10
 1280 917 1280 917 1280 754 c 0,11,12
 1280 575 1280 575 1154.5 486 c 128,-1,13
 1029 397 1029 397 776 397 c 2,14,-1
 590 397 l 1,15,-1
 590 334 l 2,16,17
 590 205 590 205 651 143.5 c 128,-1,18
 712 82 712 82 840 82 c 0,19,20
 946 82 946 82 1003.5 125.5 c 128,-1,21
 1061 169 1061 169 1085 268 c 1,22,-1
 1198 268 l 1,23,-1
 1198 39 l 1,24,25
 1103 5 1103 5 1001 -12 c 128,-1,26
 899 -29 899 -29 786 -29 c 0,27,28
 501 -29 501 -29 368.5 77 c 128,-1,29
 236 183 236 183 236 410 c 2,0,-1
590 729 m 2,30,-1
 590 516 l 1,31,-1
 723 516 l 2,32,33
 822 516 822 516 875 570 c 128,-1,34
 928 624 928 624 928 725 c 0,35,36
 928 826 928 826 889.5 876 c 128,-1,37
 851 926 851 926 772 926 c 0,38,39
 690 926 690 926 640 872 c 128,-1,40
 590 818 590 818 590 729 c 2,30,-1
EndSplineSet
EndChar
StartChar: uni0251
Encoding: 593 593 593
Width: 1432
Flags: W
TeX: 0 0 0 0
Fore
879 479 m 2,0,-1
 879 584 l 2,1,2
 879 770 879 770 831 853 c 128,-1,3
 783 936 783 936 678 936 c 0,4,5
 568 936 568 936 523.5 848.5 c 128,-1,6
 479 761 479 761 479 532 c 0,7,8
 479 303 479 303 524 215 c 128,-1,9
 569 127 569 127 678 127 c 0,10,11
 783 127 783 127 831 210 c 128,-1,12
 879 293 879 293 879 479 c 2,0,-1
879 1064 m 1,32,-1
 1384 1064 l 1,15,-1
 1384 943 l 1,14,-1
 1233 943 l 1,33,-1
 1233 121 l 1,13,-1
 1384 121 l 1,14,-1
 1384 0 l 1,15,-1
 879 0 l 1,16,-1
 879 135 l 1,17,18
 834 52 834 52 757.5 11.5 c 128,-1,19
 681 -29 681 -29 569 -29 c 0,20,21
 343 -29 343 -29 213.5 121 c 128,-1,22
 84 271 84 271 84 532 c 0,23,24
 84 794 84 794 213.5 943 c 128,-1,25
 343 1092 343 1092 569 1092 c 0,26,27
 681 1092 681 1092 757.5 1051.5 c 128,-1,28
 834 1011 834 1011 879 928 c 1,29,-1
 879 944 l 1,31,-1
 879 1064 l 1,32,-1
EndSplineSet
EndChar
StartChar: uni0252
Encoding: 594 594 594
Width: 1432
Flags: W
TeX: 0 0 0 0
Fore
589 584 m 2,0,-1
 589 479 l 2,1,2
 589 293 589 293 637 210 c 128,-1,3
 685 127 685 127 790 127 c 0,4,5
 900 127 900 127 944.5 214.5 c 128,-1,6
 989 302 989 302 989 531 c 0,7,8
 989 760 989 760 944 848 c 128,-1,9
 899 936 899 936 790 936 c 0,10,11
 685 936 685 936 637 853 c 128,-1,12
 589 770 589 770 589 584 c 2,0,-1
589 -1 m 1,32,-1
 84 -1 l 1,15,-1
 84 120 l 1,14,-1
 235 120 l 1,33,-1
 235 942 l 1,13,-1
 84 942 l 1,14,-1
 84 1063 l 1,15,-1
 589 1063 l 1,16,-1
 589 928 l 1,17,18
 634 1011 634 1011 710.5 1051.5 c 128,-1,19
 787 1092 787 1092 899 1092 c 0,20,21
 1125 1092 1125 1092 1254.5 942 c 128,-1,22
 1384 792 1384 792 1384 531 c 0,23,24
 1384 269 1384 269 1254.5 120 c 128,-1,25
 1125 -29 1125 -29 899 -29 c 0,26,27
 787 -29 787 -29 710.5 11.5 c 128,-1,28
 634 52 634 52 589 135 c 1,29,-1
 589 119 l 1,31,-1
 589 -1 l 1,32,-1
EndSplineSet
EndChar
StartChar: uni0253
Encoding: 595 595 595
Width: 1432
Flags: W
TeX: 0 0 0 0
Fore
553 479 m 2,0,1
 553 293 553 293 600.5 210 c 0,2,3
 648 127 648 127 754 127 c 0,4,5
 863 127 863 127 907.5 215 c 0,6,7
 952 303 952 303 952 532 c 0,8,9
 952 761 952 761 907.5 848.5 c 0,10,11
 863 936 863 936 754 936 c 0,12,13
 648 936 648 936 600.5 853 c 0,14,15
 553 770 553 770 553 584 c 2,16,-1
 553 479 l 2,0,1
199 121 m 1,17,-1
 199 1164 l 1,18,-1
 200 1164 l 1,19,-1
 200 1226 l 2,20,21
 200 1389.01 200 1389.01 315.5 1472.5 c 0,22,23
 431.007 1556 431.007 1556 656 1556 c 0,24,25
 716 1556 716 1556 784 1546 c 0,26,27
 852 1536 852 1536 925 1517 c 1,28,-1
 925 1292 l 1,29,-1
 812 1292 l 1,30,31
 810 1372 810 1372 780.5 1407.5 c 0,32,33
 751 1443 751 1443 685 1443 c 0,34,35
 612 1443 612 1443 583 1396 c 0,36,37
 554 1348.91 554 1348.91 554 1226 c 2,38,-1
 554 929.832 l 1,39,40
 598.841 1011.45 598.841 1011.45 674 1051.5 c 0,41,42
 750 1092 750 1092 862 1092 c 0,43,44
 1089 1092 1089 1092 1219.5 942.5 c 0,45,46
 1350 793 1350 793 1350 532 c 0,47,48
 1350 271 1350 271 1219.5 121 c 0,49,50
 1089 -29 1089 -29 862 -29 c 0,51,52
 750 -29 750 -29 674 11.5 c 0,53,54
 598 52 598 52 553 135 c 1,55,-1
 553 0 l 1,56,-1
 47 0 l 1,57,-1
 47 121 l 1,58,-1
 199 121 l 1,17,-1
EndSplineSet
EndChar
StartChar: uni0254
Encoding: 596 596 596
Width: 1247
Flags: W
Fore
84 332 m 1,0,1
 250 332 l 1,26,-1
 264 212 264 212 328.5 148 c 128,-1,25
 393 84 393 84 500 84 c 0,23,24
 638 84 638 84 699 187.5 c 128,-1,22
 760 291 760 291 760 532 c 0,20,21
 760 779 760 779 697.5 879 c 128,-1,19
 635 979 635 979 487 979 c 0,17,18
 373 979 373 979 310 913.5 c 128,-1,16
 247 848 247 848 231 713 c 1,14,15
 119 713 l 1,13,-1
 119 1008 l 1,12,-1
 236 1050 236 1050 349 1071 c 128,-1,11
 462 1092 462 1092 573 1092 c 0,9,10
 847 1092 847 1092 1001 944 c 128,-1,8
 1155 796 1155 796 1155 532 c 0,6,7
 1155 265 1155 265 999 118 c 128,-1,5
 843 -29 843 -29 559 -29 c 0,3,4
 357 -29 357 -29 239.5 60.5 c 128,-1,2
 122 150 122 150 84 332 c 1,0,1
EndSplineSet
EndChar
StartChar: uni0255
Encoding: 597 597 597
Width: 1247
Flags: W
TeX: 0 0 0 0
Fore
531 222 m 1,0,1
 624 69 624 69 780 70 c 0,2,3
 918 69.1468 918 69.1468 918 176 c 0,4,5
 918 300.811 918 300.811 828 300 c 0,6,7
 572.683 298 572.683 298 531 222 c 1,0,1
494 316 m 1,8,9
 638 388 638 388 882 390 c 0,10,11
 1150.05 390.211 1150.05 390.211 1145 158 c 0,12,13
 1141 -41 1141 -41 693.6 -41 c 0,14,15
 510 -41 510 -41 381.6 30 c 1,16,17
 370.8 -2 370.8 -2 372 -87 c 1,18,-1
 372 -231 l 1,19,-1
 235.2 -231 l 1,20,-1
 236.4 -87 l 1,21,22
 240 14 240 14 268.8 93 c 1,23,24
 256.8 103 256.8 103 246 112 c 0,25,26
 76.7998 266 76.7998 266 76.7998 520 c 0,27,28
 76.7998 775 76.7998 775 246 928 c 0,29,30
 415.2 1080 415.2 1080 693.6 1080 c 0,31,32
 854.64 1080 854.64 1080 942.64 1056 c 0,33,34
 1030.64 1033 1030.64 1033 1119.52 985 c 1,35,-1
 1119.52 713 l 1,36,-1
 1025.36 713 l 1,37,38
 1006.88 853 1006.88 853 945.28 917 c 0,39,40
 882.8 981 882.8 981 768 981 c 0,41,42
 619 981 619 981 543 866 c 0,43,44
 464.592 746.326 464.592 746.326 467 520 c 0,45,46
 468 426 468 426 494 316 c 1,8,9
EndSplineSet
EndChar
StartChar: uni0256
Encoding: 598 598 598
Width: 1432
Flags: W
TeX: 0 0 0 0
Fore
879 479 m 2,0,-1
 879 584 l 2,1,2
 879 770 879 770 831 853 c 0,3,4
 783 936 783 936 678 936 c 0,5,6
 568 936 568 936 523.5 848.5 c 0,7,8
 479 761 479 761 479 532 c 0,9,10
 479 303 479 303 524 215 c 0,11,12
 569 127 569 127 678 127 c 0,13,14
 783 127 783 127 831 210 c 0,15,16
 879 293 879 293 879 479 c 2,0,-1
878 133.168 m 1,17,18
 833.153 51.5517 833.153 51.5517 757.5 11.5 c 0,19,20
 681 -29 681 -29 569 -29 c 0,21,22
 343 -29 343 -29 213.5 121 c 0,23,24
 84 271 84 271 84 532 c 0,25,26
 84 794 84 794 213.5 943 c 0,27,28
 343 1092 343 1092 569 1092 c 0,29,30
 681 1092 681 1092 757.5 1051.5 c 0,31,32
 834 1011 834 1011 879 928 c 1,33,-1
 879 1436 l 1,34,-1
 727 1436 l 1,35,-1
 727 1556 l 1,36,-1
 1233 1556 l 1,37,-1
 1233 0 l 1,38,-1
 1232 9.99201e-15 l 1,39,-1
 1232 -125 l 2,40,41
 1232 -247.91 1232 -247.91 1261 -295 c 0,42,43
 1290 -342 1290 -342 1363 -342 c 0,44,45
 1429 -342 1429 -342 1458.5 -306.5 c 0,46,47
 1488 -271 1488 -271 1490 -191 c 1,48,-1
 1603 -191 l 1,49,-1
 1603 -416 l 1,50,51
 1530 -435 1530 -435 1462 -445 c 0,52,53
 1394 -455 1394 -455 1334 -455 c 0,54,55
 1109 -455 1109 -455 993.5 -371.5 c 0,56,57
 878 -288.003 878 -288.003 878 -125 c 2,58,-1
 878 133.168 l 1,17,18
EndSplineSet
EndChar
StartChar: uni0257
Encoding: 599 599 599
Width: 1495
Flags: W
TeX: 0 0 0 0
Fore
1233 121 m 1,0,-1
 1384 121 l 1,1,-1
 1384 0 l 1,2,-1
 879 0 l 1,3,-1
 879 135 l 1,4,5
 834 52 834 52 757.5 11.5 c 0,6,7
 681 -29 681 -29 569 -29 c 0,8,9
 343 -29 343 -29 213.5 121 c 0,10,11
 84 271 84 271 84 532 c 0,12,13
 84 794 84 794 213.5 943 c 0,14,15
 343 1092 343 1092 569 1092 c 0,16,17
 681 1092 681 1092 757.5 1051.5 c 0,18,19
 834 1011 834 1011 879 928 c 1,20,-1
 879 1116 l 1,21,-1
 880 1116 l 1,22,-1
 880 1226 l 2,23,24
 880 1389 880 1389 995.5 1472.5 c 0,25,26
 1111.01 1556 1111.01 1556 1336 1556 c 0,27,28
 1396 1556 1396 1556 1464 1546 c 0,29,30
 1532 1536 1532 1536 1605 1517 c 1,31,-1
 1605 1292 l 1,32,-1
 1492 1292 l 1,33,34
 1490 1372 1490 1372 1460.5 1407.5 c 0,35,36
 1431 1443 1431 1443 1365 1443 c 0,37,38
 1292 1443 1292 1443 1263 1396 c 0,39,40
 1234 1348.91 1234 1348.91 1234 1226 c 2,41,-1
 1234 816 l 1,42,-1
 1233 816 l 1,43,-1
 1233 121 l 1,0,-1
879 479 m 2,44,-1
 879 584 l 2,45,46
 879 770 879 770 831 853 c 0,47,48
 783 936 783 936 678 936 c 0,49,50
 568 936 568 936 523.5 848.5 c 0,51,52
 479 761 479 761 479 532 c 0,53,54
 479 303 479 303 524 215 c 0,55,56
 569 127 569 127 678 127 c 0,57,58
 783 127 783 127 831 210 c 0,59,60
 879 293 879 293 879 479 c 2,44,-1
EndSplineSet
EndChar
StartChar: uni0258
Encoding: 600 600 600
Width: 1303
Flags: W
Fore
473 600 m 1,0,1
 815 600 l 1,7,-1
 815 618 l 2,6,-1
 815 813 815 813 775.5 896 c 128,-1,5
 736 979 736 979 645 979 c 0,3,4
 551 979 551 979 512 894.5 c 128,-1,2
 473 810 473 810 473 600 c 1,0,1
84 481 m 1,8,-1
 93 781 93 781 234 936.5 c 128,-1,28
 375 1092 375 1092 639 1092 c 0,26,27
 908 1092 908 1092 1059 944 c 128,-1,25
 1210 796 1210 796 1210 532 c 0,23,24
 1210 262 1210 262 1062.5 116.5 c 128,-1,22
 915 -29 915 -29 639 -29 c 0,20,21
 409 -29 409 -29 281 56 c 128,-1,19
 153 141 153 141 110 322 c 1,17,18
 276 322 l 1,16,-1
 296 206 296 206 367 145 c 128,-1,15
 438 84 438 84 553 84 c 0,13,14
 691 84 691 84 753 175.5 c 128,-1,12
 815 267 815 267 815 473 c 2,10,11
 815 481 l 1,9,-1
 84 481 l 1,8,-1
EndSplineSet
EndChar
StartChar: uni0259
Encoding: 601 601 601
Width: 1303
Flags: W
Fore
473 463 m 1,0,1
 473 253 473 253 512 168.5 c 128,-1,2
 551 84 551 84 645 84 c 0,3,4
 736 84 736 84 775.5 167 c 128,-1,5
 815 250 815 250 815 445 c 2,6,-1
 815 463 l 1,7,-1
 473 463 l 1,0,1
84 582 m 1,8,-1
 815 582 l 1,9,-1
 815 590 l 2,10,11
 815 796 815 796 753 887.5 c 128,-1,12
 691 979 691 979 553 979 c 0,13,14
 438 979 438 979 367 918 c 128,-1,15
 296 857 296 857 276 741 c 1,16,-1
 110 741 l 1,17,18
 153 922 153 922 281 1007 c 128,-1,19
 409 1092 409 1092 639 1092 c 0,20,21
 915 1092 915 1092 1062.5 946.5 c 128,-1,22
 1210 801 1210 801 1210 531 c 0,23,24
 1210 267 1210 267 1059 119 c 128,-1,25
 908 -29 908 -29 639 -29 c 0,26,27
 375 -29 375 -29 234 126.5 c 128,-1,28
 93 282 93 282 84 582 c 1,8,-1
EndSplineSet
EndChar
StartChar: uni025A
Encoding: 602 602 602
Width: 1858
Flags: W
TeX: 0 0 0 0
Fore
815 606 m 1,0,-1
 473.588 408.85 l 1,1,2
 478.128 241.827 478.128 241.827 512 168.5 c 0,3,4
 551.033 84 551.033 84 645 84 c 0,5,6
 736 84 736 84 775.5 167 c 0,7,8
 814.594 249.161 814.594 249.161 815 445 c 2,9,-1
 815 606 l 1,0,-1
804.928 737.559 m 1,10,11
 790.011 832.893 790.011 832.893 753 887.5 c 0,12,13
 690.984 979 690.984 979 553 979 c 0,14,15
 438 979 438 979 367 918 c 0,16,17
 296 857 296 857 276 741 c 1,18,-1
 110 741 l 1,19,20
 153 922 153 922 281 1007 c 0,21,22
 409 1092 409 1092 639 1092 c 0,23,24
 915 1092 915 1092 1062.5 946.5 c 0,25,26
 1081.28 927.975 1081.28 927.975 1097.67 907.431 c 1,27,-1
 1303 1025 l 1,28,-1
 1477.91 1022.43 l 1,29,-1
 1477.91 978.82 l 2,30,31
 1477.91 885.226 1477.91 885.226 1524.76 842.97 c 0,32,33
 1573.91 798.64 1573.91 798.64 1632.62 798.64 c 0,34,35
 1731.53 798.64 1731.53 798.64 1740.07 830.815 c 1,36,-1
 1858 679 l 1,37,38
 1781.08 631.119 1781.08 631.119 1778 630 c 0,39,40
 1731.23 613 1731.23 613 1636.16 613 c 0,41,42
 1520.08 613 1520.08 613 1426.9 706 c 0,43,44
 1345.75 787.302 1345.75 787.302 1335 907 c 1,45,-1
 1159.18 805.075 l 1,46,47
 1210 689.486 1210 689.486 1210 531 c 0,48,49
 1210 267 1210 267 1059 119 c 0,50,51
 908 -29 908 -29 639 -29 c 0,52,53
 375 -29 375 -29 234 126.5 c 0,54,55
 157.123 211.902 157.123 211.902 119.111 341.602 c 1,56,-1
 297.436 444.558 l 1,57,-1
 804.928 737.559 l 1,10,11
EndSplineSet
EndChar
StartChar: uni025B
Encoding: 603 603 603
Width: 1150
Flags: W
TeX: 0 0 0 0
Fore
674.3 -36 m 0,3,4
 370.2 -36 370.2 -36 227.1 41 c 128,-1,5
 84 118 84 118 84 259 c 0,6,7
 84 362 84 362 185.25 433 c 128,-1,8
 287.85 504 287.85 504 470.1 528 c 1,9,10
 287.85 552 287.85 552 185.25 624 c 128,-1,8
 84 695 84 695 84 797 c 0,6,7
 84 938 84 938 227.1 1015 c 128,-1,5
 370.2 1092 370.2 1092 646.3 1092 c 0,3,4
 732.75 1092 732.75 1092 832.5 1073 c 128,-1,2
 932.25 1055 932.25 1055 1041.45 1018 c 1,0,1
 1041.45 803 l 1,42,-1
 925.3 803 l 1,41,-1
 915.3 896 915.3 896 853.3 941 c 128,-1,40
 791.3 987 791.3 987 674.3 987 c 0,38,39
 566.3 987 566.3 987 508.3 935 c 128,-1,37
 451.3 884 451.3 884 451.3 789 c 0,35,36
 451.3 713.4 451.3 713.4 521.3 651 c 128,-1,34
 592.3 587.4 592.3 587.4 730.3 587.4 c 2,32,33
 768.3 587.4 l 1,31,-1
 768.3 467.4 l 17,0,0
 730.3 467.4 l 2,32,33
 589.979 467.4 589.979 467.4 521.3 405 c 128,-1,34
 451.3 341.4 451.3 341.4 451.3 268 c 0,35,36
 451.3 172 451.3 172 508.3 121 c 128,-1,37
 565.3 71 565.3 71 674.3 70 c 0,23,24
 789.3 69 789.3 69 851.3 115 c 128,-1,25
 913.3 161 913.3 161 933.3 285 c 1,26,-1
 1103.4 285 l 1,0,1
 1080.3 156 1080.3 156 984.75 59 c 128,-1,2
 891.3 -36 891.3 -36 674.3 -36 c 0,3,4
EndSplineSet
EndChar
StartChar: uni025C
Encoding: 604 604 604
Width: 1150
Flags: W
TeX: 0 0 0 0
Fore
513.1 -36 m 0,3,4
 296.1 -36 296.1 -36 202.649 59 c 128,-1,2
 107.1 156 107.1 156 84 285 c 1,0,1
 254.1 285 l 1,26,-1
 274.1 161 274.1 161 336.1 115 c 128,-1,25
 398.1 69 398.1 69 513.1 70 c 0,23,24
 622.1 71 622.1 71 679.1 121 c 128,-1,37
 736.1 172 736.1 172 736.1 268 c 0,35,36
 736.1 341.4 736.1 341.4 666.1 405 c 128,-1,34
 597.42 467.4 597.42 467.4 457.1 467.4 c 2,32,33
 419.1 467.4 l 9,0,0
 419.1 587.4 l 1,31,-1
 457.1 587.4 l 2,32,33
 595.1 587.4 595.1 587.4 666.1 651 c 128,-1,34
 736.1 713.4 736.1 713.4 736.1 789 c 0,35,36
 736.1 884 736.1 884 679.1 935 c 128,-1,37
 621.1 987 621.1 987 513.1 987 c 0,38,39
 396.1 987 396.1 987 334.1 941 c 128,-1,40
 272.1 896 272.1 896 262.1 803 c 1,41,-1
 145.949 803 l 1,42,-1
 145.949 1018 l 1,0,1
 255.149 1055 255.149 1055 354.899 1073 c 128,-1,2
 454.649 1092 454.649 1092 541.1 1092 c 0,3,4
 817.199 1092 817.199 1092 960.3 1015 c 128,-1,5
 1103.4 938 1103.4 938 1103.4 797 c 0,6,7
 1103.4 695 1103.4 695 1002.15 624 c 128,-1,8
 899.55 552 899.55 552 717.3 528 c 1,9,10
 899.55 504 899.55 504 1002.15 433 c 128,-1,8
 1103.4 362 1103.4 362 1103.4 259 c 0,6,7
 1103.4 118 1103.4 118 960.3 41 c 128,-1,5
 817.199 -36 817.199 -36 513.1 -36 c 0,3,4
EndSplineSet
EndChar
StartChar: uni025D
Encoding: 605 605 605
Width: 1858
Flags: W
TeX: 0 0 0 0
Fore
513.1 -36 m 0,0,1
 296.164 -36 296.164 -36 202.649 59 c 0,2,3
 107.085 156.081 107.085 156.081 84 285 c 1,4,-1
 254.1 285 l 1,5,6
 274.1 161 274.1 161 336.1 115 c 0,7,8
 398.1 69 398.1 69 513.1 70 c 0,9,10
 622.1 71 622.1 71 679.1 121 c 0,11,12
 736.1 172 736.1 172 736.1 268 c 0,13,14
 736.1 341.4 736.1 341.4 666.1 405 c 0,15,16
 597.42 467.4 597.42 467.4 457.1 467.4 c 2,17,-1
 419.1 467.4 l 1,18,-1
 419.1 587.4 l 1,19,-1
 457.1 587.4 l 2,20,21
 594.927 587.4 594.927 587.4 666.1 651 c 0,22,23
 736.1 713.552 736.1 713.552 736.1 789 c 0,24,25
 736.1 883.948 736.1 883.948 679.1 935 c 0,26,27
 621.041 987 621.041 987 513.1 987 c 0,28,29
 396.1 987 396.1 987 334.1 941 c 0,30,31
 272.1 896 272.1 896 262.1 803 c 1,32,-1
 145.949 803 l 1,33,-1
 145.949 1018 l 1,34,35
 255.149 1055 255.149 1055 354.899 1073 c 0,36,37
 454.649 1092 454.649 1092 541.1 1092 c 0,38,39
 817.199 1092 817.199 1092 960.3 1015 c 0,40,41
 1074.97 953.296 1074.97 953.296 1097.75 850.492 c 1,42,-1
 1303 1025 l 1,43,-1
 1477.91 1022.43 l 1,44,-1
 1477.91 978.82 l 2,45,46
 1477.91 885.226 1477.91 885.226 1524.76 842.97 c 0,47,48
 1573.91 798.64 1573.91 798.64 1632.62 798.64 c 0,49,50
 1731.53 798.64 1731.53 798.64 1740.07 830.815 c 1,51,-1
 1858 679 l 1,52,53
 1781.08 631.119 1781.08 631.119 1778 630 c 0,54,55
 1731.23 613 1731.23 613 1636.16 613 c 0,56,57
 1520.08 613 1520.08 613 1426.9 706 c 0,58,59
 1345.75 787.302 1345.75 787.302 1335 907 c 1,60,-1
 1047.57 662.614 l 2,61,62
 1028.21 642.281 1028.21 642.281 1002.15 624 c 0,63,64
 899.503 551.994 899.503 551.994 717.3 528 c 1,65,66
 899.55 504 899.55 504 1002.15 433 c 0,67,68
 1103.4 362 1103.4 362 1103.4 259 c 0,69,70
 1103.4 118 1103.4 118 960.3 41 c 0,71,72
 817.199 -36 817.199 -36 513.1 -36 c 0,0,1
EndSplineSet
EndChar
StartChar: uni025E
Encoding: 606 606 606
Width: 1474
Flags: W
TeX: 0 0 0 0
Fore
790.95 70 m 24,3,4
 899.95 71 899.95 71 956.95 121 c 128,-1,37
 1013.95 172 1013.95 172 1013.95 268 c 0,35,36
 1013.95 341.4 1013.95 341.4 943.95 405 c 128,-1,34
 875.271 467.4 875.271 467.4 734.95 467.4 c 2,32,33
 696.95 467.4 l 9,0,0
 696.95 587.4 l 1,31,-1
 734.95 587.4 l 2,32,33
 872.95 587.4 872.95 587.4 943.95 651 c 128,-1,34
 1013.95 713.4 1013.95 713.4 1013.95 789 c 0,35,36
 1013.95 884 1013.95 884 956.95 935 c 128,-1,37
 898.95 987 898.95 987 790.95 987 c 24,3,4
 774.751 987 774.751 987 700.95 969 c 128,-1,2
 664.05 960 664.05 960 600.15 923 c 0,0,0
 384.15 800 384.15 800 384.15 525 c 0,0,0
 384.15 273.449 384.15 273.449 600.15 127 c 0,0,0
 638.254 101.165 638.254 101.165 700.95 81 c 128,-1,2
 735.15 70 735.15 70 790.95 70 c 24,3,4
818.95 1092 m 24,3,4
 1095.05 1092 1095.05 1092 1238.15 1015 c 128,-1,5
 1381.25 938 1381.25 938 1381.25 797 c 0,6,7
 1381.25 695 1381.25 695 1280 624 c 128,-1,8
 1177.4 552 1177.4 552 995.15 528 c 1,9,10
 1177.4 504 1177.4 504 1280 433 c 128,-1,8
 1381.25 362 1381.25 362 1381.25 259 c 0,6,7
 1381.25 118 1381.25 118 1238.15 41 c 128,-1,5
 1095.05 -36 1095.05 -36 787.851 -36 c 24,3,4
 766.784 -36 766.784 -36 624 -17 c 128,-1,2
 565.233 -9.17969 565.233 -9.17969 452.28 38 c 0,0,0
 84 191.829 84 191.829 84 528 c 0,0,0
 84 836 84 836 452.28 1018 c 0,0,0
 520.938 1051.98 520.938 1051.98 624 1074 c 128,-1,2
 708.241 1092 708.241 1092 818.95 1092 c 24,3,4
EndSplineSet
EndChar
StartChar: uni025F
Encoding: 607 607 607
Width: 792
Flags: W
Fore
219 942 m 1,0,-1
 68 942 l 1,1,-1
 68 1063 l 1,2,-1
 573 1063 l 1,3,-1
 573 121 l 1,4,-1
 741 121 l 1,5,-1
 741 0 l 1,6,-1
 573 -4.21885e-15 l 1,7,-1
 573 -125 l 2,8,9
 573 -288 573 -288 457.5 -371.5 c 0,10,11
 342 -455 342 -455 117 -455 c 0,12,13
 57 -455 57 -455 -11 -445 c 0,14,15
 -79 -435 -79 -435 -152 -416 c 1,16,-1
 -152 -190 l 1,17,-1
 -39 -191 l 1,18,19
 -37 -271 -37 -271 -7.5 -306.5 c 0,20,21
 22 -342 22 -342 88 -342 c 0,22,23
 161 -342 161 -342 190 -295 c 0,24,25
 219 -248 219 -248 219 -125 c 2,26,-1
 219 7.42462e-16 l 1,27,-1
 70 0 l 1,28,-1
 70 121 l 1,29,-1
 219 121 l 1,30,-1
 219 942 l 1,0,-1
EndSplineSet
EndChar
StartChar: uni0260
Encoding: 608 608 608
Width: 1432
Flags: W
TeX: 0 0 0 0
Fore
880 936 m 1,0,-1
 678 936 l 2,1,2
 568 936 568 936 523.5 848.5 c 0,3,4
 479 761 479 761 479 532 c 0,5,6
 479 303 479 303 524 215 c 0,7,8
 569 127 569 127 678 127 c 0,9,10
 783 127 783 127 831 210 c 0,11,12
 879 293 879 293 879 479 c 2,13,-1
 879 584 l 1,14,-1
 880 936 l 1,0,-1
1233 816 m 1,15,-1
 1233 14 l 2,16,17
 1233 -210 1233 -210 1073.5 -332.5 c 0,18,19
 914 -455 914 -455 623 -455 c 0,20,21
 517 -455 517 -455 408 -438.5 c 0,22,23
 299 -422 299 -422 184 -389 c 1,24,-1
 184 -135 l 1,25,-1
 297 -135 l 1,26,27
 312 -240 312 -240 381.5 -291 c 0,28,29
 451 -342 451 -342 580 -342 c 0,30,31
 744 -342 744 -342 811.5 -263.5 c 0,32,33
 879 -185 879 -185 879 14 c 2,34,-1
 879 135 l 1,35,36
 834 52 834 52 757.5 11.5 c 0,37,38
 681 -29 681 -29 569 -29 c 0,39,40
 343 -29 343 -29 213.5 121 c 0,41,42
 84 271 84 271 84 532 c 0,43,44
 84 761.548 84 761.548 216.5 914 c 0,45,46
 346 1063 346 1063 572 1063 c 2,47,-1
 880 1063 l 1,48,-1
 880 1226 l 2,49,50
 880 1389 880 1389 995.5 1472.5 c 0,51,52
 1111.01 1556 1111.01 1556 1336 1556 c 0,53,54
 1396 1556 1396 1556 1464 1546 c 0,55,56
 1532 1536 1532 1536 1605 1517 c 1,57,-1
 1605 1292 l 1,58,-1
 1492 1292 l 1,59,60
 1490 1372 1490 1372 1460.5 1407.5 c 0,61,62
 1431 1443 1431 1443 1365 1443 c 0,63,64
 1292 1443 1292 1443 1263 1396 c 0,65,66
 1234 1348.91 1234 1348.91 1234 1226 c 2,67,-1
 1234 816 l 1,68,-1
 1233 816 l 1,15,-1
EndSplineSet
EndChar
StartChar: uni0261
Encoding: 609 609 609
Width: 1432
Flags: W
TeX: 0 0 0 0
Fore
572 1063 m 0,25,26
 1384 1063 l 1,30,-1
 1384 942 l 1,31,-1
 1233 942 l 1,0,-1
 1233 14 l 2,1,2
 1233 -210 1233 -210 1073.5 -332.5 c 128,-1,3
 914 -455 914 -455 623 -455 c 0,4,5
 517 -455 517 -455 408 -438.5 c 128,-1,6
 299 -422 299 -422 184 -389 c 1,7,-1
 184 -135 l 1,8,-1
 297 -135 l 1,9,10
 312 -240 312 -240 381.5 -291 c 128,-1,11
 451 -342 451 -342 580 -342 c 0,12,13
 744 -342 744 -342 811.5 -263.5 c 128,-1,14
 879 -185 879 -185 879 14 c 2,15,-1
 879 135 l 1,16,17
 834 52 834 52 757.5 11.5 c 128,-1,18
 681 -29 681 -29 569 -29 c 0,19,20
 343 -29 343 -29 213.5 121 c 128,-1,21
 84 271 84 271 84 532 c 0,22,23
 84 761.548 84 761.548 216.5 914 c 128,-1,24
 346 1063 346 1063 572 1063 c 0,25,26
879 584 m 2,32,33
 880 936 l 129,-1,34
 678 936 l 1,35,36
 568 936 568 936 523.5 848.5 c 128,-1,37
 479 761 479 761 479 532 c 0,38,39
 479 303 479 303 524 215 c 128,-1,40
 569 127 569 127 678 127 c 0,41,42
 783 127 783 127 831 210 c 128,-1,43
 879 293 879 293 879 479 c 2,44,-1
 879 584 l 2,32,33
EndSplineSet
EndChar
StartChar: uni0262
Encoding: 610 610 610
Width: 1283
Flags: W
TeX: 0 0 0 0
Fore
1006 720 m 1,0,1
 983.631 834.618 983.631 834.618 884 919 c 128,-1,2
 811.977 980 811.977 980 735 980 c 0,3,4
 619 980 619 980 544 871 c 128,-1,5
 468 762 468 762 468 527 c 0,6,7
 468 293.58 468 293.58 540 185 c 128,-1,8
 612.941 75 612.941 75 721 75 c 0,9,10
 770 75 770 75 828 115 c 1,12,-1
 829 411 l 1,13,-1
 684 411 l 1,14,-1
 684 495 l 1,15,-1
 1168 495 l 1,16,-1
 1168 98 l 1,17,18
 1051 44 1051 44 935 17 c 128,-1,19
 819 -9 819 -9 698 -9 c 0,20,21
 432 -9 432 -9 280 134 c 128,-1,22
 128 278 128 278 128 527 c 0,23,24
 128 777 128 777 280 920 c 128,-1,25
 432 1064 432 1064 698 1064 c 0,26,27
 809 1064 809 1064 916 1042 c 128,-1,28
 1023 1019 1023 1019 1132 974 c 1,29,-1
 1132 720 l 1,30,-1
 1006 720 l 1,0,1
EndSplineSet
EndChar
StartChar: uni0263
Encoding: 611 611 611
Width: 1458
Flags: W
TeX: 0 0 0 0
Fore
701 305 m 1,0,0
 440 -44.207 440 -44.207 440 -172 c 0,0,0
 440 -299.423 440 -299.423 636 -300 c 0,0,0
 885.496 -301.065 885.496 -301.065 884 -180 c 0,0,0
 880.656 82.4023 880.656 82.4023 701 305 c 1,0,0
640 404 m 0,0,0
 245 942 l 1,22,-1
 126 942 l 1,23,-1
 126 1063 l 1,24,-1
 775 1063 l 1,25,-1
 775 942 l 1,26,-1
 646 942 l 1,27,-1
 835 678 l 1,0,-1
 1023 942 l 1,1,-1
 892 942 l 1,2,-1
 892 1063 l 1,3,-1
 1306 1063 l 1,4,-1
 1306 942 l 1,5,-1
 1165 942 l 1,6,-1
 894 563 l 0,0,0
 1222.31 92.998 1222.31 92.998 1224 -276 c 0,0,0
 1224.86 -445.703 1224.86 -445.703 676 -448 c 0,0,0
 206.478 -450.6 206.478 -450.6 324 -101 c 0,0,0
 395.218 110.856 395.218 110.856 640 404 c 0,0,0
EndSplineSet
EndChar
StartChar: uni0264
Encoding: 612 612 612
Width: 1285
Flags: W
TeX: 0 0 0 0
Fore
784 692 m 1,0,0
 1065.39 1049.76 1065.39 1049.76 1155 1065 c 0,0,0
 1222.53 1076.48 1222.53 1076.48 1239 970 c 1,0,0
 1238 818 l 25,0,0
 1133 818 l 25,0,0
 1133 837 l 26,0,0
 1130.07 922.043 1130.07 922.043 1108 908 c 0,0,0
 1064 880 1064 880 848 588 c 1,0,0
 1166.8 143.177 1166.8 143.177 1075 56 c 16,0,0
 934.904 -77.04 934.904 -77.04 720 -76 c 0,0,0
 406.294 -74.4814 406.294 -74.4814 316 0 c 0,0,0
 208.545 86.8184 208.545 86.8184 566 465 c 1,0,0
 473.062 645.146 473.062 645.146 272 880 c 0,0,0
 198 966.438 198 966.438 198 840 c 26,0,0
 198 818 l 25,0,0
 84 818 l 25,0,0
 84 974 l 17,0,0
 94.5146 1061.5 94.5146 1061.5 294 1064 c 0,0,0
 523.078 1067 523.078 1067 784 692 c 1,0,0
628 348 m 1,0,0
 476.936 197.548 476.936 197.548 476 156 c 0,0,0
 473.378 78.2627 473.378 78.2627 608 76 c 0,0,0
 704.738 74.354 704.738 74.354 728 152 c 0,0,0
 745.497 216.206 745.497 216.206 628 348 c 1,0,0
EndSplineSet
EndChar
StartChar: uni0265
Encoding: 613 613 613
Width: 1489
Flags: W
Fore
1268 1063 m 1,0,-1
 1268 -306 l 1,3,-1
 1426 -306 l 1,4,-1
 1426 -426 l 1,5,-1
 914 -426 l 1,6,-1
 914 150 l 1,7,8
 850 55 850 55 768 13 c 128,-1,9
 686 -29 686 -29 561 -29 c 0,10,11
 382 -29 382 -29 290.5 76.5 c 128,-1,12
 199 182 199 182 199 387 c 2,13,-1
 199 942 l 1,14,-1
 47 942 l 1,15,-1
 47 1063 l 1,16,-1
 682 1063 l 1,17,-1
 682 942 l 1,18,-1
 553 942 l 1,19,-1
 553 377 l 2,20,21
 553 242 553 242 587.5 189.5 c 128,-1,22
 622 137 622 137 707 137 c 0,23,24
 814 137 814 137 864 215.5 c 128,-1,25
 914 294 914 294 914 465 c 2,26,-1
 914 942 l 1,27,-1
 784 942 l 1,28,-1
 784 1063 l 1,29,-1
 1268 1063 l 1,0,-1
EndSplineSet
EndChar
StartChar: uni0266
Encoding: 614 614 614
Width: 1489
Flags: W
Fore
70 0 m 1,0,-1
 70 121 l 1,1,-1
 221 121 l 1,2,-1
 221 1086 l 1,3,-1
 222 1086 l 1,4,-1
 222 1226 l 2,5,6
 222 1389.01 222 1389.01 337.5 1472.5 c 0,7,8
 453.007 1556 453.007 1556 678 1556 c 0,9,10
 738 1556 738 1556 806 1546 c 0,11,12
 874 1536 874 1536 947 1517 c 1,13,-1
 947 1292 l 1,14,-1
 834 1292 l 1,15,16
 832 1372 832 1372 802.5 1407.5 c 0,17,18
 773 1443 773 1443 707 1443 c 0,19,20
 634 1443 634 1443 605 1396 c 0,21,22
 576 1348.91 576 1348.91 576 1226 c 2,23,-1
 576 914.479 l 1,24,25
 639.64 1008.33 639.64 1008.33 721 1050 c 0,26,27
 803 1092 803 1092 928 1092 c 0,28,29
 1107 1092 1107 1092 1198.5 986.5 c 0,30,31
 1290 881 1290 881 1290 676 c 2,32,-1
 1290 121 l 1,33,-1
 1442 121 l 1,34,-1
 1442 0 l 1,35,-1
 807 0 l 1,36,-1
 807 121 l 1,37,-1
 936 121 l 1,38,-1
 936 686 l 2,39,40
 936 821 936 821 901.5 873.5 c 0,41,42
 867 926 867 926 782 926 c 0,43,44
 675 926 675 926 625 847.5 c 0,45,46
 575 769 575 769 575 598 c 2,47,-1
 575 121 l 1,48,-1
 705 121 l 1,49,-1
 705 0 l 1,50,-1
 70 0 l 1,0,-1
EndSplineSet
EndChar
StartChar: uni0267
Encoding: 615 615 615
Width: 1489
Flags: W
Fore
70 0 m 1,0,-1
 70 121 l 1,1,-1
 221 121 l 1,2,-1
 221 1086 l 1,3,-1
 222 1086 l 1,4,-1
 222 1226 l 2,5,6
 222 1389.01 222 1389.01 337.5 1472.5 c 0,7,8
 453.007 1556 453.007 1556 678 1556 c 0,9,10
 738 1556 738 1556 806 1546 c 0,11,12
 874 1536 874 1536 947 1517 c 1,13,-1
 947 1292 l 1,14,-1
 834 1292 l 1,15,16
 832 1372 832 1372 802.5 1407.5 c 0,17,18
 773 1443 773 1443 707 1443 c 0,19,20
 634 1443 634 1443 605 1396 c 0,21,22
 576 1348.91 576 1348.91 576 1226 c 2,23,-1
 576 914.479 l 1,24,25
 639.64 1008.33 639.64 1008.33 721 1050 c 0,26,27
 803 1092 803 1092 928 1092 c 0,28,29
 1107 1092 1107 1092 1198.5 986.5 c 0,30,31
 1290 881 1290 881 1290 676 c 2,32,-1
 1290 285 l 1,33,-1
 1290 121 l 1,34,-1
 1290 0 l 1,35,-1
 1290 -125 l 2,36,37
 1290 -288.003 1290 -288.003 1174.5 -371.5 c 0,38,39
 1059 -455 1059 -455 834 -455 c 0,40,41
 774 -455 774 -455 706 -445 c 0,42,43
 638 -435 638 -435 565 -416 c 1,44,-1
 565 -191 l 1,45,-1
 678 -191 l 1,46,47
 680 -271 680 -271 709.5 -306.5 c 0,48,49
 739 -342 739 -342 805 -342 c 0,50,51
 878 -342 878 -342 907 -295 c 0,52,53
 936 -247.91 936 -247.91 936 -125 c 2,54,-1
 936 0 l 1,55,-1
 936 121 l 1,56,-1
 936 285 l 1,57,-1
 936 686 l 2,58,59
 936 821 936 821 901.5 873.5 c 0,60,61
 867 926 867 926 782 926 c 0,62,63
 675 926 675 926 625 847.5 c 0,64,65
 575 769 575 769 575 598 c 2,66,-1
 575 121 l 1,67,-1
 705 121 l 1,68,-1
 705 0 l 1,69,-1
 70 0 l 1,0,-1
EndSplineSet
EndChar
StartChar: uni0268
Encoding: 616 616 616
Width: 778
Flags: W
Fore
575 121 m 1,0,-1
 727 121 l 1,1,-1
 727 0 l 1,2,-1
 70 0 l 1,3,-1
 70 121 l 1,4,-1
 221 121 l 1,5,-1
 221 479 l 1,6,-1
 70 479 l 1,7,-1
 70 600 l 1,8,-1
 221 600 l 1,9,-1
 221 942 l 1,10,-1
 70 942 l 1,11,-1
 70 1063 l 1,12,-1
 575 1063 l 1,13,-1
 575 600 l 1,14,-1
 727 600 l 1,15,-1
 727 479 l 1,16,-1
 575 479 l 1,17,-1
 575 121 l 1,0,-1
188 1364 m 0,18,19
 188 1445 188 1445 244 1500.5 c 0,20,21
 300 1556 300 1556 381 1556 c 0,22,23
 460 1556 460 1556 515.5 1500.5 c 0,24,25
 571 1445 571 1445 571 1364 c 0,26,27
 571 1285 571 1285 515.5 1229.5 c 0,28,29
 460 1174 460 1174 381 1174 c 0,30,31
 300 1174 300 1174 244 1229 c 0,32,33
 188 1284 188 1284 188 1364 c 0,18,19
EndSplineSet
EndChar
StartChar: uni0269
Encoding: 617 617 617
Width: 778
Flags: W
TeX: 0 0 0 0
Fore
188 1364 m 0,0,1
 188 1445 188 1445 244 1500.5 c 128,-1,2
 300 1556 300 1556 381 1556 c 0,3,4
 460 1556 460 1556 515.5 1500.5 c 128,-1,5
 571 1445 571 1445 571 1364 c 0,6,7
 571 1285 571 1285 515.5 1229.5 c 128,-1,8
 460 1174 460 1174 381 1174 c 0,9,10
 300 1174 300 1174 244 1229 c 128,-1,11
 188 1284 188 1284 188 1364 c 0,0,1
575 121 m 1,12,-1
 727 121 l 1,13,-1
 727 0 l 1,14,-1
 70 0 l 1,15,-1
 70 121 l 1,16,-1
 221 121 l 1,17,-1
 221 942 l 1,18,-1
 70 942 l 1,19,-1
 70 1063 l 1,20,-1
 575 1063 l 1,21,-1
 575 121 l 1,12,-1
EndSplineSet
EndChar
StartChar: uni026A
Encoding: 618 618 618
Width: 778
Flags: W
TeX: 0 0 0 0
Fore
221 942 m 1,18,-1
70 1063 m 1,20,-1
 727 1063 l 1,15,-1
 727 942 l 1,16,-1
 576 942 l 1,21,-1
 575 121 l 1,12,-1
 727 121 l 1,13,-1
 727 0 l 1,14,-1
 70 0 l 1,15,-1
 70 121 l 1,16,-1
 221 121 l 1,17,-1
 221 942 l 1,18,-1
 70 942 l 1,19,-1
 70 1063 l 1,20,-1
EndSplineSet
EndChar
StartChar: uni026B
Encoding: 619 619 619
Width: 837
Flags: W
Fore
613 121 m 1,0,-1
 765 121 l 1,1,-1
 765 0 l 1,2,-1
 108 0 l 1,3,-1
 108 121 l 1,4,-1
 259 121 l 1,5,-1
 259 821.736 l 1,6,7
 222.871 818.959 222.871 818.959 200.5 787 c 0,8,9
 176 752 176 752 176 691 c 1,10,-1
 66 691 l 1,11,-1
 66 707 l 2,12,13
 66 853 66 853 119 928.5 c 0,14,15
 168.032 998.347 168.032 998.347 259 1003.58 c 1,16,-1
 259 1436 l 1,17,-1
 108 1436 l 1,18,-1
 108 1556 l 1,19,-1
 613 1556 l 1,20,-1
 613 876.948 l 1,21,22
 633.1 885.429 633.1 885.429 647.5 906 c 0,23,24
 672 941 672 941 672 1002 c 1,25,-1
 782 1002 l 1,26,-1
 782 986 l 2,27,28
 782 840 782 840 729 764.5 c 0,29,30
 686.646 704.166 686.646 704.166 613 692.046 c 1,31,-1
 613 121 l 1,0,-1
EndSplineSet
EndChar
StartChar: uni026C
Encoding: 620 620 620
Width: 1053
Flags: W
TeX: 0 0 0 0
Fore
826 121 m 1,0,-1
 978 121 l 1,1,-1
 978 0 l 1,2,-1
 321 0 l 1,3,-1
 321 121 l 1,4,-1
 472 121 l 1,5,-1
 472 657 l 1,6,-1
 315 657 l 2,7,8
 66 659.742 66 659.742 66 831 c 0,9,10
 66 1082 66 1082 357 1082 c 0,11,12
 422.603 1082 422.603 1082 472 1069.6 c 1,13,-1
 472 1436 l 1,14,-1
 321 1436 l 1,15,-1
 321 1556 l 1,16,-1
 826 1556 l 1,17,-1
 826 777 l 1,18,-1
 998 777 l 1,19,-1
 998 657 l 1,20,-1
 826 657 l 1,21,-1
 826 121 l 1,0,-1
472 917.535 m 2,22,23
 461.955 991.235 461.955 991.235 351 978 c 0,24,25
 213 961.537 213 961.537 213 867 c 0,26,27
 213 770.746 213 770.746 327 777 c 2,28,-1
 472 777 l 1,29,-1
 472 917.535 l 2,22,23
EndSplineSet
EndChar
StartChar: uni026D
Encoding: 621 621 621
Width: 778
Flags: W
Fore
222 -1.38778e-15 m 1,0,-1
 221 0 l 1,1,-1
 221 1436 l 1,2,-1
 70 1436 l 1,3,-1
 70 1556 l 1,4,-1
 575 1556 l 1,5,-1
 576 285 l 1,6,-1
 576 -125 l 2,7,8
 576 -247.91 576 -247.91 605 -295 c 0,9,10
 634 -342 634 -342 707 -342 c 0,11,12
 773 -342 773 -342 802.5 -306.5 c 0,13,14
 832 -271 832 -271 834 -191 c 1,15,-1
 947 -191 l 1,16,-1
 947 -416 l 1,17,18
 874 -435 874 -435 806 -445 c 0,19,20
 738 -455 738 -455 678 -455 c 0,21,22
 453.004 -455 453.004 -455 337.5 -371.5 c 0,23,24
 222 -288.003 222 -288.003 222 -125 c 2,25,-1
 222 -1.38778e-15 l 1,0,-1
EndSplineSet
EndChar
StartChar: uni026E
Encoding: 622 622 622
Width: 1629
Flags: W
TeX: 0 0 0 0
Fore
1196.25 452.25 m 1,0,1
 1416.54 431.319 1416.54 431.319 1528 347 c 0,2,3
 1688 225.849 1688 225.849 1688 16 c 0,4,5
 1688 -193 1688 -193 1522.5 -304.5 c 0,6,7
 1357 -416 1357 -416 1043 -416 c 0,8,9
 925.004 -416 925.004 -416 799.5 -396 c 0,10,11
 674 -376 674 -376 537 -336 c 1,12,-1
 537 -8 l 1,13,-1
 658 -8 l 1,14,15
 668.999 -149.999 668.999 -149.999 747 -224.5 c 0,16,17
 825 -299 825 -299 963 -299 c 0,18,19
 1115 -299 1115 -299 1198 -214.5 c 0,20,21
 1281 -130 1281 -130 1281 25 c 0,22,23
 1281 187 1281 187 1194.5 275 c 0,24,25
 1108 363 1108 363 949 363 c 2,26,-1
 883 363 l 1,27,-1
 883 587.5 l 1,28,-1
 1148 946 l 1,29,-1
 689 946 l 1,30,-1
 689 764 l 1,31,-1
 575 764 l 1,32,-1
 575 121 l 1,33,-1
 727 121 l 1,34,-1
 727 0 l 1,35,-1
 70 0 l 1,36,-1
 70 121 l 1,37,-1
 221 121 l 1,38,-1
 221 1436 l 1,39,-1
 70 1436 l 1,40,-1
 70 1556 l 1,41,-1
 575 1556 l 1,42,-1
 575 1063 l 1,43,-1
 1560 1063 l 1,44,-1
 1560 944 l 1,45,-1
 1196.25 452.25 l 1,0,1
EndSplineSet
EndChar
StartChar: uni026F
Encoding: 623 623 623
Width: 2167
Flags: W
Fore
924 174 m 1,0,1
 850 68 850 68 764 19.5 c 128,-1,2
 678 -29 678 -29 563 -29 c 0,3,4
 380 -29 380 -29 289.5 74.5 c 128,-1,5
 199 178 199 178 199 387 c 2,6,-1
 199 942 l 1,7,-1
 47 942 l 1,8,-1
 47 1063 l 1,9,-1
 680 1063 l 1,10,-1
 680 942 l 1,11,-1
 553 942 l 1,12,-1
 553 440 l 2,13,14
 553 241 553 241 583.5 189 c 128,-1,15
 614 137 614 137 697 137 c 0,16,17
 791 137 791 137 843 209.5 c 128,-1,18
 895 282 895 282 895 416 c 2,19,-1
 895 942 l 1,20,-1
 768 942 l 1,21,-1
 768 1063 l 1,22,-1
 1376 1063 l 1,23,-1
 1376 942 l 1,24,-1
 1249 942 l 1,25,-1
 1249 440 l 2,26,27
 1249 241 1249 241 1280 189 c 128,-1,28
 1311 137 1311 137 1393 137 c 0,29,30
 1488 137 1488 137 1540 209.5 c 128,-1,31
 1592 282 1592 282 1592 416 c 2,32,-1
 1592 942 l 1,33,-1
 1465 942 l 1,34,-1
 1465 1063 l 1,35,-1
 2097 1063 l 1,36,-1
 2097 942 l 1,37,-1
 1946 942 l 1,38,-1
 1946 121 l 1,39,-1
 2097 121 l 1,40,-1
 2097 0 l 1,41,-1
 1592 0 l 1,42,-1
 1592 150 l 1,43,44
 1530 57 1530 57 1450 14 c 128,-1,45
 1370 -29 1370 -29 1260 -29 c 0,46,47
 1130 -29 1130 -29 1049 20.5 c 128,-1,48
 968 70 968 70 924 174 c 1,0,1
EndSplineSet
EndChar
StartChar: uni0270
Encoding: 624 624 624
Width: 2167
Flags: W
Fore
924 174 m 1,0,1
 850 68 850 68 764 19.5 c 128,-1,2
 678 -29 678 -29 563 -29 c 0,3,4
 380 -29 380 -29 289.5 74.5 c 128,-1,5
 199 178 199 178 199 387 c 2,6,-1
 199 942 l 1,7,-1
 47 942 l 1,8,-1
 47 1063 l 1,9,-1
 680 1063 l 1,10,-1
 680 942 l 1,11,-1
 553 942 l 1,12,-1
 553 440 l 2,13,14
 553 241 553 241 583.5 189 c 128,-1,15
 614 137 614 137 697 137 c 0,16,17
 791 137 791 137 843 209.5 c 128,-1,18
 895 282 895 282 895 416 c 2,19,-1
 895 942 l 1,20,-1
 768 942 l 1,21,-1
 768 1063 l 1,22,-1
 1376 1063 l 1,23,-1
 1376 942 l 1,24,-1
 1249 942 l 1,25,-1
 1249 440 l 2,26,27
 1249 241 1249 241 1280 189 c 128,-1,28
 1311 137 1311 137 1393 137 c 0,29,30
 1488 137 1488 137 1540 209.5 c 128,-1,31
 1592 282 1592 282 1592 416 c 2,32,-1
 1592 942 l 1,33,-1
 1465 942 l 1,34,-1
 1465 1063 l 1,35,-1
 2097 1063 l 1,36,-1
 2097 942 l 1,37,-1
 1946 942 l 1,38,-1
 1946 -305 l 1,39,-1
 2097 -305 l 1,40,-1
 2097 -426 l 1,41,-1
 1592 -426 l 1,42,-1
 1592 150 l 1,43,44
 1530 57 1530 57 1450 14 c 128,-1,45
 1370 -29 1370 -29 1260 -29 c 0,46,47
 1130 -29 1130 -29 1049 20.5 c 128,-1,48
 968 70 968 70 924 174 c 1,0,1
EndSplineSet
EndChar
StartChar: uni0271
Encoding: 625 625 625
Width: 2167
Flags: W
Fore
1243 889 m 1,0,1
 1317 995 1317 995 1403 1043.5 c 0,2,3
 1489 1092 1489 1092 1604 1092 c 0,4,5
 1787 1092 1787 1092 1877.5 988.5 c 0,6,7
 1968 885 1968 885 1968 676 c 2,8,-1
 1968 285 l 1,9,-1
 1968 0 l 1,10,-1
 1968 -125 l 2,11,12
 1968 -288.003 1968 -288.003 1852.5 -371.5 c 0,13,14
 1737 -455 1737 -455 1512 -455 c 0,15,16
 1452 -455 1452 -455 1384 -445 c 0,17,18
 1316 -435 1316 -435 1243 -416 c 1,19,-1
 1243 -191 l 1,20,-1
 1356 -191 l 1,21,22
 1358 -271 1358 -271 1387.5 -306.5 c 0,23,24
 1417 -342 1417 -342 1483 -342 c 0,25,26
 1556 -342 1556 -342 1585 -295 c 0,27,28
 1614 -247.91 1614 -247.91 1614 -125 c 2,29,-1
 1614 0 l 1,30,-1
 1614 285 l 1,31,-1
 1614 623 l 2,32,33
 1614 822 1614 822 1583.5 874 c 0,34,35
 1553 926 1553 926 1470 926 c 0,36,37
 1376 926 1376 926 1324 853.5 c 0,38,39
 1272 781 1272 781 1272 647 c 2,40,-1
 1272 121 l 1,41,-1
 1399 121 l 1,42,-1
 1399 0 l 1,43,-1
 791 0 l 1,44,-1
 791 121 l 1,45,-1
 918 121 l 1,46,-1
 918 623 l 2,47,48
 918 822 918 822 887 874 c 0,49,50
 856 926 856 926 774 926 c 0,51,52
 679 926 679 926 627 853.5 c 0,53,54
 575 781 575 781 575 647 c 2,55,-1
 575 121 l 1,56,-1
 702 121 l 1,57,-1
 702 0 l 1,58,-1
 70 0 l 1,59,-1
 70 121 l 1,60,-1
 221 121 l 1,61,-1
 221 942 l 1,62,-1
 70 942 l 1,63,-1
 70 1063 l 1,64,-1
 575 1063 l 1,65,-1
 575 913 l 1,66,67
 637 1006 637 1006 717 1049 c 0,68,69
 797 1092 797 1092 907 1092 c 0,70,71
 1037 1092 1037 1092 1118 1042.5 c 0,72,73
 1199 993 1199 993 1243 889 c 1,0,1
EndSplineSet
EndChar
StartChar: uni0272
Encoding: 626 626 626
Width: 1489
Flags: W
Fore
221 942 m 1,0,-1
 70 942 l 1,1,-1
 70 1063 l 1,2,-1
 575 1063 l 1,3,-1
 575 913 l 1,4,5
 639 1008 639 1008 721 1050 c 0,6,7
 803 1092 803 1092 928 1092 c 0,8,9
 1107 1092 1107 1092 1198.5 986.5 c 0,10,11
 1290 881 1290 881 1290 676 c 2,12,-1
 1290 121 l 1,13,-1
 1442 121 l 1,14,-1
 1442 0 l 1,15,-1
 807 0 l 1,16,-1
 807 121 l 1,17,-1
 936 121 l 1,18,-1
 936 686 l 2,19,20
 936 821 936 821 901.5 873.5 c 0,21,22
 867 926 867 926 782 926 c 0,23,24
 675 926 675 926 625 847.5 c 0,25,26
 575 769 575 769 575 598 c 2,27,-1
 575 0 l 1,28,-1
 574 9.99201e-15 l 1,29,-1
 574 -125 l 2,30,31
 574 -288.003 574 -288.003 458.5 -371.5 c 0,32,33
 342.996 -455 342.996 -455 118 -455 c 0,34,35
 58 -455 58 -455 -10 -445 c 0,36,37
 -78 -435 -78 -435 -151 -416 c 1,38,-1
 -151 -191 l 1,39,-1
 -38 -191 l 1,40,41
 -36 -271 -36 -271 -6.5 -306.5 c 0,42,43
 23 -342 23 -342 89 -342 c 0,44,45
 162 -342 162 -342 191 -295 c 0,46,47
 220 -247.91 220 -247.91 220 -125 c 2,48,-1
 220 285 l 1,49,-1
 221 942 l 1,0,-1
EndSplineSet
EndChar
StartChar: uni0273
Encoding: 627 627 627
Width: 1489
Flags: W
Fore
70 0 m 1,0,-1
 70 121 l 1,1,-1
 221 121 l 1,2,-1
 221 942 l 1,3,-1
 70 942 l 1,4,-1
 70 1063 l 1,5,-1
 575 1063 l 1,6,-1
 575 913 l 1,7,8
 639 1008 639 1008 721 1050 c 0,9,10
 803 1092 803 1092 928 1092 c 0,11,12
 1107 1092 1107 1092 1198.5 986.5 c 0,13,14
 1290 881 1290 881 1290 676 c 2,15,-1
 1290 0 l 1,16,-1
 1288 9.99201e-15 l 1,17,-1
 1288 -125 l 2,18,19
 1288 -247.91 1288 -247.91 1317 -295 c 0,20,21
 1346 -342 1346 -342 1419 -342 c 0,22,23
 1485 -342 1485 -342 1514.5 -306.5 c 0,24,25
 1544 -271 1544 -271 1546 -191 c 1,26,-1
 1659 -191 l 1,27,-1
 1659 -416 l 1,28,29
 1586 -435 1586 -435 1518 -445 c 0,30,31
 1450 -455 1450 -455 1390 -455 c 0,32,33
 1165 -455 1165 -455 1049.5 -371.5 c 0,34,35
 934 -288.003 934 -288.003 934 -125 c 2,36,37
 934.12 234.626 l 2,38,39
 934.81 261.108 934.81 261.108 936 285 c 2,40,-1
 936 686 l 2,41,42
 936 821 936 821 901.5 873.5 c 0,43,44
 867 926 867 926 782 926 c 0,45,46
 675 926 675 926 625 847.5 c 0,47,48
 575 769 575 769 575 598 c 2,49,-1
 575 121 l 1,50,-1
 705 121 l 1,51,-1
 705 0 l 1,52,-1
 70 0 l 1,0,-1
EndSplineSet
EndChar
StartChar: uni0274
Encoding: 628 628 628
Width: 1459
Flags: W
TeX: 0 0 0 0
Fore
128 0 m 1,0,-1
 128 122 l 1,1,-1
 265 122 l 1,2,-1
 265 942 l 1,3,-1
 128 942 l 1,4,-1
 128 1067 l 1,5,-1
 462 1067 l 1,6,-1
 1073 443 l 1,7,-1
 1073 942 l 1,8,-1
 970 942 l 1,9,-1
 970 1067 l 1,10,-1
 1344 1067 l 1,11,-1
 1344 942 l 1,12,-1
 1207 942 l 1,13,-1
 1207 0 l 1,14,-1
 1020 0 l 1,15,-1
 398 639 l 1,16,-1
 398 122 l 1,17,-1
 501 122 l 1,18,-1
 501 0 l 1,19,-1
 128 0 l 1,0,-1
EndSplineSet
EndChar
StartChar: uni0275
Encoding: 629 629 629
Width: 1366
Flags: W
Fore
684 -29 m 0,0,1
 403 -29 403 -29 243.5 120.5 c 0,2,3
 84 270 84 270 84 532 c 0,4,5
 84 795 84 795 243.5 943.5 c 0,6,7
 403 1092 403 1092 684 1092 c 0,8,9
 966 1092 966 1092 1125 943.5 c 0,10,11
 1284 795 1284 795 1284 532 c 0,12,13
 1284 270 1284 270 1124.5 120.5 c 0,14,15
 965 -29 965 -29 684 -29 c 0,0,1
684 84 m 0,16,17
 796 84 796 84 841.5 180 c 0,18,19
 882.127 265.718 882.127 265.718 886.478 479 c 1,20,-1
 479.536 479 l 1,21,22
 483.965 267.531 483.965 267.531 525 181 c 0,23,24
 571 84 571 84 684 84 c 0,16,17
479.901 600 m 1,25,-1
 886.132 600 l 1,26,27
 880.751 801.261 880.751 801.261 842 883.5 c 0,28,29
 797 979 797 979 684 979 c 0,30,31
 571 979 571 979 525 882.5 c 0,32,33
 485.437 799.503 485.437 799.503 479.901 600 c 1,25,-1
EndSplineSet
EndChar
StartChar: uni0276
Encoding: 630 630 630
Width: 2173
Flags: W
TeX: 0 0 0 0
Fore
1028 86.5146 m 1,0,-1
 1028 980.98 l 1,1,-1
 901 980.98 l 2,2,3
 817.351 980.98 817.351 980.98 734 924 c 128,-1,4
 548 796.847 548 796.847 548 534.82 c 0,5,6
 548 290.392 548 290.392 722 144 c 128,-1,7
 790.326 86.5146 790.326 86.5146 901 86.5146 c 2,8,-1
 1028 86.5146 l 1,0,-1
2058 0 m 1,9,-1
 1033 0 l 2,10,11
 826 0 826 0 690.5 18.5898 c 128,-1,12
 555 37.1797 555 37.1797 454 77.9346 c 1,13,14
 297 139.425 297 139.425 212.5 258.115 c 128,-1,15
 128 376.805 128 376.805 128 534.82 c 0,16,17
 128 692.12 128 692.12 212.5 809.737 c 128,-1,18
 297 927.355 297 927.355 454 989.56 c 1,19,20
 554 1031.03 554 1031.03 688 1049.26 c 128,-1,21
 822.003 1067.5 822.003 1067.5 1033 1067.5 c 2,22,-1
 2040 1067.5 l 1,23,-1
 2040 815.814 l 1,24,-1
 1903 815.814 l 1,25,-1
 1903 969.54 l 1,26,-1
 1415 969.54 l 1,27,-1
 1415 627.055 l 1,28,-1
 1665 627.055 l 1,29,-1
 1665 762.905 l 1,30,-1
 1802 762.905 l 1,31,-1
 1802 393.965 l 1,32,-1
 1665 393.965 l 1,33,-1
 1665 529.815 l 1,34,-1
 1415 529.815 l 1,35,-1
 1415 97.9551 l 1,36,-1
 1921 97.9551 l 1,37,-1
 1921 251.68 l 1,38,-1
 2058 251.68 l 1,39,-1
 2058 0 l 1,9,-1
EndSplineSet
EndChar
StartChar: uni0277
Encoding: 631 631 631
Width: 1534
Flags: W
TeX: 0 0 0 0
Fore
886.225 529 m 17,0,0
 886.225 489 l 2,32,33
 886.225 369 886.225 369 925.324 263 c 128,-1,34
 996.625 66 996.625 66 1027.1 66 c 0,35,36
 1118.2 65.9951 1118.2 65.9951 1116.1 430 c 0,3,4
 1115.1 603 1115.1 603 1060.1 772 c 1,0,0
 968.1 969 968.1 969 761.1 973 c 0,0,0
 561.1 977 561.1 977 465.1 772 c 1,0,0
 410.1 603 410.1 603 409.1 430 c 0,3,4
 409.1 66 409.1 66 498.1 66 c 0,35,36
 527.209 66 527.209 66 599.875 263 c 128,-1,34
 638.975 369 638.975 369 638.975 489 c 2,32,33
 638.975 529 l 1,31,-1
 886.225 529 l 17,0,0
760.8 272 m 1,9,10
 732 130 732 130 646.8 50 c 128,-1,8
 561.6 -29 561.6 -29 438 -29 c 0,6,7
 268.8 -29 268.8 -29 176.399 83 c 128,-1,5
 84 194 84 194 84 400 c 0,3,4
 84 479 84 479 106.8 560 c 128,-1,2
 135.6 666 135.6 666 172.8 727 c 0,0,0
 391.199 1085 391.199 1085 760.8 1085 c 0,0,0
 1134 1085 1134 1085 1352.4 727 c 0,0,0
 1389.6 666 1389.6 666 1418.4 560 c 128,-1,2
 1441.2 479 1441.2 479 1441.2 400 c 0,3,4
 1441.2 194 1441.2 194 1348.8 83 c 128,-1,5
 1256.4 -29 1256.4 -29 1087.2 -29 c 0,6,7
 963.6 -29 963.6 -29 878.399 50 c 128,-1,8
 793.199 130 793.199 130 760.8 272 c 1,9,10
EndSplineSet
EndChar
StartChar: uni0278
Encoding: 632 632 632
Width: 1366
Flags: W
TeX: 0 0 0 0
Fore
351 1556 m 1,0,-1
 1008 1556 l 1,1,-1
 1008 1435 l 1,2,-1
 812.625 1435 l 1,3,-1
 812.475 1085.61 l 1,4,5
 1046.24 1061.19 1046.24 1061.19 1191.15 943.5 c 0,6,7
 1374 795 1374 795 1374 532 c 0,8,9
 1374 270 1374 270 1190.58 120.5 c 0,10,11
 1045.18 1.99812 1045.18 1.99812 812 -22.5727 c 1,12,-1
 811.875 -315 l 1,13,-1
 1008 -315 l 1,14,-1
 1008 -436 l 1,15,-1
 351 -436 l 1,16,-1
 351 -315 l 1,17,-1
 546.375 -315 l 1,18,-1
 546.375 -21.5142 l 1,19,20
 319.805 4.4533 319.805 4.4533 177.425 120.5 c 0,21,22
 -6 270 -6 270 -6 532 c 0,23,24
 -6 795 -6 795 177.425 943.5 c 0,25,26
 319.805 1058.77 319.805 1058.77 546.375 1084.56 c 1,27,-1
 546.375 1435 l 1,28,-1
 351 1435 l 1,29,-1
 351 1556 l 1,0,-1
546.375 113.457 m 1,30,-1
 546.375 949.695 l 1,31,32
 501.206 925.822 501.206 925.822 473.896 882.5 c 0,33,34
 413.06 785.998 413.06 785.998 413.06 532 c 0,35,36
 413.06 278.002 413.06 278.002 473.896 181 c 0,37,38
 501.206 137.454 501.206 137.454 546.375 113.457 c 1,30,-1
812.419 954.532 m 1,39,-1
 812.057 108.817 l 1,40,41
 862.886 132.81 862.886 132.81 892.466 180 c 0,42,43
 952.64 276 952.64 276 952.641 532 c 0,44,45
 952.641 788 952.641 788 893.128 883.5 c 0,46,47
 863.739 930.661 863.739 930.661 812.419 954.532 c 1,39,-1
EndSplineSet
EndChar
StartChar: uni0279
Encoding: 633 633 633
Width: 1170
Flags: W
Fore
59 -12 m 1,0,-1
 59 305 l 1,1,-1
 172 305 l 1,2,3
 178 220 178 220 218 178.5 c 128,-1,4
 258 137 258 137 334 137 c 0,5,6
 450 137 450 137 517 239 c 128,-1,7
 584 341 584 341 584 522 c 2,8,-1
 584 942 l 1,9,-1
 391 942 l 1,10,-1
 391 1063 l 1,11,-1
 1089 1063 l 1,12,-1
 1089 942 l 1,13,-1
 938 942 l 1,14,-1
 938 121 l 1,15,-1
 1100 121 l 1,16,-1
 1100 0 l 1,17,-1
 584 0 l 1,18,-1
 584 189 l 1,19,20
 532 78 532 78 446.5 24.5 c 128,-1,21
 361 -29 361 -29 237 -29 c 0,22,23
 206 -29 206 -29 161.5 -24.5 c 128,-1,24
 117 -20 117 -20 59 -12 c 1,0,-1
EndSplineSet
EndChar
StartChar: uni027A
Encoding: 634 634 634
Width: 1170
Flags: W
Fore
59 -12 m 1,0,-1
 59 305 l 1,1,-1
 172 305 l 1,2,3
 178 220 178 220 218 178.5 c 128,-1,4
 258 137 258 137 334 137 c 0,5,6
 450 137 450 137 517 239 c 128,-1,7
 584 343.047 584 343.047 584 522 c 2,8,-1
 584 1436 l 1,9,-1
 391 1436 l 1,10,-1
 391 1557 l 1,11,-1
 1089 1557 l 1,12,-1
 1089 1436 l 1,13,-1
 938 1436 l 1,14,-1
 938 121 l 1,15,-1
 1100 121 l 1,16,-1
 1100 0 l 1,17,-1
 584 0 l 1,18,-1
 584 189 l 1,19,20
 532 78 532 78 446.5 24.5 c 128,-1,21
 361 -29 361 -29 237 -29 c 0,22,23
 206 -29 206 -29 161.5 -24.5 c 128,-1,24
 117 -20 117 -20 59 -12 c 1,0,-1
EndSplineSet
EndChar
StartChar: uni027B
Encoding: 635 635 635
Width: 1170
Flags: W
Fore
59 -12 m 1,0,-1
 59 305 l 1,1,-1
 172 305 l 1,2,3
 178 220 178 220 218 178.5 c 0,4,5
 258 137 258 137 334 137 c 0,6,7
 450 137 450 137 517 239 c 0,8,9
 584 341 584 341 584 522 c 2,10,-1
 584 942 l 1,11,-1
 391 942 l 1,12,-1
 391 1063 l 1,13,-1
 1089 1063 l 1,14,-1
 1089 942 l 1,15,-1
 938 942 l 1,16,-1
 939 -125 l 2,17,18
 939 -247.91 939 -247.91 968 -295 c 0,19,20
 997 -342 997 -342 1070 -342 c 0,21,22
 1136 -342 1136 -342 1165.5 -306.5 c 0,23,24
 1195 -271 1195 -271 1197 -191 c 1,25,-1
 1310 -191 l 1,26,-1
 1310 -416 l 1,27,28
 1237 -435 1237 -435 1169 -445 c 0,29,30
 1101 -455 1101 -455 1041 -455 c 0,31,32
 816.004 -455 816.004 -455 700.5 -371.5 c 0,33,34
 585 -288.003 585 -288.003 585 -125 c 2,35,-1
 585 -1.38778e-15 l 1,36,-1
 584 0 l 1,37,-1
 584 189 l 1,38,39
 532 78 532 78 446.5 24.5 c 0,40,41
 361 -29 361 -29 237 -29 c 0,42,43
 206 -29 206 -29 161.5 -24.5 c 0,44,45
 117 -20 117 -20 59 -12 c 1,0,-1
EndSplineSet
EndChar
StartChar: uni027C
Encoding: 636 636 636
Width: 1079
Flags: W
Fore
1100 1075 m 1,0,-1
 1100 758 l 1,1,-1
 987 758 l 1,2,3
 981 843 981 843 941 884.5 c 128,-1,4
 901 926 901 926 825 926 c 0,5,6
 709 926 709 926 642 824 c 128,-1,7
 575 719.953 575 719.953 575 541 c 2,8,-1
 575 -303 l 1,9,-1
 768 -303 l 1,10,-1
 768 -424 l 1,11,-1
 70 -424 l 1,12,-1
 70 -303 l 1,13,-1
 221 -303 l 1,14,-1
 221 942 l 1,15,-1
 59 942 l 1,16,-1
 59 1063 l 1,17,-1
 575 1063 l 1,18,-1
 575 874 l 1,19,20
 627 985 627 985 712.5 1038.5 c 128,-1,21
 798 1092 798 1092 922 1092 c 0,22,23
 953 1092 953 1092 997.5 1087.5 c 128,-1,24
 1042 1083 1042 1083 1100 1075 c 1,0,-1
EndSplineSet
EndChar
StartChar: uni027D
Encoding: 637 637 637
Width: 1079
Flags: W
Fore
1100 1075 m 1,0,-1
 1100 758 l 1,1,-1
 987 758 l 1,2,3
 981 843 981 843 941 884.5 c 0,4,5
 901 926 901 926 825 926 c 0,6,7
 709 926 709 926 642 824 c 0,8,9
 575 722 575 722 575 541 c 2,10,-1
 575 0 l 1,11,-1
 575 -125 l 2,12,13
 575 -247.91 575 -247.91 604 -295 c 0,14,15
 633 -342 633 -342 706 -342 c 0,16,17
 772 -342 772 -342 801.5 -306.5 c 0,18,19
 831 -271 831 -271 833 -191 c 1,20,-1
 946 -191 l 1,21,-1
 946 -416 l 1,22,23
 873 -435 873 -435 805 -445 c 0,24,25
 737 -455 737 -455 677 -455 c 0,26,27
 452.004 -455 452.004 -455 336.5 -371.5 c 0,28,29
 221 -288.003 221 -288.003 221 -125 c 2,30,-1
 221 0 l 1,31,-1
 221 942 l 1,32,-1
 59 942 l 1,33,-1
 59 1063 l 1,34,-1
 575 1063 l 1,35,-1
 575 874 l 1,36,37
 627 985 627 985 712.5 1038.5 c 0,38,39
 798 1092 798 1092 922 1092 c 0,40,41
 953 1092 953 1092 997.5 1087.5 c 0,42,43
 1042 1083 1042 1083 1100 1075 c 1,0,-1
EndSplineSet
EndChar
StartChar: uni027E
Encoding: 638 638 638
Width: 925
Flags: W
Fore
575 121 m 17,20,21
 768 121 l 1,10,-1
 768 0 l 1,11,-1
 70 0 l 1,12,-1
 70 121 l 1,13,-1
 221 121 l 9,0,0
 221 762 l 2,16,17
 221 925.01 221 925.01 336.5 1008.5 c 128,-1,18
 452 1092 452 1092 677 1092 c 0,19,20
 737 1092 737 1092 805 1082 c 128,-1,21
 873 1072 873 1072 946 1053 c 1,22,-1
 946 828 l 1,23,-1
 833 828 l 1,24,25
 831 908 831 908 801.5 943.5 c 128,-1,26
 772 979 772 979 706 979 c 0,27,28
 633 979 633 979 604 932 c 128,-1,29
 575 882.832 575 882.832 575 762 c 2,30,-1
 575 121 l 17,20,21
EndSplineSet
EndChar
StartChar: uni027F
Encoding: 639 639 639
Width: 997
Flags: W
Fore
441 121 m 17,20,21
 248 121 l 1,10,-1
 248 0 l 1,11,-1
 946 0 l 1,12,-1
 946 121 l 1,13,-1
 795 121 l 9,0,0
 795 762 l 2,16,17
 795 925.01 795 925.01 679.5 1008.5 c 128,-1,18
 564 1092 564 1092 339 1092 c 0,19,20
 279 1092 279 1092 211 1082 c 128,-1,21
 143 1072 143 1072 70 1053 c 1,22,-1
 70 828 l 1,23,-1
 183 828 l 1,24,25
 185 908 185 908 214.5 943.5 c 128,-1,26
 244 979 244 979 310 979 c 0,27,28
 383 979 383 979 412 932 c 128,-1,29
 441 882.832 441 882.832 441 762 c 2,30,-1
 441 121 l 17,20,21
EndSplineSet
EndChar
StartChar: uni0280
Encoding: 640 640 640
Width: 1640
Flags: W
Fore
983 519 m 1,0,1
 1065.5 510 1065.5 510 1121 477 c 0,2,3
 1177.46 444.314 1177.46 444.314 1219 382 c 1,4,-1
 1384 86 l 1,5,-1
 1525 86 l 1,6,-1
 1525 0 l 1,7,-1
 1072 0 l 1,8,-1
 889 321 l 1,9,10
 830.756 411.753 830.756 411.753 818.106 426.132 c 0,11,12
 805.426 440.544 805.426 440.544 793 448 c 0,13,14
 758.941 469.14 758.941 469.14 745.433 472.297 c 0,15,16
 729.591 476 729.591 476 703 476 c 2,17,-1
 647 476 l 1,18,-1
 647 86 l 1,19,-1
 824 86 l 1,20,-1
 824 0 l 1,21,-1
 128 0 l 1,22,-1
 128 86 l 1,23,-1
 304 86 l 1,24,-1
 304 977 l 1,25,-1
 128 977 l 1,26,-1
 128 1063 l 1,27,-1
 855 1063 l 2,28,29
 1036.18 1063 1036.18 1063 1149.95 1009.71 c 0,30,31
 1169.5 1000.55 1169.5 1000.55 1190 989 c 0,32,33
 1321 913.713 1321 913.713 1321 777 c 0,34,35
 1321 666.5 1321 666.5 1228 602 c 0,36,37
 1148.58 546.919 1148.58 546.919 1056.65 529.256 c 0,38,39
 1023.51 522.889 1023.51 522.889 983 519 c 1,0,1
647 561 m 1,28,-1
 768 561 l 2,29,30
 841.851 561 841.851 561 882.389 587.262 c 1,31,32
 920 615 l 1,33,34
 989 669 989 669 989 770 c 0,35,36
 989 870.5 989 870.5 920 923 c 0,37,38
 872.755 959.188 872.755 959.188 849.001 967.125 c 0,39,40
 819.45 977 819.45 977 768 977 c 2,41,-1
 647 977 l 1,42,-1
 647 561 l 1,28,-1
EndSplineSet
EndChar
StartChar: uni0281
Encoding: 641 641 641
Width: 1640
Flags: W
Fore
983 544 m 1,0,1
 1023.51 540.111 1023.51 540.111 1056.65 533.744 c 0,38,39
 1148.58 516.081 1148.58 516.081 1228 461 c 0,36,37
 1321 396.5 1321 396.5 1321 286 c 0,34,35
 1321 149.287 1321 149.287 1190 74 c 0,32,33
 1169.5 62.4502 1169.5 62.4502 1149.95 53.29 c 0,30,31
 1036.18 0 1036.18 0 855 0 c 2,28,29
 128 0 l 1,27,-1
 128 86 l 1,26,-1
 304 86 l 1,25,-1
 304 977 l 1,24,-1
 128 977 l 1,23,-1
 128 1063 l 1,22,-1
 824 1063 l 1,21,-1
 824 977 l 1,20,-1
 647 977 l 1,19,-1
 647 587 l 1,18,-1
 703 587 l 2,17,-1
 729.591 587 729.591 587 745.433 590.703 c 0,15,16
 758.941 593.86 758.941 593.86 793 615 c 0,13,14
 805.426 622.456 805.426 622.456 818.106 636.868 c 0,11,12
 830.756 651.247 830.756 651.247 889 742 c 1,9,10
 1072 1063 l 1,8,-1
 1525 1063 l 1,7,-1
 1525 977 l 1,6,-1
 1384 977 l 1,5,-1
 1219 681 l 1,4,-1
 1177.46 618.686 1177.46 618.686 1121 586 c 0,2,3
 1065.5 553 1065.5 553 983 544 c 1,0,1
647 502 m 1,28,-1
 647 86 l 1,42,-1
 768 86 l 2,41,-1
 819.45 86 819.45 86 849.001 95.875 c 0,39,40
 872.755 103.812 872.755 103.812 920 140 c 0,37,38
 989 192.5 989 192.5 989 293 c 0,35,36
 989 394 989 394 920 448 c 1,33,34
 882.389 475.738 l 1,31,32
 841.851 502 841.851 502 768 502 c 2,29,30
 647 502 l 1,28,-1
EndSplineSet
EndChar
StartChar: uni0282
Encoding: 642 642 642
Width: 1153
Flags: W
TeX: 0 0 0 0
Fore
96 31 m 1,0,-1
 96 285 l 1,1,-1
 96 328 l 1,2,-1
 209 328 l 1,3,4
 223 209 223 209 298 146.5 c 0,5,6
 373 84 373 84 502 84 c 0,7,8
 610 84 610 84 667.5 121.5 c 0,9,10
 725 159 725 159 725 229 c 0,11,12
 725 293 725 293 688.5 328 c 0,13,14
 652 363 652 363 547 389 c 2,15,-1
 401 426 l 2,16,17
 234.956 468.08 234.956 468.08 162 543.5 c 0,18,19
 88 620 88 620 88 750 c 0,20,21
 88 923 88 923 208 1007.5 c 0,22,23
 328 1092 328 1092 578 1092 c 0,24,25
 672 1092 672 1092 778.5 1076.5 c 0,26,27
 885 1061 885 1061 1014 1028 c 1,28,-1
 1014 760 l 1,29,-1
 901 760 l 1,30,31
 892 869 892 869 823.5 924 c 0,32,33
 755 979 755 979 627 979 c 0,34,35
 519 979 519 979 463.5 944.5 c 0,36,37
 408 910 408 910 408 844 c 0,38,39
 408 790 408 790 440 759 c 0,40,41
 471.749 728.243 471.749 728.243 555 707 c 2,42,-1
 700 670 l 2,43,44
 909.46 616.552 909.46 616.552 989 539 c 0,45,46
 1069 461 1069 461 1069 322 c 0,47,48
 1069 142 1069 142 940.5 56.5 c 0,49,50
 812 -29 812 -29 541 -29 c 0,51,52
 496.701 -29 496.701 -29 450 -25.9967 c 1,53,-1
 450 -125 l 2,54,55
 450 -247.907 450 -247.907 479 -295 c 0,56,57
 508 -342 508 -342 581 -342 c 0,58,59
 647 -342 647 -342 676.5 -306.5 c 0,60,61
 706 -271 706 -271 708 -191 c 1,62,-1
 821 -191 l 1,63,-1
 821 -416 l 1,64,65
 748 -435 748 -435 680 -445 c 0,66,67
 612 -455 612 -455 552 -455 c 0,68,69
 327.004 -455 327.004 -455 211.5 -371.5 c 0,70,71
 96 -288.003 96 -288.003 96 -125 c 2,72,-1
 96 31 l 1,0,-1
EndSplineSet
EndChar
StartChar: uni0283
Encoding: 643 643 643
Width: 678
Flags: W
Fore
18 1196 m 2,22,23
 -8.58594 1370.99 -8.58594 1370.99 131 1464.5 c 128,-1,24
 244 1556 244 1556 463 1556 c 0,25,26
 548 1556 548 1556 629 1546.5 c 128,-1,27
 710 1537 710 1537 788 1518 c 1,28,-1
 788 1290 l 1,0,-1
 676 1290 l 1,1,2
 668 1368 668 1368 630.5 1406 c 128,-1,3
 593 1444 593 1444 524 1444 c 0,4,5
 441.568 1444 441.568 1444 408 1386.5 c 128,-1,6
 352.823 1326.61 352.823 1326.61 372 1200 c 2,7,-1
 573 -127 l 2,16,17
 595.043 -272.527 595.043 -272.527 457.5 -373.5 c 128,-1,18
 342 -457 342 -457 117 -457 c 0,19,20
 57 -457 57 -457 -11 -447 c 128,-1,21
 -79 -437 -79 -437 -152 -418 c 1,22,-1
 -152 -192 l 1,23,-1
 -39 -193 l 1,24,25
 -37 -273 -37 -273 -7.5 -308.5 c 128,-1,26
 22 -344 22 -344 88 -344 c 0,27,28
 161 -344 161 -344 190 -297 c 128,-1,29
 233.71 -223.824 233.71 -223.824 219 -127 c 2,30,-1
 18 1196 l 2,22,23
EndSplineSet
EndChar
StartChar: uni0284
Encoding: 644 644 644
Width: 881
Flags: W
Fore
575 121 m 1,0,-1
 780 121 l 1,1,-1
 780 0 l 1,2,-1
 573 -5.55112e-15 l 1,3,-1
 573 -125 l 2,4,5
 573 -287.63 573 -287.63 457.5 -371.5 c 0,6,7
 342 -455 342 -455 117 -455 c 0,8,9
 57 -455 57 -455 -11 -445 c 0,10,11
 -79 -435 -79 -435 -152 -416 c 1,12,-1
 -152 -190 l 1,13,-1
 -39 -191 l 1,14,15
 -37 -271 -37 -271 -7.5 -306.5 c 0,16,17
 22 -342 22 -342 88 -342 c 0,18,19
 161 -342 161 -342 190 -295 c 0,20,21
 219 -248 219 -248 219 -125 c 2,22,-1
 219 7.42462e-16 l 1,23,-1
 70 0 l 1,24,-1
 70 121 l 1,25,-1
 219 121 l 1,26,-1
 219 942 l 1,27,-1
 63 942 l 1,28,-1
 63 1063 l 1,29,-1
 221 1063 l 1,30,-1
 221 1196 l 2,31,32
 221 1373 221 1373 334 1464.5 c 0,33,34
 447 1556 447 1556 666 1556 c 0,35,36
 751 1556 751 1556 832 1546.5 c 0,37,38
 913 1537 913 1537 991 1518 c 1,39,-1
 991 1290 l 1,40,-1
 879 1290 l 1,41,42
 871 1368 871 1368 833.5 1406 c 0,43,44
 796 1444 796 1444 727 1444 c 0,45,46
 647 1444 647 1444 611 1386.5 c 0,47,48
 575 1328.66 575 1328.66 575 1200 c 2,49,-1
 575 121 l 1,0,-1
219 942 m 1,50,-1
 221 941.593 l 1,51,-1
 219 942 l 1,50,-1
EndSplineSet
EndChar
StartChar: uni0285
Encoding: 645 645 645
Width: 1106
Flags: W
Fore
854 720 m 2,22,23
 891.625 878.174 891.625 878.174 741 988.5 c 128,-1,24
 616.077 1080 616.077 1080 409 1080 c 0,25,26
 324 1080 324 1080 243 1070.5 c 128,-1,27
 162 1061 162 1061 84 1042 c 1,28,-1
 84 814 l 1,0,-1
 196 814 l 1,1,2
 204 892 204 892 241.5 930 c 128,-1,3
 279 968 279 968 348 968 c 0,4,5
 420.532 968 420.532 968 464 910.5 c 128,-1,6
 525.037 829.754 525.037 829.754 500 724 c 2,7,-1
 299 -125 l 2,16,17
 266.05 -264.179 266.05 -264.179 414.5 -371.5 c 128,-1,18
 530 -455 530 -455 755 -455 c 0,19,20
 815 -455 815 -455 883 -445 c 128,-1,21
 951 -435 951 -435 1024 -416 c 1,22,-1
 1024 -190 l 1,23,-1
 911 -191 l 1,24,25
 909 -271 909 -271 879.5 -306.5 c 128,-1,26
 850 -342 850 -342 784 -342 c 0,27,28
 711 -342 711 -342 682 -295 c 128,-1,29
 632.338 -211.861 632.338 -211.861 653 -125 c 2,30,-1
 854 720 l 2,22,23
EndSplineSet
EndChar
StartChar: uni0286
Encoding: 646 646 646
Width: 678
Flags: W
TeX: 0 0 0 0
Fore
753 -423 m 1,0,1
 753 -334.467 753 -334.467 706 -253 c 0,2,3
 669.638 -189.973 669.638 -189.973 574.043 -134.59 c 1,4,5
 573.577 -130.81 573.577 -130.81 573 -127 c 2,6,-1
 372 1200 l 2,7,8
 354.475 1315.7 354.475 1315.7 408 1386.5 c 0,9,10
 451.469 1444 451.469 1444 524 1444 c 0,11,12
 593 1444 593 1444 630.5 1406 c 0,13,14
 668 1368 668 1368 676 1290 c 1,15,-1
 788 1290 l 1,16,-1
 788 1518 l 1,17,18
 710 1537 710 1537 629 1546.5 c 0,19,20
 548 1556 548 1556 463 1556 c 0,21,22
 255.921 1556 255.921 1556 131 1464.5 c 0,23,24
 -7.39206 1363.13 -7.39206 1363.13 18 1196 c 2,25,-1
 204.731 -33.0815 l 1,26,27
 168.243 -31.0305 168.243 -31.0305 129.6 -31 c 0,28,29
 66.9997 -30.9506 66.9997 -30.9506 19.3796 -42.3774 c 0,30,31
 -132 -78.7023 -132 -78.7023 -132 -231 c 0,32,33
 -132 -453.258 -132 -453.258 216 -456 c 0,34,35
 345.197 -457.018 345.197 -457.018 457.5 -373.5 c 0,36,37
 532.463 -317.751 532.463 -317.751 560.005 -249.438 c 1,38,39
 585.225 -272.068 585.225 -272.068 603 -300 c 0,40,41
 631 -344 631 -344 643 -423 c 1,42,-1
 753 -423 l 1,0,1
218.345 -122.686 m 1,43,-1
 219 -127 l 2,44,45
 237.849 -251.065 237.849 -251.065 190 -297 c 0,46,47
 161.031 -324.81 161.031 -324.81 132 -327 c 0,48,49
 0 -334.241 0 -334.241 0 -246 c 0,50,51
 0 -119.454 0 -119.454 183.6 -121 c 0,52,53
 200.528 -121.143 200.528 -121.143 218.345 -122.686 c 1,43,-1
EndSplineSet
EndChar
StartChar: uni0287
Encoding: 647 647 647
Width: 1008
Flags: W
Fore
803 121 m 1,0,-1
 957 121 l 1,1,-1
 957 0 l 1,2,-1
 803 0 l 1,3,-1
 803 -330 l 1,4,-1
 449 -330 l 1,5,-1
 449 0 l 1,6,-1
 154 0 l 1,7,-1
 154 121 l 1,8,-1
 449 121 l 1,9,-1
 449 772 l 2,10,11
 449 911 449 911 427 945 c 128,-1,12
 405 979 405 979 347 979 c 0,13,14
 283 979 283 979 252 936 c 128,-1,15
 221 893 221 893 219 803 c 1,16,-1
 70 803 l 1,17,18
 79 963 79 963 157.5 1027.5 c 128,-1,19
 236 1092 236 1092 428 1092 c 0,20,21
 647 1092 647 1092 725 1023.5 c 128,-1,22
 803 955 803 955 803 772 c 2,23,-1
 803 121 l 1,0,-1
EndSplineSet
EndChar
StartChar: uni0288
Encoding: 648 648 648
Width: 946
Flags: W
Fore
203 942 m 1,0,-1
 49 942 l 1,1,-1
 49 1063 l 1,2,-1
 203 1063 l 1,3,-1
 203 1393 l 1,4,-1
 557 1393 l 1,5,-1
 557 1063 l 1,6,-1
 852 1063 l 1,7,-1
 852 942 l 1,8,-1
 557 942 l 1,9,-1
 557 -125 l 2,10,11
 557 -247.91 557 -247.91 586 -295 c 0,12,13
 615 -342 615 -342 688 -342 c 0,14,15
 754 -342 754 -342 783.5 -306.5 c 0,16,17
 813 -271 813 -271 815 -191 c 1,18,-1
 928 -191 l 1,19,-1
 928 -416 l 1,20,21
 855 -435 855 -435 787 -445 c 0,22,23
 719 -455 719 -455 659 -455 c 0,24,25
 434.004 -455 434.004 -455 318.5 -371.5 c 0,26,27
 203 -288.003 203 -288.003 203 -125 c 2,28,-1
 203 942 l 1,0,-1
EndSplineSet
EndChar
StartChar: uni0289
Encoding: 649 649 649
Width: 1489
Flags: W
Fore
913 600 m 1,0,-1
 913 942 l 1,1,-1
 784 942 l 1,2,-1
 784 1063 l 1,3,-1
 1268 1063 l 1,4,-1
 1268 600 l 1,5,-1
 1408 600 l 1,6,-1
 1408 479 l 1,7,-1
 1268 479 l 1,8,-1
 1268 121 l 1,9,-1
 1419 121 l 1,10,-1
 1419 0 l 1,11,-1
 913 0 l 1,12,-1
 913 150 l 1,13,14
 850 55 850 55 768 13 c 0,15,16
 686 -29 686 -29 561 -29 c 0,17,18
 382 -29 382 -29 290.5 76.5 c 0,19,20
 199 182 199 182 199 387 c 2,21,-1
 199 479 l 1,22,-1
 70 479 l 1,23,-1
 70 600 l 1,24,-1
 199 600 l 1,25,-1
 199 942 l 1,26,-1
 47 942 l 1,27,-1
 47 1063 l 1,28,-1
 553 1063 l 1,29,-1
 553 600 l 1,30,-1
 913 600 l 1,0,-1
913 479 m 1,31,-1
 553 479 l 1,32,-1
 553 442 l 2,33,34
 553 244 553 244 586 190.5 c 0,35,36
 619 137 619 137 707 137 c 0,37,38
 814 137 814 137 863.5 216 c 0,39,40
 913 295 913 295 913 467 c 2,41,-1
 913 479 l 1,31,-1
EndSplineSet
EndChar
StartChar: uni028A
Encoding: 650 650 650
Width: 1391
Flags: W
TeX: 0 0 0 0
Fore
1208.7 975 m 1,21,-1
 926.95 975 l 1,24,25
 1102.9 911 1102.9 911 1206.4 782 c 128,-1,26
 1309.9 652 1309.9 652 1309.9 510 c 0,27,28
 1309.9 402 1309.9 402 1260.45 303 c 128,-1,29
 1211 204 1211 204 1119 131 c 0,30,31
 1036.2 64 1036.2 64 928.101 29 c 128,-1,32
 818.851 -7 818.851 -7 696.95 -7 c 0,33,34
 573.9 -7 573.9 -7 466.95 28 c 128,-1,35
 360 63 360 63 276.05 131 c 0,36,37
 181.75 206 181.75 206 133.45 303 c 128,-1,38
 84 400 84 400 84 510 c 0,39,40
 84 652 84 652 187.5 781 c 128,-1,41
 291 911 291 911 468.101 975 c 1,0,-1
 85.1504 975 l 1,3,-1
 85.1504 1096 l 1,4,-1
 596.9 1096 l 1,5,-1
 596.9 931 l 1,6,7
 566 910 566 910 512.721 782 c 128,-1,8
 470.63 683.803 470.63 683.803 470.63 526 c 0,9,10
 470.63 341 470.63 341 532.73 229 c 128,-1,11
 595.521 117 595.521 117 696.95 117 c 0,12,13
 798.38 117 798.38 117 860.48 229 c 128,-1,14
 923.271 341 923.271 341 923.271 526 c 0,15,16
 923.271 687.231 923.271 687.231 881.18 783 c 128,-1,17
 828 904 828 904 798.15 931 c 1,18,-1
 798.15 1096 l 1,19,-1
 1208.7 1096 l 1,20,-1
 1208.7 975 l 1,21,-1
EndSplineSet
EndChar
StartChar: uni028B
Encoding: 651 651 651
Width: 1421
Flags: W
TeX: 0 0 0 0
Fore
727 -3 m 8,33,34
 221 0 221 0 221 348 c 2,0,0
 221 942 l 1,18,-1
 70 942 l 1,19,-1
 70 1063 l 1,20,-1
 575 1063 l 1,21,-1
 575 346 l 2,0,0
 575 120 575 120 727 121 c 24,12,13
 828 121 828 121 891 233 c 128,-1,14
 953 345 953 345 953 530 c 0,15,16
 953 691 953 691 911 787 c 128,-1,17
 858 908 858 908 828 935 c 1,18,-1
 828 979 l 1,19,-1
 957 979 l 1,24,25
 1133 915 1133 915 1236 786 c 128,-1,26
 1340 656 1340 656 1340 514 c 0,27,28
 1340 406 1340 406 1290 307 c 128,-1,29
 1241 208 1241 208 1149 135 c 0,30,31
 1066 68 1066 68 958 33 c 128,-1,32
 849 -3 849 -3 727 -3 c 8,33,34
EndSplineSet
EndChar
StartChar: uni028C
Encoding: 652 652 652
Width: 1313
Flags: W
Fore
854 1063 m 1,0,-1
 1231 121 l 1,1,-1
 1348 121 l 1,2,-1
 1348 0 l 1,3,-1
 738 0 l 1,4,-1
 738 121 l 1,5,-1
 867 121 l 1,6,-1
 598 793 l 1,7,-1
 330 121 l 1,8,-1
 469 121 l 1,9,-1
 469 0 l 1,10,-1
 70 0 l 1,11,-1
 70 121 l 1,12,-1
 193 121 l 1,13,-1
 570 1063 l 1,14,-1
 854 1063 l 1,0,-1
EndSplineSet
EndChar
StartChar: uni028D
Encoding: 653 653 653
Width: 1857
Flags: W
Fore
770 0 m 1,0,-1
 528 709 l 1,1,-1
 328 121 l 1,2,-1
 467 121 l 1,3,-1
 467 0 l 1,4,-1
 70 0 l 1,5,-1
 70 121 l 1,6,-1
 195 121 l 1,7,-1
 516 1063 l 1,8,-1
 760 1063 l 1,9,-1
 985 397 l 1,10,-1
 1212 1063 l 1,11,-1
 1454 1063 l 1,12,-1
 1776 121 l 1,13,-1
 1892 121 l 1,14,-1
 1892 0 l 1,15,-1
 1290 0 l 1,16,-1
 1290 121 l 1,17,-1
 1415 121 l 1,18,-1
 1219 696 l 1,19,-1
 981 0 l 1,20,-1
 770 0 l 1,0,-1
EndSplineSet
EndChar
StartChar: uni028E
Encoding: 654 654 654
Width: 1301
Flags: W
Fore
670 1303 m 1,0,1
 718 1420 718 1420 786 1469 c 128,-1,2
 854 1518 854 1518 969 1518 c 0,3,4
 1018 1518 1018 1518 1078 1507 c 128,-1,5
 1138 1496 1138 1496 1209 1475 c 1,6,-1
 1209 1253 l 1,7,-1
 1096 1254 l 1,8,9
 1093 1331 1093 1331 1059.5 1368 c 128,-1,10
 1026 1405 1026 1405 959 1405 c 0,11,12
 894 1405 894 1405 854 1369.5 c 128,-1,13
 814 1334 814 1334 774 1235 c 1,14,-1
 758 1198 l 1,15,-1
 1221 121 l 1,16,-1
 1336 121 l 1,17,-1
 1336 0 l 1,18,-1
 723 0 l 1,19,-1
 723 121 l 1,20,-1
 850 121 l 1,21,-1
 580 750 l 1,22,-1
 328 121 l 1,23,-1
 469 121 l 1,24,-1
 469 0 l 1,25,-1
 70 0 l 1,26,-1
 70 121 l 1,27,-1
 199 121 l 1,28,-1
 670 1303 l 1,0,1
EndSplineSet
EndChar
StartChar: uni028F
Encoding: 655 655 655
Width: 1488
Flags: W
TeX: 0 0 0 0
Fore
371 0 m 1,0,-1
 371 121 l 1,1,-1
 572 121 l 1,2,-1
 572 403 l 1,3,-1
 255 944 l 1,4,-1
 128 944 l 1,5,-1
 128 1065 l 1,6,-1
 844 1065 l 1,7,-1
 844 944 l 1,8,-1
 678 944 l 1,9,-1
 887 588 l 1,10,-1
 1094 944 l 1,11,-1
 945 944 l 1,12,-1
 945 1065 l 1,13,-1
 1373 1065 l 1,14,-1
 1373 944 l 1,15,-1
 1246 944 l 1,16,-1
 959 455 l 1,17,-1
 959 121 l 1,18,-1
 1160 121 l 1,19,-1
 1160 0 l 1,20,-1
 371 0 l 1,0,-1
EndSplineSet
EndChar
StartChar: uni0290
Encoding: 656 656 656
Width: 1163
Flags: W
TeX: 0 0 0 0
Fore
72 0 m 1,0,-1
 72 121 l 1,1,-1
 682 946 l 1,2,-1
 223 946 l 1,3,-1
 223 764 l 1,4,-1
 104 764 l 1,5,-1
 104 1063 l 1,6,-1
 1094 1063 l 1,7,-1
 1094 944 l 1,8,-1
 483 119 l 1,9,-1
 1094 119 l 1,10,-1
 1094 88 l 1,11,-1
 1096 88 l 1,12,-1
 1096 -125 l 2,13,14
 1096 -247.914 1096 -247.914 1125 -295 c 0,15,16
 1154 -342 1154 -342 1227 -342 c 0,17,18
 1293 -342 1293 -342 1322.5 -306.5 c 0,19,20
 1352 -271 1352 -271 1354 -191 c 1,21,-1
 1467 -191 l 1,22,-1
 1467 -416 l 1,23,24
 1394 -435 1394 -435 1326 -445 c 0,25,26
 1258 -455 1258 -455 1198 -455 c 0,27,28
 976.556 -455 976.556 -455 857.5 -371.5 c 0,29,30
 742 -290.494 742 -290.494 742 -125 c 2,31,-1
 742 3.44169e-15 l 1,32,-1
 72 0 l 1,0,-1
EndSplineSet
EndChar
StartChar: uni0291
Encoding: 657 657 657
Width: 1163
Flags: W
TeX: 0 0 0 0
Fore
654.372 1.07035 m 1,0,1
 1091.49 4.78972 1091.49 4.78972 1092 200 c 0,2,3
 1092.39 350.431 1092.39 350.431 980 384 c 0,4,5
 839.142 426.01 839.142 426.01 696 334 c 0,6,7
 608.137 277.522 608.137 277.522 550.8 141 c 0,8,9
 546.434 130.513 546.434 130.513 542.645 119 c 1,10,-1
 483 119 l 1,11,-1
 1094 944 l 1,12,-1
 1094 1063 l 1,13,-1
 104 1063 l 1,14,-1
 104 764 l 1,15,-1
 223 764 l 1,16,-1
 223 946 l 1,17,-1
 682 946 l 1,18,-1
 72 121 l 1,19,-1
 72 0 l 1,20,-1
 520.704 0.789141 l 1,21,22
 519.135 -18.3639 519.135 -18.3639 518.4 -39 c 2,23,-1
 517.2 -183 l 1,24,-1
 654 -183 l 1,25,-1
 654 -39 l 2,26,27
 653.699 -17.688 653.699 -17.688 654.372 1.07035 c 1,0,1
675.858 119 m 1,28,29
 716.645 233.08 716.645 233.08 813 270 c 0,30,31
 875.797 294.061 875.797 294.061 872 224 c 0,32,33
 866.811 117.174 866.811 117.174 714 119 c 2,34,-1
 675.858 119 l 1,28,29
EndSplineSet
EndChar
StartChar: uni0292
Encoding: 658 658 658
Width: 1163
Flags: W
TeX: 0 0 0 0
Fore
730.25 452.25 m 1,0,0
 950.545 431.318 950.545 431.318 1062 347 c 128,-1,14
 1222 225.849 1222 225.849 1222 16 c 24,12,13
 1222 -193 1222 -193 1056.5 -304.5 c 128,-1,14
 891 -416 891 -416 577 -416 c 0,15,16
 459 -416 459 -416 333.5 -396 c 128,-1,17
 208 -376 208 -376 71 -336 c 1,18,-1
 71 -8 l 1,19,-1
 192 -8 l 1,20,21
 203 -150 203 -150 281 -224.5 c 128,-1,22
 359 -299 359 -299 497 -299 c 0,23,24
 649 -299 649 -299 732 -214.5 c 128,-1,25
 815 -130 815 -130 815 25 c 0,26,27
 815 187 815 187 728.5 275 c 128,-1,28
 642 363 642 363 483 363 c 2,29,-1
 417 363 l 1,30,-1
 417 587.5 l 1,0,0
 682 946 l 1,2,-1
 223 946 l 1,3,-1
 223 764 l 1,4,-1
 104 764 l 1,5,-1
 104 1063 l 1,6,-1
 1094 1063 l 1,7,-1
 1094 944 l 1,8,-1
 730.25 452.25 l 1,0,0
EndSplineSet
EndChar
StartChar: uni0293
Encoding: 659 659 659
Width: 1163
Flags: W
TeX: 0 0 0 0
Fore
577 -416 m 0,0,1
 229 -416 229 -416 229 -191 c 0,2,3
 229 -17.5794 229 -17.5794 425.283 5.46782 c 2,4,5
 490.6 9 l 2,6,7
 675.645 8.85396 675.645 8.85396 811.261 -37.6232 c 1,8,9
 815 -7.8997 815 -7.8997 815 25 c 0,10,11
 815 187 815 187 728.5 275 c 0,12,13
 642 363 642 363 483 363 c 2,14,-1
 417 363 l 1,15,-1
 417 587.5 l 1,16,-1
 682 946 l 1,17,-1
 223 946 l 1,18,-1
 223 764 l 1,19,-1
 104 764 l 1,20,-1
 104 1063 l 1,21,-1
 1094 1063 l 1,22,-1
 1094 944 l 1,23,-1
 730.25 452.25 l 1,24,25
 950.545 431.318 950.545 431.318 1062 347 c 0,26,27
 1222 225.849 1222 225.849 1222 16 c 0,28,29
 1222 -166.678 1222 -166.678 1095.56 -274.869 c 1,30,31
 1114 -327.548 1114 -327.548 1114 -383 c 1,32,-1
 1004 -383 l 1,33,34
 1000.46 -359.67 1000.46 -359.67 995.517 -339.392 c 1,35,36
 837.273 -416 837.273 -416 577 -416 c 0,0,1
785.233 -135.363 m 1,37,38
 648.382 -81.8735 648.382 -81.8735 544.6 -81 c 0,39,40
 361 -79.4547 361 -79.4547 361 -206 c 0,41,42
 361 -299 361 -299 497 -299 c 0,43,44
 649 -299 649 -299 732 -214.5 c 0,45,46
 765.295 -180.604 765.295 -180.604 785.233 -135.363 c 1,37,38
EndSplineSet
EndChar
StartChar: uni0294
Encoding: 660 660 660
Width: 1098
Flags: W
Fore
410 121 m 1,0,-1
 410 832 l 1,1,-1
 526 832 l 2,2,3
 598.571 832 598.571 832 630 862 c 0,4,5
 675.536 903.396 675.536 903.396 672 1116 c 0,6,7
 668.116 1349.51 668.116 1349.51 643 1398 c 0,8,9
 617.575 1445 617.575 1445 516 1445 c 0,10,11
 425.797 1445 425.797 1445 397.5 1409.5 c 0,12,13
 370 1376 370 1376 366 1294 c 1,14,-1
 253 1294 l 1,15,-1
 256 1492 l 1,16,17
 318.008 1526 318.008 1526 384 1542 c 0,18,19
 450.004 1558 450.004 1558 522 1558 c 0,20,21
 782 1558 782 1558 880 1465 c 0,22,23
 978 1372 978 1372 978 1148 c 0,24,25
 978 910.645 978 910.645 880 826 c 0,26,27
 791.2 749.301 791.2 749.301 764 741 c 1,28,-1
 764 121 l 1,29,-1
 916 121 l 1,30,-1
 916 0 l 1,31,-1
 764 0 l 1,32,-1
 410 0 l 1,33,-1
 259 0 l 1,34,-1
 259 121 l 1,35,-1
 410 121 l 1,0,-1
EndSplineSet
EndChar
StartChar: uni0295
Encoding: 661 661 661
Width: 1098
Flags: W
Fore
821 121 m 1,0,-1
 972 121 l 1,35,-1
 972 0 l 1,34,-1
 821 0 l 1,33,-1
 467 0 l 1,32,-1
 315 0 l 1,31,-1
 315 121 l 1,30,-1
 467 121 l 1,29,-1
 467 741 l 1,28,-1
 439.8 749.301 439.8 749.301 351 826 c 0,26,27
 253 910.646 253 910.646 253 1148 c 0,24,25
 253 1372 253 1372 351 1465 c 0,22,23
 449 1558 449 1558 709 1558 c 0,20,21
 780.996 1558 780.996 1558 847 1542 c 0,18,19
 912.992 1526 912.992 1526 975 1492 c 1,16,17
 978 1294 l 1,15,-1
 865 1294 l 1,14,-1
 861 1376 861 1376 833.5 1409.5 c 0,12,13
 805.203 1445 805.203 1445 715 1445 c 0,10,11
 613.425 1445 613.425 1445 588 1398 c 0,8,9
 562.884 1349.51 562.884 1349.51 559 1116 c 0,6,7
 555.464 903.396 555.464 903.396 601 862 c 0,4,5
 632.429 832 632.429 832 705 832 c 2,2,3
 821 832 l 1,1,-1
 821 121 l 1,0,-1
EndSplineSet
EndChar
StartChar: uni0296
Encoding: 662 662 662
Width: 1098
Flags: W
Fore
410 1437 m 1,0,-1
 259 1437 l 1,35,-1
 259 1558 l 1,34,-1
 410 1558 l 1,33,-1
 764 1558 l 1,32,-1
 916 1558 l 1,31,-1
 916 1437 l 1,30,-1
 764 1437 l 1,29,-1
 764 817 l 1,28,-1
 791.2 808.699 791.2 808.699 880 732 c 0,26,27
 978 647.354 978 647.354 978 410 c 0,24,25
 978 186 978 186 880 93 c 0,22,23
 782 0 782 0 522 0 c 0,20,21
 450.004 0 450.004 0 384 16 c 0,18,19
 318.008 32 318.008 32 256 66 c 1,16,17
 253 264 l 1,15,-1
 366 264 l 1,14,-1
 370 182 370 182 397.5 148.5 c 0,12,13
 425.797 113 425.797 113 516 113 c 0,10,11
 617.575 113 617.575 113 643 160 c 0,8,9
 668.116 208.493 668.116 208.493 672 442 c 0,6,7
 675.536 654.604 675.536 654.604 630 696 c 0,4,5
 598.571 726 598.571 726 526 726 c 2,2,3
 410 726 l 1,1,-1
 410 1437 l 1,0,-1
EndSplineSet
EndChar
StartChar: uni0297
Encoding: 663 663 663
Width: 1116
Flags: W
TeX: 0 0 0 0
Fore
559 1116 m 18,0,0
 559 1342.01 559 1342.01 588 1398 c 0,8,9
 613.425 1445 613.425 1445 715 1445 c 0,10,11
 805.203 1445 805.203 1445 833.5 1409.5 c 0,12,13
 861 1376 861 1376 865 1294 c 1,14,-1
 978 1294 l 1,15,-1
 975 1492 l 1,16,17
 912.992 1526 912.992 1526 847 1542 c 0,18,19
 780.996 1558 780.996 1558 709 1558 c 0,20,21
 449 1558 449 1558 351 1465 c 0,22,23
 253 1372 253 1372 253 1148 c 2,24,25
 253 -46 l 18,0,0
 253 -270 253 -270 351 -363 c 0,22,23
 449 -456 449 -456 709 -456 c 0,20,21
 780.996 -456 780.996 -456 847 -440 c 0,18,19
 912.992 -424 912.992 -424 975 -390 c 1,16,17
 978 -192 l 1,15,-1
 865 -192 l 1,14,-1
 861 -274 861 -274 833.5 -307.5 c 0,12,13
 805.203 -343 805.203 -343 715 -343 c 0,10,11
 613.425 -343 613.425 -343 588 -296 c 0,8,9
 559 -303.319 559 -303.319 559 -14 c 2,6,7
 559 1116 l 18,0,0
EndSplineSet
EndChar
StartChar: uni0298
Encoding: 664 664 664
Width: 1474
Flags: W
Fore
749.35 138 m 8,0,1
 899.948 271.721 899.948 271.721 900.55 542 c 24,10,11
 901.151 811.936 901.151 811.936 751.15 947 c 24,8,9
 600.888 1082.3 600.888 1082.3 449.65 948 c 24,6,7
 299.05 814.26 299.05 814.26 298.45 545 c 24,4,5
 297.849 275.397 297.849 275.397 447.85 140 c 24,2,3
 598.484 4.0304 598.484 4.0304 749.35 138 c 8,0,1
597.85 0 m 24,0,1
 252.238 1.00169 252.238 1.00169 80.8496 273 c 24,2,3
 -90.8562 545.501 -90.8562 545.501 83.0498 817 c 24,4,5
 256.851 1088.33 256.851 1088.33 602.25 1087 c 24,6,7
 946.706 1085.67 946.706 1085.67 1118.15 813 c 24,8,9
 1289.28 540.835 1289.28 540.835 1115.95 270 c 24,10,11
 942.517 -0.998951 942.517 -0.998951 597.85 0 c 24,0,1
598.925 437 m 24,0,1
 527.79 437 527.79 437 493.125 490 c 24,2,3
 458.321 543.212 458.321 543.212 494.275 597 c 24,4,5
 529.924 650.332 529.924 650.332 600.075 650 c 24,6,7
 670.387 649.668 670.387 649.668 705.875 596 c 24,8,9
 741.221 542.547 741.221 542.547 705.875 490 c 24,10,11
 670.225 437 670.225 437 598.925 437 c 24,0,1
EndSplineSet
EndChar
StartChar: uni0299
Encoding: 665 665 665
Width: 1491
Flags: W
Fore
128 0 m 1,0,-1
 128 86.5146 l 1,1,-1
 284.62 86.5146 l 1,2,-1
 284.62 980.98 l 1,3,-1
 128 980.98 l 1,4,-1
 128 1067.5 l 1,5,-1
 853.7 1067.5 l 2,6,7
 1077.56 1067.5 1077.56 1067.5 1189.9 1001.71 c 128,-1,8
 1302.24 935.935 1302.24 935.935 1302.24 803.66 c 0,9,10
 1302.24 708.565 1302.24 708.565 1224.75 652.795 c 128,-1,11
 1147.26 597.025 1147.26 597.025 994.74 582.725 c 1,12,13
 1179.24 567.71 1179.24 567.71 1277.64 496.925 c 128,-1,14
 1376.04 426.14 1376.04 426.14 1376.04 308.88 c 0,15,16
 1376.04 150.15 1376.04 150.15 1238.69 75.0752 c 128,-1,17
 1101.34 0 1101.34 0 808.6 0 c 2,18,-1
 128 0 l 1,0,-1
679.04 622.05 m 1,19,-1
 700.66 622.05 l 2,20,21
 841.699 622.05 841.699 622.05 909.76 666.737 c 128,-1,22
 977.82 711.425 977.82 711.425 977.82 803.66 c 0,23,24
 977.82 896.61 977.82 896.61 911.811 938.795 c 128,-1,25
 845.8 980.98 845.8 980.98 700.66 980.98 c 2,26,-1
 679.04 980.98 l 1,27,-1
 679.04 622.05 l 1,19,-1
679.04 86.5146 m 1,28,-1
 710.5 86.5146 l 2,29,30
 867.119 86.5146 867.119 86.5146 942.561 140.855 c 128,-1,31
 1018 195.195 1018 195.195 1018 308.88 c 0,32,33
 1018 423.28 1018 423.28 941.74 479.765 c 128,-1,34
 865.48 536.25 865.48 536.25 710.5 536.25 c 2,35,-1
 679.04 536.25 l 1,36,-1
 679.04 86.5146 l 1,28,-1
EndSplineSet
EndChar
StartChar: uni029A
Encoding: 666 666 666
Width: 1474
Flags: W
TeX: 0 0 0 0
Fore
674.3 70 m 24,3,4
 730.1 70 730.1 70 764.3 81 c 128,-1,2
 826.996 101.165 826.996 101.165 865.1 127 c 0,0,0
 1081.1 273.449 1081.1 273.449 1081.1 525 c 0,0,0
 1081.1 800 1081.1 800 865.1 923 c 0,0,0
 801.2 960 801.2 960 764.3 969 c 128,-1,2
 690.499 987 690.499 987 674.3 987 c 24,3,4
 566.3 987 566.3 987 508.3 935 c 128,-1,37
 451.3 884 451.3 884 451.3 789 c 0,35,36
 451.3 713.4 451.3 713.4 521.3 651 c 128,-1,34
 592.3 587.4 592.3 587.4 730.3 587.4 c 2,32,33
 768.3 587.4 l 1,31,-1
 768.3 467.4 l 17,0,0
 730.3 467.4 l 2,32,33
 589.979 467.4 589.979 467.4 521.3 405 c 128,-1,34
 451.3 341.4 451.3 341.4 451.3 268 c 0,35,36
 451.3 172 451.3 172 508.3 121 c 128,-1,37
 565.3 71 565.3 71 674.3 70 c 24,3,4
646.3 1092 m 24,3,4
 757.009 1092 757.009 1092 841.25 1074 c 128,-1,2
 944.312 1051.98 944.312 1051.98 1012.97 1018 c 0,0,0
 1381.25 836 1381.25 836 1381.25 528 c 0,0,0
 1381.25 191.829 1381.25 191.829 1012.97 38 c 0,0,0
 900.017 -9.17969 900.017 -9.17969 841.25 -17 c 128,-1,2
 698.466 -36 698.466 -36 677.399 -36 c 24,3,4
 370.2 -36 370.2 -36 227.1 41 c 128,-1,5
 84 118 84 118 84 259 c 0,6,7
 84 362 84 362 185.25 433 c 128,-1,8
 287.85 504 287.85 504 470.1 528 c 1,9,10
 287.85 552 287.85 552 185.25 624 c 128,-1,8
 84 695 84 695 84 797 c 0,6,7
 84 938 84 938 227.1 1015 c 128,-1,5
 370.2 1092 370.2 1092 646.3 1092 c 24,3,4
EndSplineSet
EndChar
StartChar: uni029B
Encoding: 667 667 667
Width: 1283
Flags: W
TeX: 0 0 0 0
Fore
1006 720 m 1,0,1
 983.631 834.618 983.631 834.618 884 919 c 0,2,3
 811.977 980 811.977 980 735 980 c 0,4,5
 619 980 619 980 544 871 c 0,6,7
 468 762 468 762 468 527 c 0,8,9
 468 293.58 468 293.58 540 185 c 0,10,11
 612.941 75.0001 612.941 75.0001 721 75 c 0,12,13
 770 75 770 75 828 115 c 1,14,-1
 829 411 l 1,15,-1
 684 411 l 1,16,-1
 684 495 l 1,17,-1
 1168 495 l 1,18,-1
 1168 98 l 1,19,20
 1051 44 1051 44 935 17 c 0,21,22
 819 -9 819 -9 698 -9 c 0,23,24
 432 -9 432 -9 280 134 c 0,25,26
 128 278 128 278 128 527 c 0,27,28
 128 776.501 128 776.501 280 920 c 0,29,30
 432.53 1064 432.53 1064 698 1064 c 0,31,32
 738.263 1064 738.263 1064 778 1061.11 c 1,33,-1
 778 1226 l 2,34,35
 778 1389 778 1389 893.5 1472.5 c 0,36,37
 1009.01 1556 1009.01 1556 1234 1556 c 0,38,39
 1294 1556 1294 1556 1362 1546 c 0,40,41
 1430 1536 1430 1536 1503 1517 c 1,42,-1
 1503 1292 l 1,43,-1
 1390 1292 l 1,44,45
 1388 1372 1388 1372 1358.5 1407.5 c 0,46,47
 1329 1443 1329 1443 1263 1443 c 0,48,49
 1190 1443 1190 1443 1161 1396 c 0,50,51
 1132 1348.91 1132 1348.91 1132 1226 c 2,52,-1
 1132 974 l 1,53,-1
 1132 816 l 1,54,-1
 1132 720 l 1,55,-1
 1006 720 l 1,0,1
EndSplineSet
EndChar
StartChar: uni029C
Encoding: 668 668 668
Width: 1492
Flags: W
Fore
128 0 m 1,0,-1
 128 122 l 1,1,-1
 264.565 122 l 1,2,-1
 264.565 942 l 1,3,-1
 128 942 l 1,4,-1
 128 1067.5 l 1,5,-1
 677.12 1067.5 l 1,6,-1
 677.12 942 l 1,7,-1
 603 942 l 1,8,-1
 603 631.846 l 1,9,-1
 893 631.846 l 1,10,-1
 893 942 l 1,11,-1
 827.985 942 l 1,12,-1
 827.985 1067.5 l 1,13,-1
 1377.1 1067.5 l 1,14,-1
 1377.1 942 l 1,15,-1
 1239.83 942 l 1,16,-1
 1239.83 122 l 1,17,-1
 1377.1 122 l 1,18,-1
 1377.1 0 l 1,19,-1
 827.985 0 l 1,20,-1
 827.985 122 l 1,21,-1
 893 122 l 1,22,-1
 893 455 l 1,23,-1
 603 455 l 1,24,-1
 603 122 l 1,25,-1
 677.12 122 l 1,26,-1
 677.12 0 l 1,27,-1
 128 0 l 1,0,-1
EndSplineSet
EndChar
